<?xml version="1.0" encoding="UTF-8" standalone="no"?>
<!-- Generator: Adobe Illustrator 18.1.1, SVG Export Plug-In . SVG Version: 6.00 Build 0)  -->

<svg
   xmlns:dc="http://purl.org/dc/elements/1.1/"
   xmlns:cc="http://creativecommons.org/ns#"
   xmlns:rdf="http://www.w3.org/1999/02/22-rdf-syntax-ns#"
   xmlns:svg="http://www.w3.org/2000/svg"
   xmlns="http://www.w3.org/2000/svg"
   xmlns:sodipodi="http://sodipodi.sourceforge.net/DTD/sodipodi-0.dtd"
   xmlns:inkscape="http://www.inkscape.org/namespaces/inkscape"
   version="1.1"
   id="Layer_1"
   x="0px"
   y="0px"
   viewBox="0 0 94.392494 103.70345"
   enable-background="new 0 0 200 200"
   xml:space="preserve"
   inkscape:version="0.91 r13725"
   sodipodi:docname="arrow-hand-left.svg"
   width="94.392494"
   height="103.70345"><metadata
     id="metadata4763"><rdf:RDF><cc:Work
         rdf:about=""><dc:format>image/svg+xml</dc:format><dc:type
           rdf:resource="http://purl.org/dc/dcmitype/StillImage" /><dc:title></dc:title></cc:Work></rdf:RDF></metadata><defs
     id="defs4761" /><sodipodi:namedview
     pagecolor="#ffffff"
     bordercolor="#666666"
     borderopacity="1"
     objecttolerance="10"
     gridtolerance="10"
     guidetolerance="10"
     inkscape:pageopacity="0"
     inkscape:pageshadow="2"
     inkscape:window-width="1916"
     inkscape:window-height="1037"
     id="namedview4759"
     showgrid="false"
     fit-margin-top="0"
     fit-margin-left="0"
     fit-margin-right="0"
     fit-margin-bottom="0"
     inkscape:zoom="1.18"
     inkscape:cx="-89.265077"
     inkscape:cy="51.828829"
     inkscape:window-x="0"
     inkscape:window-y="20"
     inkscape:window-maximized="0"
     inkscape:current-layer="Layer_1" /><path
     d="m 94.075601,82.074613 c -7.9,-5.1 -33.8,-17.8 -54.7,-24.6 l 40.8,-29 c 0.6,-0.3 14.3,-9.1 14,-9.8 l -10.7,-18.39999961 c -0.3,-0.7 0,0 -5.3,1.40000001 -10.9,2.8 -66.9,45.3999996 -76.5999996,51.6999996 -0.59999996,0.3 -0.4,1.1 -0.5,1.9 -0.69999996,3.9 -1.79999996,10.6 -0.39999996,13.7 0,0.1 0,0.1 0.1,0.1 0.1,0.1 0.39999996,0.3 0.89999996,0.3 L 80.275601,103.47461 c 0.6,0.3 6.7,0.4 7.1,-0.3 1.5,-3 5.1,-10.499997 6.7,-13.799997 0.2,-0.7 0.6,-7 0,-7.3 z"
     id="path4757"
     inkscape:connector-curvature="0" /></svg>