<?xml version="1.0" encoding="UTF-8" standalone="no"?>
<!-- Generator: Adobe Illustrator 18.1.1, SVG Export Plug-In . SVG Version: 6.00 Build 0)  -->

<svg
   xmlns:dc="http://purl.org/dc/elements/1.1/"
   xmlns:cc="http://creativecommons.org/ns#"
   xmlns:rdf="http://www.w3.org/1999/02/22-rdf-syntax-ns#"
   xmlns:svg="http://www.w3.org/2000/svg"
   xmlns="http://www.w3.org/2000/svg"
   xmlns:sodipodi="http://sodipodi.sourceforge.net/DTD/sodipodi-0.dtd"
   xmlns:inkscape="http://www.inkscape.org/namespaces/inkscape"
   version="1.1"
   id="Layer_1"
   x="0px"
   y="0px"
   viewBox="0 0 94.386765 103.60344"
   enable-background="new 0 0 200 200"
   xml:space="preserve"
   inkscape:version="0.91 r13725"
   sodipodi:docname="arrow-hand-right.svg"
   width="94.386765"
   height="103.60344"><metadata
     id="metadata5357"><rdf:RDF><cc:Work
         rdf:about=""><dc:format>image/svg+xml</dc:format><dc:type
           rdf:resource="http://purl.org/dc/dcmitype/StillImage" /><dc:title></dc:title></cc:Work></rdf:RDF></metadata><defs
     id="defs5355" /><sodipodi:namedview
     pagecolor="#ffffff"
     bordercolor="#666666"
     borderopacity="1"
     objecttolerance="10"
     gridtolerance="10"
     guidetolerance="10"
     inkscape:pageopacity="0"
     inkscape:pageshadow="2"
     inkscape:window-width="1916"
     inkscape:window-height="1037"
     id="namedview5353"
     showgrid="false"
     fit-margin-top="0"
     fit-margin-left="0"
     fit-margin-right="0"
     fit-margin-bottom="0"
     inkscape:zoom="1.18"
     inkscape:cx="-89.229517"
     inkscape:cy="51.828829"
     inkscape:window-x="0"
     inkscape:window-y="20"
     inkscape:window-maximized="0"
     inkscape:current-layer="Layer_1" /><path
     d="m 0.31116093,81.974613 c 7.89999997,-5.1 33.80000007,-17.8 54.70000007,-24.6 l -40.8,-28.9 c -0.6,-0.3 -14.30000007,-9.1 -14.00000007,-9.8 L 10.911161,0.27461339 c 0.3,-0.7 0,0 5.3,1.40000001 10.9,2.8 66.9,45.3999996 76.6,51.6999996 0.6,0.3 0.4,1.1 0.5,1.9 0.7,3.9 1.8,10.6 0.4,13.7 0,0.1 0,0.1 -0.1,0.1 -0.1,0.1 -0.4,0.3 -0.9,0.3 l -78.5,33.999997 c -0.6,0.3 -6.7000001,0.4 -7.1000001,-0.3 -1.5,-3 -5.1,-10.499997 -6.69999997,-13.799997 -0.3,-0.7 -0.7,-7 -0.1,-7.3 z"
     id="path5351"
     inkscape:connector-curvature="0" /></svg>