<?xml version="1.0" encoding="UTF-8" standalone="no"?>
<!-- Generator: Adobe Illustrator 18.1.1, SVG Export Plug-In . SVG Version: 6.00 Build 0)  -->

<svg
   xmlns:dc="http://purl.org/dc/elements/1.1/"
   xmlns:cc="http://creativecommons.org/ns#"
   xmlns:rdf="http://www.w3.org/1999/02/22-rdf-syntax-ns#"
   xmlns:svg="http://www.w3.org/2000/svg"
   xmlns="http://www.w3.org/2000/svg"
   xmlns:sodipodi="http://sodipodi.sourceforge.net/DTD/sodipodi-0.dtd"
   xmlns:inkscape="http://www.inkscape.org/namespaces/inkscape"
   version="1.1"
   id="Layer_1"
   x="0px"
   y="0px"
   viewBox="0 0 277.70002 47.000001"
   enable-background="new 0 0 348.3 111.7"
   xml:space="preserve"
   inkscape:version="0.91 r13725"
   sodipodi:docname="logo-name.svg"
   width="277.70001"
   height="47"><metadata
     id="metadata11863"><rdf:RDF><cc:Work
         rdf:about=""><dc:format>image/svg+xml</dc:format><dc:type
           rdf:resource="http://purl.org/dc/dcmitype/StillImage" /><dc:title></dc:title></cc:Work></rdf:RDF></metadata><defs
     id="defs11861" /><sodipodi:namedview
     pagecolor="#ffffff"
     bordercolor="#666666"
     borderopacity="1"
     objecttolerance="10"
     gridtolerance="10"
     guidetolerance="10"
     inkscape:pageopacity="0"
     inkscape:pageshadow="2"
     inkscape:window-width="1916"
     inkscape:window-height="1037"
     id="namedview11859"
     showgrid="false"
     inkscape:zoom="1.1139822"
     inkscape:cx="-5.7765474"
     inkscape:cy="23.450002"
     inkscape:window-x="0"
     inkscape:window-y="20"
     inkscape:window-maximized="0"
     inkscape:current-layer="Layer_1"
     fit-margin-top="0"
     fit-margin-left="0"
     fit-margin-right="0"
     fit-margin-bottom="0" /><g
     id="g11805"
     style="fill:#000000"
     transform="translate(-35.4,-32.3)"><g
       id="g11807"
       style="fill:#000000"><path
         d="m 99.2,46.5 9.3,0 0,1.1 -8.2,0 0,7.7 7.1,0 0,1.1 -7.1,0 0,8.6 -1.1,0 0,-18.5 z"
         id="path11809"
         style="fill:#000000"
         inkscape:connector-curvature="0" /><path
         d="m 111.5,46.5 1.3,0 0,1.9 -1.3,0 0,-1.9 z m 0.1,5.3 1.1,0 0,13.2 -1.1,0 0,-13.2 z"
         id="path11811"
         style="fill:#000000"
         inkscape:connector-curvature="0" /><path
         d="m 116.7,46.5 1.1,0 0,15.5 c 0,1.8 0.9,2.1 1.6,2.1 0.2,0 0.4,0 0.4,0 l 0,1 c 0,0 -0.2,0.1 -0.5,0.1 -0.8,0 -2.6,-0.3 -2.6,-2.8 l 0,-15.9 z"
         id="path11813"
         style="fill:#000000"
         inkscape:connector-curvature="0" /><path
         d="m 128.2,51.5 c 3.8,0 6.8,3 6.8,6.8 0,3.9 -3.1,7 -6.8,7 -3.8,0 -6.8,-3.1 -6.8,-7 -0.1,-3.8 3,-6.8 6.8,-6.8 z m 0,12.7 c 3.1,0 5.7,-2.6 5.7,-5.9 0,-3.3 -2.5,-5.7 -5.7,-5.7 -3.1,0 -5.7,2.5 -5.7,5.7 0,3.3 2.5,5.9 5.7,5.9 z"
         id="path11815"
         style="fill:#000000"
         inkscape:connector-curvature="0" /><path
         d="m 137.7,62.5 c 0,0 1.5,1.7 4.1,1.7 1.6,0 3,-0.8 3,-2.5 0,-3.3 -7.2,-2.4 -7.2,-6.7 0,-2.3 2,-3.6 4.2,-3.6 2.7,0 3.9,1.4 3.9,1.4 l -0.7,0.9 c 0,0 -1.1,-1.2 -3.3,-1.2 -1.5,0 -3,0.7 -3,2.4 0,3.4 7.2,2.4 7.2,6.8 0,2.1 -1.8,3.6 -4.2,3.6 -3.2,0 -4.8,-1.9 -4.8,-1.9 l 0.8,-0.9 z"
         id="path11817"
         style="fill:#000000"
         inkscape:connector-curvature="0" /><path
         d="m 154.9,51.5 c 3.8,0 6.8,3 6.8,6.8 0,3.9 -3.1,7 -6.8,7 -3.8,0 -6.8,-3.1 -6.8,-7 0,-3.8 3.1,-6.8 6.8,-6.8 z m 0,12.7 c 3.1,0 5.7,-2.6 5.7,-5.9 0,-3.3 -2.5,-5.7 -5.7,-5.7 -3.1,0 -5.7,2.5 -5.7,5.7 0.1,3.3 2.6,5.9 5.7,5.9 z"
         id="path11819"
         style="fill:#000000"
         inkscape:connector-curvature="0" /><path
         d="m 172.9,52.8 -6.4,0 0,12.2 -1.1,0 0,-12.2 -1.7,0 0,-1 1.7,0 0,-0.5 c 0,-4.3 2.8,-4.9 4.2,-4.9 0.4,0 0.7,0.1 0.7,0.1 l 0,1 c 0,0 -0.2,-0.1 -0.6,-0.1 -1.1,0 -3.1,0.4 -3.1,3.8 l 0,0.6 7.5,0 0,13.2 -1.1,0 0,-12.2 z m -0.2,-6.3 1.3,0 0,1.9 -1.3,0 0,-1.9 z"
         id="path11821"
         style="fill:#000000"
         inkscape:connector-curvature="0" /><path
         d="m 185.2,56.9 0.9,0 0,-0.4 c 0,-2.9 -1.5,-3.9 -3.6,-3.9 -2.3,0 -3.8,1.3 -3.8,1.3 L 178.1,53 c 0,0 1.6,-1.4 4.5,-1.4 3,0 4.7,1.7 4.7,5 l 0,8.4 -1.3,0 0,-1.7 c 0,-0.7 0.1,-1.2 0.1,-1.2 l -0.1,0 c 0,0 -1.2,3.2 -4.6,3.2 -2.1,0 -4.5,-1.2 -4.5,-3.8 0.1,-4.5 5.9,-4.6 8.3,-4.6 z m -3.7,7.3 c 2.9,0 4.5,-3 4.5,-5.6 l 0,-0.6 -0.8,0 c -2.2,0 -7,0 -7,3.4 -0.1,1.4 1.1,2.8 3.3,2.8 z"
         id="path11823"
         style="fill:#000000"
         inkscape:connector-curvature="0" /><path
         d="m 191.1,51.8 1.1,0 0,2.3 c 0,0.6 -0.1,1.1 -0.1,1.1 l 0.1,0 c 0.4,-1.2 2.3,-3.7 5.6,-3.7 3.4,0 4.3,2 4.3,5.1 l 0,8.4 -1.1,0 0,-8 c 0,-2.3 -0.3,-4.5 -3.2,-4.5 -2.5,0 -4.7,1.7 -5.3,4.2 -0.2,0.6 -0.2,1.2 -0.2,1.8 l 0,6.5 -1.1,0 0,-13.2 z"
         id="path11825"
         style="fill:#000000"
         inkscape:connector-curvature="0" /><path
         d="m 222.3,58.6 -7.8,0 -2.4,6.4 -1.2,0 6.9,-18.4 1.2,0 6.9,18.4 -1.2,0 -2.4,-6.4 z m -3.9,-10.8 c 0,0 -0.4,1.4 -0.7,2.2 l -2.8,7.5 7,0 -2.8,-7.5 c -0.3,-0.7 -0.7,-2.2 -0.7,-2.2 l 0,0 z"
         id="path11827"
         style="fill:#000000"
         inkscape:connector-curvature="0" /><path
         d="m 228.2,46.5 1.1,0 0,10.5 2.3,0 4.3,-5.2 1.4,0 -4.8,5.7 0,0.1 5.2,7.5 -1.4,0 -4.8,-7 -2.3,0 0,7 -1.1,0 0,-18.6 z"
         id="path11829"
         style="fill:#000000"
         inkscape:connector-curvature="0" /><path
         d="m 247.4,56.9 0.9,0 0,-0.4 c 0,-2.9 -1.5,-3.9 -3.6,-3.9 -2.3,0 -3.8,1.3 -3.8,1.3 L 240.3,53 c 0,0 1.6,-1.4 4.5,-1.4 3,0 4.7,1.7 4.7,5 l 0,8.4 -1.1,0 0,-1.7 c 0,-0.7 0.1,-1.2 0.1,-1.2 l -0.1,0 c 0,0 -1.2,3.2 -4.6,3.2 -2.1,0 -4.5,-1.2 -4.5,-3.8 -0.1,-4.5 5.7,-4.6 8.1,-4.6 z m -3.7,7.3 c 2.9,0 4.5,-3 4.5,-5.6 l 0,-0.6 -0.8,0 c -2.2,0 -7,0 -7,3.4 0,1.4 1.1,2.8 3.3,2.8 z"
         id="path11831"
         style="fill:#000000"
         inkscape:connector-curvature="0" /><path
         d="m 253.6,52.9 -1.7,0 0,-1 1.7,0 0,-3.7 1.1,0 0,3.7 3.4,0 0,1 -3.4,0 0,7.2 c 0,3.5 2.1,3.9 3.1,3.9 0.4,0 0.6,-0.1 0.6,-0.1 l 0,1 c 0,0 -0.3,0.1 -0.7,0.1 -1.4,0 -4.2,-0.5 -4.2,-4.9 l 0,-7.2 z"
         id="path11833"
         style="fill:#000000"
         inkscape:connector-curvature="0" /><path
         d="m 266.4,51.5 c 3.6,0 5.4,2.8 5.4,6 0,0.3 -0.1,0.7 -0.1,0.7 l -10.6,0 c 0,3.8 2.6,6 5.6,6 2.5,0 4.1,-1.7 4.1,-1.7 l 0.6,0.9 c 0,0 -1.8,1.8 -4.7,1.8 -3.7,0 -6.8,-2.7 -6.8,-6.9 0.1,-4.4 3.2,-6.8 6.5,-6.8 z m 4.2,5.7 c -0.1,-3.2 -2.1,-4.7 -4.2,-4.7 -2.4,0 -4.7,1.6 -5.1,4.7 l 9.3,0 z"
         id="path11835"
         style="fill:#000000"
         inkscape:connector-curvature="0" /><path
         d="m 275,51.8 1.1,0 0,2.3 c 0,0.6 -0.1,1.1 -0.1,1.1 l 0.1,0 c 0.7,-2 3,-3.7 5.1,-3.7 2.6,0 3.9,1.2 4.2,3.6 l 0.1,0 c 0.7,-1.8 2.7,-3.6 5,-3.6 3.4,0 4.4,2 4.4,5.1 l 0,8.4 -1.1,0 0,-8 c 0,-2.5 -0.5,-4.5 -3.3,-4.5 -2.2,0 -4.1,1.9 -4.6,4 -0.2,0.6 -0.3,1.3 -0.3,2 l 0,6.5 -1.1,0 0,-8 c 0,-2.3 -0.3,-4.5 -3.2,-4.5 -2.3,0 -4.2,2.1 -4.8,4.2 -0.2,0.6 -0.2,1.2 -0.2,1.8 l 0,6.5 -1.3,0 0,-13.2 z"
         id="path11837"
         style="fill:#000000"
         inkscape:connector-curvature="0" /><path
         d="m 298.6,46.5 1.3,0 0,1.9 -1.3,0 0,-1.9 z m 0.1,5.3 1.1,0 0,13.2 -1.1,0 0,-13.2 z"
         id="path11839"
         style="fill:#000000"
         inkscape:connector-curvature="0" /><path
         d="m 311,56.9 0.9,0 0,-0.4 c 0,-2.9 -1.5,-3.9 -3.6,-3.9 -2.3,0 -3.8,1.3 -3.8,1.3 L 303.9,53 c 0,0 1.6,-1.4 4.5,-1.4 3,0 4.7,1.7 4.7,5 l 0,8.4 -1.1,0 0,-1.7 c 0,-0.7 0.1,-1.2 0.1,-1.2 l -0.1,0 c 0,0 -1.2,3.2 -4.6,3.2 -2.1,0 -4.5,-1.2 -4.5,-3.8 -0.1,-4.5 5.7,-4.6 8.1,-4.6 z m -3.7,7.3 c 2.9,0 4.5,-3 4.5,-5.6 l 0,-0.6 -0.8,0 c -2.2,0 -7,0 -7,3.4 0,1.4 1.1,2.8 3.3,2.8 z"
         id="path11841"
         style="fill:#000000"
         inkscape:connector-curvature="0" /></g><g
       id="g11843"
       style="fill:#000000"><g
         id="g11845"
         style="fill:#000000"><path
           d="m 58.9,32.3 c -13,0 -23.5,10.5 -23.5,23.5 0,13 10.5,23.5 23.5,23.5 13,0 23.5,-10.5 23.5,-23.5 0,-13 -10.5,-23.5 -23.5,-23.5 z m 0,45.8 c -12.3,0 -22.3,-10 -22.3,-22.3 0,-12.3 10,-22.3 22.3,-22.3 12.3,0 22.3,10 22.3,22.3 0,12.3 -10,22.3 -22.3,22.3 z"
           id="path11847"
           style="fill:#000000"
           inkscape:connector-curvature="0" /></g><g
         id="g11849"
         style="fill:#000000"><g
           id="g11851"
           style="fill:#000000"><path
             d="m 52.3,66 -1.2,0 0,-9.1 8.6,0 0,1.1 -7.3,0"
             id="path11853"
             style="fill:#000000"
             inkscape:connector-curvature="0" /></g><g
           id="g11855"
           style="fill:#000000"><path
             d="m 57.4,54.8 -1.2,0 0,-9.1 8.6,0 0,1.1 -7.3,0"
             id="path11857"
             style="fill:#000000"
             inkscape:connector-curvature="0" /></g></g></g></g></svg>