<?xml version="1.0" encoding="UTF-8" standalone="no"?>
<!-- Generator: Adobe Illustrator 18.1.1, SVG Export Plug-In . SVG Version: 6.00 Build 0)  -->

<svg
   xmlns:dc="http://purl.org/dc/elements/1.1/"
   xmlns:cc="http://creativecommons.org/ns#"
   xmlns:rdf="http://www.w3.org/1999/02/22-rdf-syntax-ns#"
   xmlns:svg="http://www.w3.org/2000/svg"
   xmlns="http://www.w3.org/2000/svg"
   xmlns:sodipodi="http://sodipodi.sourceforge.net/DTD/sodipodi-0.dtd"
   xmlns:inkscape="http://www.inkscape.org/namespaces/inkscape"
   version="1.1"
   id="Layer_2"
   x="0px"
   y="0px"
   viewBox="0 0 88.182644 67.973282"
   enable-background="new 0 0 1214.8 735"
   xml:space="preserve"
   inkscape:version="0.91 r13725"
   sodipodi:docname="quote.svg"
   width="88.182648"
   height="67.973282"><metadata
     id="metadata6749"><rdf:RDF><cc:Work
         rdf:about=""><dc:format>image/svg+xml</dc:format><dc:type
           rdf:resource="http://purl.org/dc/dcmitype/StillImage" /><dc:title></dc:title></cc:Work></rdf:RDF></metadata><defs
     id="defs6747" /><sodipodi:namedview
     pagecolor="#ffffff"
     bordercolor="#666666"
     borderopacity="1"
     objecttolerance="10"
     gridtolerance="10"
     guidetolerance="10"
     inkscape:pageopacity="0"
     inkscape:pageshadow="2"
     inkscape:window-width="1916"
     inkscape:window-height="1037"
     id="namedview6745"
     showgrid="false"
     fit-margin-top="0"
     fit-margin-left="0"
     fit-margin-right="0"
     fit-margin-bottom="0"
     inkscape:zoom="0.31939413"
     inkscape:cx="-66.216714"
     inkscape:cy="-268.55828"
     inkscape:window-x="0"
     inkscape:window-y="20"
     inkscape:window-maximized="0"
     inkscape:current-layer="Layer_2" /><g
     style="fill:#000000"
     id="g6723"
     transform="translate(-169.53734,-30.968423)"><path
       inkscape:connector-curvature="0"
       style="fill:#000000"
       id="path6725"
       d="m 241.6,44.9 c -7.6,-1.9 -13.5,-1.4 -19.3,3.4 -8.7,7.3 -7.4,22.2 1.8,26.5 7.1,3.3 11.9,-0.3 13.6,2.6 1.4,2.3 0.7,6 -7,13.2 -3.1,2.9 -8.8,4.2 -9.5,6.3 -0.9,2.6 10.7,3.5 21.1,-2.1 15.8,-8.5 15.5,-22.7 15.4,-23.8 -1.2,-10.1 -1.2,-10.1 -6.7,-18.9 -0.9,-1.2 -6.6,-6.5 -9.4,-7.2 z" /><path
       inkscape:connector-curvature="0"
       style="fill:#000000"
       id="path6727"
       d="m 194.7,32 c -7.6,-1.9 -13.5,-1.4 -19.3,3.4 -8.7,7.3 -7.4,22.2 1.8,26.5 7.1,3.3 11.9,-0.3 13.6,2.6 1.4,2.3 0.7,6 -7,13.2 -3.1,2.9 -8.8,4.2 -9.5,6.3 -0.9,2.6 10.7,3.5 21.1,-2.1 15.8,-8.5 15.5,-22.7 15.4,-23.8 C 209.5,48 209.5,48 204,39.2 203.2,38 197.4,32.7 194.7,32 Z" /></g></svg>