<?xml version="1.0" encoding="UTF-8" standalone="no"?>
<!-- Generator: Adobe Illustrator 18.1.1, SVG Export Plug-In . SVG Version: 6.00 Build 0)  -->

<svg
   xmlns:dc="http://purl.org/dc/elements/1.1/"
   xmlns:cc="http://creativecommons.org/ns#"
   xmlns:rdf="http://www.w3.org/1999/02/22-rdf-syntax-ns#"
   xmlns:svg="http://www.w3.org/2000/svg"
   xmlns="http://www.w3.org/2000/svg"
   xmlns:sodipodi="http://sodipodi.sourceforge.net/DTD/sodipodi-0.dtd"
   xmlns:inkscape="http://www.inkscape.org/namespaces/inkscape"
   version="1.1"
   id="Layer_1"
   x="0px"
   y="0px"
   viewBox="0 0 170.83282 762.6078"
   enable-background="new 0 0 841.9 1190.6"
   xml:space="preserve"
   inkscape:version="0.91 r13725"
   sodipodi:docname="smk-vertical.svg"
   width="170.83282"
   height="762.60779"><metadata
     id="metadata4383"><rdf:RDF><cc:Work
         rdf:about=""><dc:format>image/svg+xml</dc:format><dc:type
           rdf:resource="http://purl.org/dc/dcmitype/StillImage" /><dc:title></dc:title></cc:Work></rdf:RDF></metadata><defs
     id="defs4381" /><sodipodi:namedview
     pagecolor="#ffffff"
     bordercolor="#666666"
     borderopacity="1"
     objecttolerance="10"
     gridtolerance="10"
     guidetolerance="10"
     inkscape:pageopacity="0"
     inkscape:pageshadow="2"
     inkscape:window-width="1916"
     inkscape:window-height="1037"
     id="namedview4379"
     showgrid="false"
     fit-margin-top="0"
     fit-margin-left="0"
     fit-margin-right="0"
     fit-margin-bottom="0"
     inkscape:zoom="0.19821939"
     inkscape:cx="-826.78283"
     inkscape:cy="340.05625"
     inkscape:window-x="0"
     inkscape:window-y="20"
     inkscape:window-maximized="0"
     inkscape:current-layer="Layer_1" /><path
     d="m 154.93366,197.25153 c 0.1,0 7.8,-4 12.5,-5.8 1.1,-0.4 1.8,-0.7 2.2,-0.8 0.6,-0.2 1.5,-0.6 1.1,-1.5 -0.4,-0.9 -1.1,-0.7 -2.2,-0.3 l 0,0 c -0.4,0.2 -1,0.4 -1.8,0.7 -2.6,1 -5.9,2.6 -8.6,3.8 4.6,-6.5 5.3,-12.8 5,-17.2 -1,-10.5 -4.9,-19.1 -6.7,-20.5 -0.4,-0.3 -1.1,-0.3 -1.4,0.1 -0.3,0.4 -0.3,1.1 0.1,1.4 0.9,0.8 5,8.5 5.9,19.1 0.3,4.5 -0.5,11.2 -6.2,17.9 -0.3,-1.2 -0.7,-3.3 -1.4,-6.9 -1.2,-6.9 -1.2,-8.2 -1.2,-8.4 0,-0.5 -0.3,-0.9 -0.8,-1 -0.5,-0.1 -1.1,0.2 -1.2,0.8 0,0 0,0.1 0,0.4 0,0.7 0.3,2.7 1.3,8.6 0.7,3.8 1.6,8.4 2.1,9.1 0.3,0.6 0.8,0.8 1.3,0.5 z"
     id="path4333"
     inkscape:connector-curvature="0" /><g
     id="g4335"
     transform="translate(-296.76634,-172.74847)"><polygon
       points="414.2,257.2 414.2,257.2 414.2,257.2 "
       id="polygon4337" /><path
       d="m 326.9,255 c 1.6,0 3.1,0 4.7,0 l 2,0 0.6,-11.6 c -2,2.6 -3.9,5.4 -5.5,8.2 -0.7,1.1 -1.3,2.3 -1.8,3.4 z"
       id="path4339"
       inkscape:connector-curvature="0" /><path
       d="m 386.2,260 c -0.1,-0.1 -0.2,-0.2 -0.3,-0.2 -0.4,0 -0.8,1.2 -0.9,1.9 -0.1,0.7 -0.1,1.7 0,2.8 0.6,-0.7 1,-1.4 1.2,-2.3 0.4,-1 0.4,-1.8 0,-2.2 z"
       id="path4341"
       inkscape:connector-curvature="0" /><path
       d="m 355,263.6 c 0.2,-0.4 0.2,-0.8 0,-1 -0.2,-0.4 -0.8,-0.6 -1.4,-0.5 -0.9,0.1 -1.5,0.7 -1.8,1.7 l 0,1.1 c 0.2,0 0.3,0 0.5,0 1.4,0 2.3,-0.4 2.7,-1.3 z"
       id="path4343"
       inkscape:connector-curvature="0" /><path
       d="m 460.9,226.2 c -3.4,-7.4 -8,-16.3 -12.4,-21.5 -4.4,-5.2 -7.2,-9.2 -14.1,-14 -6.9,-4.8 -14.2,-7.5 -19.8,-11.5 -5.5,-4 -18.4,-5.5 -22.5,-5.9 -4.1,-0.4 -16.2,-1.3 -24.9,0.7 -8.6,2 -17.5,5.1 -17.5,5.1 0,0 -15.4,7.5 -21,12.5 -5.6,4.9 -5.8,3.8 -11.4,11.2 -5.6,7.4 -9.1,8.7 -13.4,21.9 -4.3,13.2 -5.8,14.5 -6.2,24.3 -0.4,9.8 -1.8,11 0.6,21.7 2.4,10.7 1.3,14.2 8.3,25.6 7,11.4 9.8,15.6 13.7,19.4 3.9,3.9 11.2,9.7 14.7,12.4 3.5,2.7 21.3,10.3 23.7,11 2.5,0.7 13.7,2.8 16.2,3 2.5,0.2 7.1,1.2 15.6,-0.1 8.5,-1.3 10.9,-0.9 19,-4.2 8.1,-3.3 17.1,-7.9 20.4,-10.2 3.3,-2.4 5.8,-3 12,-10 6.3,-7 5.3,-4.5 9.7,-11.7 4.4,-7.2 10.4,-20.5 10.7,-21.5 0.3,-0.9 3.6,-15.4 3.7,-16.4 0.1,-1 1.8,-8.7 0.3,-18.4 -1.3,-9.9 -2,-16 -5.4,-23.4 z m -47.5,30.1 c 0,-0.5 0.4,-0.8 0.8,-0.8 0,0 0,0 0,0 0.2,0 0.4,0.1 0.6,0.3 0.2,0.2 0.2,0.4 0.2,0.6 l 0,0.3 c 0,0.5 -0.4,0.8 -0.8,0.8 l 0,0 c -0.2,0 -0.4,-0.1 -0.6,-0.3 -0.2,-0.2 -0.2,-0.4 -0.2,-0.6 l 0,-0.3 z m -24.2,-36.8 c 1.3,0 1.3,2 0,2 -1.3,0 -1.3,-2 0,-2 z m -11.7,-13.8 c 1.3,-2.3 2.6,-4.5 4,-6.8 0.5,-0.9 1.8,-0.4 1.9,0.5 0.6,7.5 1.3,15.1 1.9,22.6 0.1,1.3 -1.9,1.3 -2,0 -0.5,-6.5 -1.1,-12.9 -1.6,-19.4 -0.8,1.3 -1.6,2.7 -2.4,4 -0.7,1.3 -2.4,0.2 -1.8,-0.9 z m -38.1,64.2 c -0.3,0.1 -0.7,0.1 -1,0.1 l 0,0 c -1.7,0 -3.4,-1.1 -4.3,-2.7 -1.1,-2.1 -1,-4.6 -0.8,-6.8 0,-0.3 0,-0.7 0.1,-1 l 0.2,-2.9 -6.2,0 c -0.2,0 -0.4,0 -0.7,0 -0.2,0 -0.4,0 -0.6,0 -0.7,1.6 -1.4,3.2 -2,4.8 -0.1,0.3 -0.2,0.5 -0.3,0.8 -1,2.7 -2,5.4 -4.5,7 -0.9,0.6 -1.9,0.9 -3,0.9 -1.7,0 -3.3,-0.8 -4.4,-2.2 -2.1,-2.6 -1.9,-5.9 -1.6,-9.3 0.1,-0.8 1.1,-0.9 1.5,-0.5 0.1,0.1 0.2,0.3 0.2,0.6 -0.4,3.9 -0.4,9.1 3.7,9.8 0.2,0 0.5,0.1 0.7,0.1 3.3,0 4.9,-4.1 6,-7.1 0.1,-0.4 0.3,-0.7 0.4,-1 0.5,-1.2 1,-2.4 1.5,-3.6 -0.9,0.2 -1.6,0.5 -2.1,1 -0.4,0.4 -1.1,0.3 -1.3,-0.3 -0.1,-0.3 -0.1,-0.6 0.2,-0.9 1.1,-1.2 2.8,-1.5 4.1,-1.6 2.6,-5.2 5.8,-10.2 9.5,-14.7 0.3,-0.3 0.9,-0.3 1.2,0 0.1,0.2 0.2,0.4 0.2,0.6 l -0.8,15.5 c 0,0.7 -0.1,1.4 -0.1,2.1 -0.1,1.8 -0.3,3.6 -0.1,5.4 0.1,1.7 1.2,4.5 3.4,4.5 0.2,0 0.5,0 0.7,-0.1 0.6,-0.1 1,0.3 1,0.7 -0.2,0.3 -0.4,0.7 -0.8,0.8 z m 106.4,-3.2 c -0.3,1.2 -1.4,1.8 -2.3,1.8 l 0,0 c -1,0 -1.8,-0.7 -1.9,-1.8 0,-0.3 0.1,-0.5 0.2,-0.6 0.4,-0.4 1.4,-0.3 1.5,0.5 0,0.3 0.1,0.3 0.2,0.3 0.2,0 0.6,-0.2 0.7,-0.4 0.2,-0.4 0.1,-0.9 0,-1.2 -0.2,-0.5 -0.5,-1 -0.9,-1.5 l -0.2,-0.2 c -0.7,-0.9 -1.3,-1.8 -2,-2.7 l -0.2,-0.2 c -2.3,5.8 -5.7,11 -10,15.6 -1.1,1.4 -2.4,2.6 -3.9,3.7 -0.1,0.1 -0.3,0.1 -0.4,0.1 -0.3,0 -0.7,-0.2 -0.8,-0.6 -0.1,-0.3 0,-0.6 0.2,-0.8 1.3,-1.1 2.5,-2.3 3.8,-3.6 2.3,-3.1 3.4,-7.1 2.9,-11 -0.7,1.5 -1.8,2.3 -3.3,2.3 -1.1,0 -2,-0.6 -2.6,-1.5 0,0 0,0.1 0,0.1 -0.2,0.7 -0.5,1.5 -1,2.1 -0.4,0.4 -0.9,0.6 -1.3,0.6 -1.1,0 -2,-1 -2.3,-2 -0.3,-0.9 -0.5,-1.8 -0.6,-2.7 -0.1,-0.4 -0.1,-0.8 -0.2,-1.2 l -0.8,-3.9 c 0,0.3 0,0.5 -0.1,0.8 l 0,0.2 c -0.2,2.5 -0.5,5.3 -1.5,7.6 -0.5,1.1 -1.6,2 -2.6,2 -0.5,0 -1.2,-0.2 -1.7,-1.1 -0.5,-0.9 -0.5,-1.9 -0.5,-2.8 l 0,-0.4 0,-3.6 -2.1,0.3 -2,7.1 c -0.1,0.4 -0.4,0.6 -0.8,0.6 -0.4,0 -0.7,-0.2 -0.8,-0.6 -0.3,-1.4 -1,-2.7 -1.6,-3.9 -0.5,-1 -1,-2 -1.4,-3.1 -0.3,0.1 -0.5,0.3 -0.8,0.4 -0.3,0.2 -0.6,0.4 -1,0.5 0.7,1.2 0.9,2.4 0.7,3.6 -0.2,1.5 -1.1,2.1 -2.1,2.7 -0.5,0.3 -1,0.4 -1.6,0.4 -1.7,0 -3.4,-1.2 -4.2,-2.3 -0.7,-0.9 -1.1,-2 -1.2,-3.3 -0.4,0.7 -0.8,1.4 -1.3,2.1 -1,1.6 -2.3,3.4 -4.3,4.1 -0.5,0.2 -1.1,0.3 -1.6,0.3 -1.3,0 -2.5,-0.6 -3.3,-1.6 -0.1,-0.2 -0.3,-0.4 -0.4,-0.6 -1.3,0.8 -2.7,1.3 -4.2,1.4 -1,0.5 -2,0.3 -2.6,-0.4 -0.2,-0.3 -0.3,-0.6 -0.1,-0.9 0.2,-0.3 0.5,-0.5 0.9,-0.4 0.4,0.1 0.8,0.1 1.2,0.1 0,0 0,0 0,-0.1 0.3,-0.4 0.1,-1.1 0,-1.5 -0.2,-0.6 -0.4,-1.3 -0.8,-2.2 -0.5,-1 -1,-1.9 -1.7,-2.8 l -2.3,5.6 c 0,0 0,0.1 -0.1,0.1 -0.7,1.5 -2.4,2.5 -4.1,2.5 -0.9,0 -1.7,-0.3 -2.4,-0.7 -0.4,-0.3 -0.8,-0.7 -1.1,-1.1 -1.1,1.7 -2.7,2.4 -4.5,2.1 -1.2,-0.2 -2.1,-0.8 -2.7,-1.9 -0.5,0.6 -1.2,1.1 -1.9,1.4 -0.7,0.3 -1.4,0.4 -2.1,0.4 -1.6,0 -3.1,-0.7 -4.2,-1.8 l 0,0.5 c 0,1 -1.5,1 -1.6,0 -0.1,-1.4 -0.2,-2.8 0.1,-4.1 l 0.1,-3.5 -0.7,3.2 c -0.1,0.3 -0.1,0.7 -0.2,1.1 -0.4,2.4 -1.1,5.8 -3.9,6.1 -1,0.1 -1.7,-0.2 -2.3,-0.8 -0.9,-1 -1.3,-2.8 -1.1,-5.4 l 0.9,-11.6 c 0.1,-0.8 1.1,-1 1.5,-0.5 0.1,0.1 0.2,0.3 0.2,0.6 L 344,262 c 0,0.4 -0.1,0.8 -0.1,1.2 -0.1,1 -0.2,1.9 -0.2,2.9 0,1.1 0.6,2.7 1.6,2.7 0.3,0 0.7,-0.2 1,-0.5 0.8,-0.7 1,-1.9 1.2,-3 0,-0.2 0.1,-0.4 0.1,-0.6 l 2.9,-13.4 c 0.1,-0.4 0.4,-0.6 0.8,-0.6 0.2,0 0.5,0.1 0.6,0.3 0.1,0.2 0.2,0.3 0.2,0.6 l -0.3,9.7 c 0.9,-0.6 2.2,-0.8 3.2,-0.4 0.7,0.2 1.3,0.7 1.5,1.4 0.3,0.7 0.3,1.6 -0.1,2.3 -0.5,1.1 -1.6,1.9 -3.1,2.1 1.1,0.8 2.7,1.1 3.9,0.5 0.9,-0.4 1.6,-1.1 2,-2.1 -0.1,-0.9 0,-2 0.2,-3.1 0.1,-0.4 0.4,-0.6 0.8,-0.6 0.4,0 0.7,0.2 0.8,0.6 0.3,1.1 0.3,2.3 -0.1,3.4 0.2,1.6 0.9,2.3 2.1,2.3 1.4,0 2.5,-0.9 3.2,-2.5 -0.1,-1.3 0.3,-2.6 1.1,-3.5 0.3,-0.4 0.9,-0.3 1.2,0.1 0.2,0.2 0.2,0.5 0.2,0.7 -0.2,1.1 -0.5,2 -0.8,2.9 0.1,0.8 0.6,1.4 1.2,1.7 0.4,0.2 0.8,0.4 1.3,0.4 1.1,0 2.2,-0.7 2.7,-1.6 l 2.8,-6.8 c 0.2,-0.6 1,-0.8 1.4,-0.3 1.3,1.5 3.6,4.4 3.9,7.6 0,0.3 0,0.7 0,1 0.9,-0.2 1.7,-0.6 2.4,-1.1 -0.2,-0.7 -0.3,-1.6 -0.3,-2.6 0,-1.8 0.1,-3.5 1.3,-4.5 0.4,-0.3 0.8,-0.4 1.2,-0.4 0.9,0 1.7,0.7 2.1,1.6 0.7,1.9 -0.5,4 -1,4.8 -0.4,0.6 -0.8,1.1 -1.4,1.6 0,0 0,0 0,0 0.6,1.2 1.6,1.4 2.2,1.4 0.9,0 1.9,-0.4 2.7,-1.1 1.5,-1.4 2.6,-3.4 3.5,-5.1 0.5,-0.9 0.9,-1.8 1.3,-2.7 l 0,-0.3 c 0.1,-0.5 0.1,-0.9 0.2,-1.4 0.4,-2.7 0.7,-5.4 2.4,-7.7 0.3,-0.4 1,-0.5 1.3,-0.1 0.2,0.2 0.2,0.4 0.2,0.7 -0.4,3.2 -1.3,6.3 -2.5,9.2 -0.2,1.3 -0.3,2.7 0,4.1 0.2,1.2 0.7,2 1.5,2.5 0.4,0.3 1.6,1.1 2.4,1 0.6,-0.1 1.5,-0.8 1.7,-1.3 0.7,-1.5 -0.5,-3.2 -0.8,-3.7 -0.1,-0.2 -0.2,-0.4 -0.1,-0.6 0.1,-0.2 0.2,-0.4 0.4,-0.5 0.6,-0.3 1.2,-0.6 1.7,-0.9 0.6,-0.3 1.1,-0.6 1.7,-0.9 0.1,-0.1 0.3,-0.1 0.4,-0.1 0.4,0 0.7,0.2 0.8,0.6 0.3,1.4 1,2.7 1.6,3.9 0.3,0.5 0.5,1 0.7,1.5 l 1.4,-5.1 c 0.1,-0.3 0.3,-0.5 0.6,-0.6 l 3.6,-0.5 c 0.5,-0.1 1,0.3 1,0.8 l 0,3.6 c 0,0.3 0,0.5 0,0.8 0,0.7 -0.1,1.4 0.1,2 0.2,0.7 0.6,0.7 0.7,0.7 0.1,0 0.2,0 0.3,-0.1 0.4,-0.1 0.6,-0.9 0.7,-1.3 l 0,-0.1 c 0.3,-0.9 0.5,-1.9 0.6,-2.9 0.4,-2.1 0.6,-4.3 0.7,-6.6 -0.7,0.1 -1.6,0.3 -2.1,0.8 -0.4,0.4 -1.1,0.2 -1.3,-0.3 -0.1,-0.3 -0.1,-0.6 0.2,-0.9 1,-0.9 2.2,-1.1 3.3,-1.3 0,-1.6 -0.1,-3.1 -0.2,-4.7 0,-0.2 0,-0.4 0.2,-0.6 0.2,-0.2 0.4,-0.3 0.6,-0.3 0.4,0 0.7,0.2 0.8,0.6 l 1,4.6 4.4,-0.5 c 0.5,-0.1 0.8,0.2 0.8,0.7 0,0.4 -0.2,0.9 -0.8,0.9 l -4.1,0.5 1.8,8.5 c 0.1,0.5 0.4,1.9 0.8,1.9 0.1,0 0.3,-0.1 0.6,-0.5 0.3,-0.4 0.5,-1.1 0.6,-1.7 0.1,-0.3 0.2,-0.6 0.2,-0.8 l 1,-3 c 0.1,-0.3 0.4,-0.6 0.8,-0.6 0.3,0 0.5,0.1 0.7,0.3 0.1,0.2 0.2,0.4 0.1,0.7 -0.3,1.1 -0.6,3.1 0,3.9 0.3,0.4 0.7,0.5 1.3,0.4 1.7,-0.3 2,-2.4 2.2,-4.3 0,-0.5 0.5,-0.8 0.8,-0.8 0.4,0 0.7,0.2 0.8,0.6 1.1,3.2 1.3,6.5 0.4,9.8 2.5,-3.5 4.4,-7.2 5.9,-11.2 0.1,-0.4 0.4,-0.6 0.8,-0.6 0.3,0 0.5,0.1 0.7,0.4 0.4,0.5 0.7,1 1.1,1.5 0.8,1 1.5,2.1 2.3,3.1 1.2,1 1.9,2.2 1.6,3.6 z"
       id="path4345"
       inkscape:connector-curvature="0" /></g><g
     id="g4347"
     transform="translate(-296.76634,-172.74847)"><path
       d="m 377.5,421.2 c 0.8,-0.4 1.4,-1.3 1.8,-2.2 -1.2,-0.6 -2.4,-0.8 -3.4,0 -0.4,0.3 -1.1,1.3 -0.8,1.8 0.5,0.7 1.7,0.7 2.4,0.4 z"
       id="path4349"
       inkscape:connector-curvature="0" /><path
       d="m 454.5,411.7 c -1.3,-2.1 -3.2,-6.5 -9.2,-12.6 -6,-6.1 -7.1,-8.3 -14.5,-13 -7.4,-4.7 -16.3,-9.3 -20.2,-10.6 -3.9,-1.3 -5.8,-3 -15.2,-4 -9.4,-1 -6.7,-1.7 -15.2,-1.1 -8.5,0.6 -22.8,3.5 -23.7,3.8 -0.9,0.3 -14.7,6.1 -15.5,6.5 -0.9,0.5 -8.1,3.6 -15.1,10.5 -7,6.9 -11.5,11.1 -15.6,18.1 -4.1,7 -8.6,16 -10.2,22.6 -1.6,6.6 -3.2,11.2 -3.2,19.7 0,8.5 2.2,16 2.1,22.8 0,6.8 6.2,18.2 8.3,21.7 2.1,3.6 8.4,14 15.1,19.8 6.7,5.8 14.3,11.3 14.3,11.3 0,0 15.1,8.1 22.4,9.8 7.3,1.7 6.5,2.5 15.8,2.8 9.3,0.2 12.4,2.3 25.6,-1.9 13.2,-4.2 15.2,-3.8 23.4,-9.1 8.2,-5.3 10,-5 17.3,-13.1 7.3,-8.2 10.7,-9.3 15.9,-21.7 5.2,-12.4 6.9,-17.1 7.8,-22.5 0.9,-5.4 1.4,-14.7 1.5,-19.2 0.1,-4.5 -4,-23.3 -4.9,-25.7 -0.9,-2.4 -5.7,-12.8 -7,-14.9 z m -59.3,9.7 c 1.3,0 1.3,2 0,2 -1.3,0 -1.3,-2 0,-2 z m -21.7,-2.6 c 1.2,-2.4 4,-2.6 6.3,-1.7 0.1,0.1 0.3,0.1 0.5,0.2 1.9,-3.7 3.8,-8 4,-12.1 0.1,-2.7 -2,-4.5 -4.4,-2.7 -1.8,1.3 -2.3,3.8 -2.7,5.9 -0.3,1.3 -2.2,0.7 -1.9,-0.5 0.6,-2.7 1.4,-5.8 4,-7.3 2,-1.1 4.6,-1.1 6.1,0.8 1.8,2.3 0.9,5.7 0.2,8.3 -0.8,3 -2,6 -3.5,8.8 2.4,1.8 5.4,4.1 7.5,1.8 0.9,-0.9 2.3,0.5 1.4,1.4 -2.4,2.5 -5.8,1.4 -8.2,-0.4 -0.5,-0.3 -1,-0.8 -1.6,-1.2 -1.2,1.9 -2.8,3.8 -5.3,3.4 -2.5,-0.4 -3.3,-2.7 -2.4,-4.7 z m -56.1,50.5 c -0.1,0.3 -0.4,0.5 -0.8,0.5 -0.4,0 -0.7,-0.3 -0.8,-0.8 -0.6,-8.9 -0.2,-18 1.2,-26.9 -3.5,0.1 -5.9,0.8 -7.1,2.1 -0.7,0.8 -1.1,1.7 -1,2.9 0,0.2 -0.1,0.4 -0.2,0.6 -0.4,0.4 -1.4,0.3 -1.4,-0.5 -0.1,-2 1.1,-4 3,-5.2 2.1,-1.3 4.6,-1.4 7.1,-1.4 l 0.4,0 c 0.2,0 0.4,0.1 0.6,0.3 0.2,0.2 0.2,0.4 0.2,0.7 -1.3,7.8 -1.8,15.8 -1.5,23.7 l 5.2,-13.5 c 0.4,-0.9 0.7,-1.8 1,-2.7 0.7,-1.9 1.4,-3.8 2.2,-5.6 0.9,-2 2,-3.1 3.5,-3.1 0.1,0 0.3,0 0.4,0 0.4,0.1 0.6,0.4 0.6,0.7 0,0.4 -0.4,0.9 -1,0.8 -1.1,-0.2 -1.8,1.5 -2.1,2.1 -0.4,0.8 -0.7,1.7 -1,2.5 -0.1,0.4 -0.3,0.8 -0.4,1.1 l -8.1,21.7 z m 132.8,-5 c -0.6,2 -2.4,3.3 -4.5,3.3 -2.1,0 -3.8,-1.3 -4.4,-3.3 -0.5,-1.4 -0.4,-3.1 -0.2,-4.6 -0.5,0.7 -0.9,1.3 -1.4,2 -1.8,2.3 -4.2,4.9 -7.2,4.9 -0.4,0 -0.8,0 -1.1,-0.1 -0.3,-0.1 -0.5,-0.1 -0.8,-0.3 -1.6,1 -3.6,1.5 -5.9,1.5 -0.4,0 -0.8,0 -1.2,-0.1 -0.8,0.2 -1.6,0.1 -2.2,-0.5 -0.2,-0.2 -0.3,-0.5 -0.2,-0.8 0.1,-0.4 0.6,-0.6 0.9,-0.5 0.4,0.1 0.8,0.2 1.2,0.2 0.3,-0.2 0.6,-0.6 0.6,-0.9 0.2,-1 -0.6,-1.9 -1.2,-2.6 -0.2,-0.2 -0.4,-0.4 -0.6,-0.6 -0.3,-0.4 -0.7,-0.7 -1,-1.1 -0.6,1.8 -1.9,3.2 -3.6,4 -2.3,1 -5.3,0.6 -7.3,-1.1 -0.2,-0.2 -0.3,-0.5 -0.2,-0.8 0.1,-0.4 0.6,-0.6 1,-0.5 0.6,0.2 1.1,0.1 1.5,-0.2 0.2,-0.2 0.3,-0.5 0.3,-0.8 0,-0.3 -0.1,-0.5 -0.3,-0.7 -0.4,-0.3 -1.2,-0.3 -1.8,0 -0.5,0.3 -0.9,0.7 -1.1,1.4 0,1.1 -0.1,2.2 -0.1,3.3 -0.1,1 -1.5,1 -1.6,0 -0.1,-1.2 -0.1,-2.4 0.2,-3.5 0,-2.1 -0.2,-4.2 -0.5,-6.3 l -0.1,2.9 c 0,0.4 0,0.9 0,1.3 0,1.7 0,3.5 -0.7,5 -0.5,1.1 -1.6,1.8 -2.7,1.8 -0.5,0 -1,-0.1 -1.5,-0.4 -0.2,-0.1 -0.4,-0.3 -0.6,-0.5 -0.4,1 -1.5,1.7 -2.7,1.7 -0.5,0 -0.9,-0.1 -1.3,-0.3 -0.8,-0.4 -1.4,-1 -1.8,-1.9 -0.2,0.2 -0.3,0.4 -0.5,0.6 -1,1 -2.8,1.3 -4,0.6 -0.7,-0.3 -1.2,-0.9 -1.3,-1.7 -0.1,-0.4 -0.1,-0.8 -0.1,-1.2 0,-1 0,-1.6 -0.6,-1.9 -0.3,-0.1 -0.5,-0.2 -0.8,-0.2 -1.7,0 -2.3,3 -2.5,4.2 -0.1,0.4 -0.3,0.6 -0.7,0.6 -0.2,0 -0.5,-0.1 -0.6,-0.3 0,0 -0.1,-0.1 -0.1,-0.2 -0.1,0 -0.1,0.1 -0.2,0.1 -0.7,0.4 -1.5,0.7 -2.4,0.7 -1.1,0 -2,-0.4 -2.5,-1.2 -0.6,-0.9 -0.6,-2.1 -0.5,-3.1 l 0,-0.4 c 0,-0.5 0.1,-1 -0.1,-1.4 -0.2,-0.5 -0.6,-0.6 -0.9,-0.6 -0.3,0 -0.6,0.1 -0.9,0.3 -0.9,0.5 -1.2,1.6 -1.6,2.7 -0.1,0.3 -0.2,0.7 -0.3,1 -0.5,1.2 -1.1,2.1 -1.9,2.7 -0.3,0.2 -0.8,0.1 -1,-0.2 -0.1,-0.2 -0.2,-0.3 -0.2,-0.5 l 0.2,-1.4 c -1.6,2.3 -3.7,3.3 -6.2,2.9 -0.7,-0.1 -1.4,-0.4 -2,-0.9 -1.7,1.2 -3.3,1.8 -4.7,1.8 -1.3,0 -2.4,-0.6 -3.2,-1.7 -0.5,-0.6 -0.7,-1.4 -0.7,-2.4 0,-0.3 0,-0.6 0.1,-0.9 0.1,-0.7 0.2,-1.5 -0.1,-2 -0.2,-0.4 -0.5,-0.6 -1,-0.6 -0.7,0 -1.6,0.6 -1.9,1.1 -0.2,0.2 -0.3,0.5 -0.4,0.8 -0.1,0.8 -0.3,1.6 -0.6,2.3 -0.1,0.3 -0.4,0.5 -0.7,0.5 -0.2,0 -0.5,-0.1 -0.6,-0.3 -0.2,-0.2 -0.2,-0.4 -0.2,-0.7 0.1,-0.7 0.3,-1.5 0.6,-2.2 0,-0.4 -0.1,-0.7 -0.2,-1 -0.2,-0.4 -0.5,-0.6 -0.9,-0.6 -0.4,0 -0.9,0.3 -1.3,0.7 -0.6,0.6 -0.8,1.5 -1.1,2.3 -0.3,0.8 -0.5,1.6 -1,2.3 -0.3,0.4 -1,0.4 -1.3,0.1 -0.1,-0.1 -0.2,-0.3 -0.2,-0.6 l 0.1,-0.5 c -0.3,0.3 -0.7,0.5 -1.1,0.7 -0.5,0.3 -1.1,0.4 -1.7,0.4 -1.4,0 -2.5,-0.7 -3,-2 -0.4,-1 -0.4,-2.1 -0.3,-3.2 -0.5,1.1 -1.1,2.3 -1.6,3.3 -0.8,1.6 -2.3,4.2 -4.7,3.9 -1.1,-0.1 -1.9,-0.7 -2.3,-1.8 -0.8,0.7 -1.8,1.1 -2.8,1.1 -1.3,0 -2.4,-0.6 -3.1,-1.8 -1,-1.6 -0.8,-3.7 0.3,-4.9 0.8,-0.8 1.9,-1.3 3.1,-1.3 0.8,0 1.5,0.2 2.2,0.6 0.3,0.2 0.5,0.5 0.4,0.9 -0.1,0.5 -0.7,0.8 -1.2,0.5 -0.4,-0.3 -0.9,-0.4 -1.4,-0.4 -0.9,0 -1.7,0.5 -2.2,1.2 -0.5,0.7 -0.5,1.6 0,2.5 0.4,0.8 1.1,1.2 1.9,1.2 1,0 1.9,-0.6 2.3,-1.5 0,-0.5 0,-1.1 0,-1.7 0,-0.4 0.4,-0.8 0.8,-0.8 0.3,0 0.6,0.2 0.7,0.6 0.2,0.8 0.2,1.6 0,2.3 0.1,0.6 0.3,1.1 0.6,1.5 0.7,0.7 1.6,0.5 2.5,-0.5 1.1,-1.2 1.9,-2.9 2.6,-4.6 0.1,-0.3 0.3,-0.6 0.4,-0.9 1.8,-4 3.2,-8.3 4.2,-12.7 0.1,-0.4 0.4,-0.6 0.7,-0.6 0.3,0 0.5,0.1 0.7,0.3 0.2,0.2 0.2,0.4 0.2,0.7 l -1.4,7 c -0.1,0.6 -0.3,1.3 -0.4,1.9 -0.3,1.5 -0.7,3 -0.8,4.5 -0.1,0.8 -0.1,1.8 0.3,2.4 0.4,0.6 1,0.7 1.4,0.7 0.4,0 0.8,-0.1 1.1,-0.3 1.6,-0.8 2.1,-2.9 2.4,-4.6 l 0,-0.1 c 0.1,-0.4 0.4,-0.6 0.8,-0.6 0.3,0 0.5,0.1 0.6,0.3 0.1,0.1 0.2,0.3 0.2,0.5 l -0.1,0.7 c 0.5,-0.7 1.2,-1.3 2.3,-1.5 1.1,-0.1 2.1,0.4 2.6,1.3 0.1,-0.1 0.3,-0.3 0.4,-0.4 1.1,-0.9 2.7,-1.1 3.8,-0.4 1.4,0.8 1.4,2.4 1.3,3.7 -0.1,1.5 -0.1,2.8 1.6,3.3 0.3,0.1 0.6,0.1 0.9,0.1 1.2,0 2.4,-0.7 3.3,-1.3 -1.1,-1.5 -1.4,-3.7 0.4,-5.1 0.5,-0.4 1.2,-0.7 1.9,-0.7 0.8,0 1.5,0.4 1.9,1 1,1.6 0,3.4 -1.3,4.6 -0.1,0.1 -0.3,0.3 -0.5,0.4 0.6,0.3 1.3,0.5 2.1,0.4 2.8,-0.4 4.7,-2.9 5.6,-7.6 0.1,-0.3 0.4,-0.6 0.8,-0.6 0.3,0 0.5,0.1 0.6,0.3 0.1,0.1 0.2,0.3 0.2,0.5 l -0.5,4 c 0,-0.1 0,-0.1 0.1,-0.2 0.4,-1.1 0.8,-2.3 1.8,-3.1 0.6,-0.5 1.4,-0.8 2.1,-0.8 1.1,0 2,0.6 2.4,1.6 0.2,0.6 0.2,1.4 0.2,2.2 0,1 -0.1,2 0.4,2.5 0.2,0.2 0.6,0.4 1.1,0.4 l 0.1,0 c 1.3,0 2.1,-0.8 2.5,-2.4 l 0.2,-3.5 c 0.1,-1 1.5,-1 1.6,0 0,0.5 0,1 0,1.4 0.1,-0.1 0.2,-0.2 0.4,-0.2 0.5,-0.3 1.2,-0.5 1.9,-0.5 0.9,0 1.6,0.3 2.1,0.9 0.5,0.6 0.6,1.4 0.6,2.2 0.1,1.4 0.2,2.1 1.5,2 1.3,-0.1 2.1,-1.2 2.4,-3.3 0,-0.4 0.1,-0.9 0.1,-1.4 0.1,-0.8 1,-0.9 1.4,-0.5 0.1,0.1 0.2,0.3 0.2,0.6 0,0.6 -0.1,1.3 -0.2,1.9 0,1 0.1,1.8 0.5,2.4 0.4,0.7 1,1.1 1.6,1 0.4,0 0.8,-0.2 1,-0.6 l 0,-0.1 0.1,-4 c 0,-0.3 0,-0.5 0,-0.8 0,-0.8 1,-0.9 1.4,-0.5 0.1,0.1 0.2,0.3 0.2,0.5 l 0,0.7 c 0,2.6 0.7,3.8 2,3.8 1.4,0 1.7,-1.9 1.7,-3.4 0.1,-2.7 0.2,-5.4 0.3,-8 0,-1.3 0.1,-2.7 0.1,-4 0,-0.5 0.4,-0.8 0.8,-0.8 0.4,0 0.6,0.2 0.8,0.6 1,3.3 1.7,6.7 1.9,10.1 0.8,-0.6 1.9,-0.9 2.9,-0.6 0.7,0.2 1.2,0.6 1.6,1.2 0.4,0.6 0.4,1.3 0.2,2 -0.2,0.6 -0.5,1.1 -1.1,1.4 0.5,0.2 1,0.2 1.5,0.2 2.5,0 5.1,-1.9 5.3,-5 0,-0.5 0.4,-0.8 0.8,-0.8 0.3,0 0.6,0.2 0.8,0.5 0.3,0.9 1.1,1.6 1.8,2.4 1.2,1.2 2.5,2.5 2.1,4.4 0,0.2 -0.1,0.4 -0.2,0.7 0.7,0 1.5,-0.2 2.2,-0.4 0.4,-0.1 1,-0.3 1.6,-0.6 -0.8,-0.8 -1.2,-1.8 -1.2,-2.7 0,-0.9 0.5,-1.7 1.2,-2.3 0.5,-0.4 1,-0.5 1.5,-0.5 0.8,0 1.6,0.4 2,1.1 0.8,1.2 0.6,2.8 -0.5,4.1 0,0 -0.1,0.1 -0.1,0.1 0.3,0 0.5,0 0.8,0 3.2,-0.3 5.7,-4.2 7.2,-6.6 0,0 0,0 0,0 -1,0.1 -2.1,0.2 -2.8,0.9 -0.4,0.4 -1.1,0.2 -1.3,-0.3 -0.1,-0.3 0,-0.6 0.2,-0.8 1,-1 2.3,-1.1 3.5,-1.2 l 1.4,-0.2 c 0.4,-0.8 0.8,-1.6 1.2,-2.4 0.5,-1.7 1.1,-3.5 1.8,-5.2 l 0,-0.1 c 0.1,-0.3 0.4,-0.5 0.7,-0.5 0.3,0 0.5,0.1 0.7,0.3 0.2,0.2 0.2,0.4 0.1,0.7 -0.5,1.9 -1.1,3.8 -2,5.6 -0.1,0.4 -0.2,0.9 -0.3,1.3 l 2.5,-0.3 c 0.4,-0.1 0.8,0.2 0.8,0.7 0,0.4 -0.2,0.8 -0.7,0.9 l -2.9,0.3 c -0.2,1.1 -0.3,2.2 -0.4,3.3 -0.1,2.3 0.5,3.7 1.9,4.4 0.4,0.2 0.8,0.3 1.2,0.3 1.3,0 2.5,-0.9 2.9,-2.3 0.1,-0.3 0.4,-0.6 0.7,-0.6 0.3,0 0.5,0.1 0.7,0.3 -0.2,1.3 -0.1,1.5 -0.2,1.7 z"
       id="path4351"
       inkscape:connector-curvature="0" /><path
       d="m 430.7,461.4 c -0.1,0 -0.1,0 -0.2,0 -0.4,0.1 -0.6,0.4 -0.7,0.6 -0.2,0.4 -0.3,0.9 -0.2,1.4 0.1,0.5 0.4,0.8 0.9,1.2 0.6,-0.5 1,-1 1.1,-1.6 0.1,-0.4 0,-1 -0.3,-1.3 -0.2,-0.2 -0.4,-0.3 -0.6,-0.3 z"
       id="path4353"
       inkscape:connector-curvature="0" /><path
       d="m 366,461.8 c -0.1,-0.3 -0.3,-0.4 -0.6,-0.4 -0.5,0 -1.1,0.5 -1.3,0.9 -0.3,0.7 -0.1,1.5 0,1.9 0.1,0.2 0.2,0.4 0.3,0.6 1,-0.8 2.2,-1.9 1.6,-3 z"
       id="path4355"
       inkscape:connector-curvature="0" /></g><g
     id="g4357"
     transform="translate(-296.76634,-172.74847)"><path
       d="m 466.8,848.5 c -0.5,-7.4 0.6,-6.9 -1.9,-15.9 -2.5,-9 -1.4,-12.5 -9.2,-24 -7.8,-11.5 -8,-13.4 -15.5,-19.7 -7.5,-6.3 -7.6,-8.2 -17.6,-12.8 -9.9,-4.6 -12,-7.6 -25.3,-9 -13.3,-1.4 -18.3,-1.7 -23.8,-1 -5.4,0.7 -14.5,2.9 -18.8,4.1 -4.3,1.1 -21.1,10.6 -23.2,12.1 -2.1,1.5 -10.6,9.1 -12.2,11 -1.7,1.9 -5.3,4.9 -9.4,12.4 -4.1,7.5 -5.9,9.2 -8.3,17.6 -2.4,8.4 -4.2,18.3 -4.3,22.4 -0.1,4.1 -1.2,6.4 0.6,15.7 1.7,9.3 0.3,6.9 3.3,14.9 3,7.9 9.9,20.8 10.5,21.6 0.6,0.8 10,12.3 10.7,13 0.7,0.7 5.8,6.7 14.4,11.4 8.6,4.7 13.9,7.9 21.8,9.7 7.9,1.9 17.8,3.7 24.6,3.3 6.8,-0.4 11.7,-0.1 19.7,-2.6 8,-2.5 14.7,-6.7 21.2,-8.6 6.5,-1.9 15.6,-11.2 18.4,-14.2 2.8,-3 10.9,-12.1 14.6,-20.1 3.7,-8 6.7,-17 6.7,-17 0,0 3.5,-16.8 3,-24.3 z m -68,-0.1 c 0.5,0 0.8,0.4 0.8,0.8 0,0.4 -0.3,0.8 -0.8,0.8 -0.5,0 -0.8,-0.4 -0.8,-0.8 0,-0.4 0.3,-0.8 0.8,-0.8 z M 389.9,814 c 1.3,0 1.3,2 0,2 -1.3,0 -1.3,-2 0,-2 z M 373,802.3 c 1.9,-4.1 3.9,-8.2 5.8,-12.4 0.6,-1.2 2.3,-0.1 1.7,1 -1.8,3.7 -3.5,7.4 -5.3,11.2 3.2,0.8 7.6,1.3 8.5,-2.7 0.3,-1.3 2.1,-0.7 1.9,0.5 -0.8,5.5 -1.6,11 -2.4,16.4 -0.2,1.3 -2.1,0.7 -1.9,-0.5 0.6,-4.1 1.2,-8.2 1.8,-12.3 -2.7,1.6 -6.7,1 -9.6,0.2 -0.6,-0.1 -0.8,-0.8 -0.5,-1.4 z m -46.5,32 c -0.4,-0.4 -1.1,-0.3 -1.6,0.1 -0.9,0.6 -1.2,1.8 -1.4,2.9 -0.3,1.7 -0.5,3.5 -0.8,5.2 -0.1,0.8 -0.2,1.7 -0.4,2.5 -0.2,1.5 -0.4,3 -0.6,4.5 -0.4,3.1 -0.9,6.3 -1.4,9.4 -0.1,0.7 -0.3,1.3 -0.4,1.8 0.4,0.2 0.8,0.5 1.3,0.6 2,0.7 4.1,0.7 6.2,0 0.5,-0.2 0.9,0.1 1,0.6 0.1,0.3 -0.1,0.8 -0.5,0.9 -2,0.7 -4.2,0.8 -6.2,0.2 -0.8,-0.2 -1.6,-0.5 -2.3,-0.9 -0.4,0.6 -0.8,1.1 -1.3,1.5 -0.8,0.6 -1.7,0.9 -2.5,0.9 -0.7,0 -1.4,-0.2 -2,-0.7 -0.9,-0.7 -1.6,-2.1 -1,-3.5 0.6,-1.2 1.9,-1.6 3,-1.6 0.2,0 0.4,0 0.6,0 0.9,0.1 1.7,0.5 2.5,1 0.2,-0.6 0.3,-1.3 0.4,-1.9 0.5,-3 0.9,-6.1 1.4,-9 0.2,-1.5 0.4,-3 0.7,-4.5 l 0.3,-2.3 c 0.2,-1.5 0.5,-3.1 0.7,-4.6 0.2,-1.5 0.6,-3.3 2.1,-4.3 0.6,-0.4 1.3,-0.6 1.9,-0.6 0.8,0 1.5,0.3 2,0.9 0.7,0.9 0.8,2.4 -0.2,3.2 -0.2,0.1 -0.3,0.2 -0.5,0.2 -0.3,0 -0.7,-0.2 -0.8,-0.6 -0.1,-0.3 0,-0.6 0.2,-0.8 0.2,-0.1 0.2,-0.3 0.3,-0.5 -0.5,-0.2 -0.5,-0.4 -0.7,-0.6 z M 451.1,865 c -0.7,0.8 -1.8,1.3 -2.8,1.3 -1,0 -1.8,-0.5 -2.2,-1.3 -0.1,-0.3 -0.1,-0.5 0,-0.8 0.2,-0.2 0.4,-0.4 0.7,-0.4 0.3,0 0.5,0.2 0.6,0.4 0.2,0.3 0.4,0.5 0.8,0.5 0.6,0 1.4,-0.5 1.7,-1.1 0.6,-1.3 -0.3,-2.8 -1.3,-4 -1.6,2.3 -3.7,4.9 -6.7,4.6 -1.3,-0.1 -2.6,-0.8 -3.4,-1.9 -0.9,1.1 -2.2,1.6 -3.5,1.4 -1.1,-0.2 -2.1,-0.8 -2.8,-1.9 -0.7,0.7 -1.5,1.1 -2.4,1.1 -1.4,0.1 -2.6,-0.6 -3.4,-1.8 -0.8,0.8 -1.9,1.3 -3,1.3 -1,0 -1.8,-0.4 -2.4,-1.2 -0.2,-0.3 -0.4,-0.6 -0.5,-0.9 -0.2,0.2 -0.4,0.4 -0.6,0.6 -0.6,0.5 -1.3,0.7 -2.1,0.7 -1.6,0 -3.2,-1.1 -4,-2.7 -0.2,-0.4 -0.3,-0.7 -0.4,-1.1 l -0.1,0.2 c -0.1,0.2 -0.3,0.4 -0.4,0.7 -0.6,1.1 -1.2,2.3 -2.4,2.7 -0.4,0.1 -0.8,0.2 -1.2,0.2 -2,0 -2.8,-2.2 -3,-3.8 -0.7,0.8 -1.6,1.5 -2.6,2 -0.7,0.3 -1.5,0.6 -2.3,0.6 -0.3,0 -0.6,0 -0.8,-0.1 -0.7,-0.2 -1.3,-0.9 -1.7,-1.9 -0.3,-0.6 -0.5,-1.3 -0.7,-2 -0.7,1.2 -1.9,3.1 -3.4,3.1 -1.9,0.1 -3.1,-1.6 -4.1,-3.1 -0.5,-0.7 -1,-1.5 -1.6,-1.9 -1.1,-0.9 -1.9,-0.7 -2.4,0.6 -0.1,0.1 -0.1,0.3 -0.2,0.4 0.4,1.1 0.5,2.6 -0.3,3.4 -0.1,0.2 -0.3,0.2 -0.5,0.2 -0.4,0 -0.7,-0.2 -0.8,-0.6 -0.3,-0.9 -0.3,-1.9 -0.1,-3 -0.2,-0.5 -0.5,-0.8 -0.7,-1 -0.1,-0.1 -0.3,-0.2 -0.5,-0.2 -0.6,0 -1.4,0.6 -1.7,1.2 -0.5,0.9 -0.6,2 -0.7,3 l 0,0.1 c 0,0.4 -0.4,0.8 -0.8,0.8 -0.3,0 -0.6,-0.2 -0.8,-0.5 l -0.7,-1.8 c -0.8,1.6 -2.4,2.7 -4.1,2.7 -1.5,0 -2.9,-0.8 -3.7,-2.1 -0.8,1 -2,1.6 -3.3,1.4 -1.1,-0.1 -2,-0.7 -2.7,-1.7 -0.1,0.1 -0.1,0.2 -0.2,0.3 -0.9,1 -2.1,1.3 -3.4,1.6 l -0.1,0 c -0.8,0.2 -2,0.5 -3.1,0.5 -1.5,0 -2.5,-0.5 -2.9,-1.4 -0.1,-0.3 -0.1,-0.5 0,-0.8 0.2,-0.2 0.4,-0.4 0.7,-0.4 0.3,0 0.5,0.1 0.6,0.4 0,0 0,0.1 0.1,0.1 0.7,0 2.5,-1.5 2.8,-1.9 0.6,-0.6 0.8,-1.1 0.3,-1.6 -0.3,-0.4 -0.9,-0.6 -1.5,-0.6 -0.4,0 -0.8,0.1 -1.1,0.2 -2.4,1.2 -2.5,5.3 -2.6,7.1 -0.1,3 0.4,6 0.8,8.9 0,0.2 0,0.5 -0.2,0.7 -0.2,0.2 -0.4,0.3 -0.7,0.3 -0.4,0 -0.6,-0.2 -0.7,-0.6 l -2.4,-12.6 c -0.6,0.9 -1.5,1.5 -2.6,1.9 -0.7,0.3 -2.2,0.7 -3.6,0.7 -1.1,0 -2,-0.3 -2.7,-0.8 l -0.1,-0.1 0,0 c 0,0 0,0 0,0 -0.2,-0.2 -0.3,-0.5 -0.2,-0.8 0.2,-0.4 0.7,-0.7 1.2,-0.5 0.1,0.1 0.2,0.1 0.3,0.1 0.8,0 2.1,-1 2.6,-2 0.2,-0.4 0.2,-0.8 0,-1.1 -0.3,-0.4 -0.8,-0.6 -1.4,-0.6 -0.6,0 -1.3,0.2 -1.7,0.6 -1.1,1 -1.4,2.6 -1.4,3.5 0,0.9 0,1.9 0.1,3.2 0.2,1.1 0.3,2.2 0.3,3.3 0,0.2 0,0.5 0.1,0.7 0,0.2 0,0.4 0.1,0.6 0.2,1.6 0.3,3.6 -0.6,4.9 -0.2,0.2 -0.4,0.4 -0.7,0.4 -0.2,0 -0.5,-0.1 -0.6,-0.3 -0.2,-0.2 -0.2,-0.4 -0.2,-0.7 0.7,-3.7 0.2,-7.6 -0.3,-10.2 -0.3,-1.4 -0.8,-3.1 -2.1,-4.5 -0.9,-0.9 -2.1,-1.5 -3.2,-1.6 0.8,1.1 0.9,2.6 0.4,3.9 -0.7,1.6 -2.2,2.3 -3.9,2 -1.8,-0.3 -3.5,-2 -3.2,-4.1 0.4,-2.1 2.4,-3.6 4.6,-3.3 0.1,0 0.2,0 0.2,0.1 0.5,-0.1 1,-0.2 1.5,-0.2 2.4,0 4.7,1.6 6.1,4.1 0.1,-0.5 0.3,-1 0.5,-1.4 0.8,-1.6 2.3,-2.6 3.9,-2.6 0.5,0 1.1,0.1 1.6,0.4 0.8,0.4 1.4,1 1.6,1.8 0.2,0.8 -0.1,1.8 -0.8,2.6 -0.3,0.3 -0.6,0.6 -0.9,0.9 0.5,-0.1 1.1,-0.2 1.7,-0.4 1.5,-0.5 3.2,-1.8 2.9,-4 0,-0.2 0,-0.5 0.2,-0.7 0.2,-0.2 0.4,-0.3 0.7,-0.3 0.4,0 0.6,0.2 0.7,0.6 l 0.8,4.3 c 0.5,-3.3 1.6,-5.2 3.5,-5.9 1.7,-0.6 4.6,0 4.8,2.3 0.1,1.1 -1.1,2.6 -2.4,3.6 0.5,-0.1 1,-0.2 1.3,-0.3 l 0.4,-0.1 c 0.8,-0.2 1.6,-0.4 2.3,-0.9 0.4,-0.3 0.7,-0.8 0.9,-1.3 -0.1,-0.7 0,-1.4 0.3,-2 0.1,-0.3 0.3,-0.4 0.6,-0.4 0.4,0 0.8,0.4 0.9,0.8 0.1,0.6 0,1.2 -0.2,1.8 0.2,0.9 1,1.8 2,1.9 l 0.1,0 c 1.1,0 1.8,-0.8 2.1,-1.7 -0.1,-0.7 -0.1,-1.3 0,-1.9 0.1,-0.4 0.4,-0.6 0.7,-0.6 0.4,0 0.7,0.2 0.8,0.6 0.2,0.6 0.2,1.3 0.1,2 0.4,1.4 1.6,2.3 2.9,2.3 0.9,0 1.7,-0.4 2.3,-1.2 0.6,-0.8 0.9,-1.8 0.7,-2.7 -0.1,-0.3 0,-0.5 0.1,-0.7 0.1,-0.2 0.4,-0.3 0.6,-0.3 0.3,0 0.6,0.2 0.8,0.5 l 0.8,2 c 0.3,-0.8 0.6,-1.4 1.1,-1.9 0.5,-0.5 1.5,-1.1 2.5,-1.1 0.4,0 0.8,0.1 1.1,0.3 0.2,0.1 0.5,0.3 0.7,0.6 0.2,-0.3 0.3,-0.5 0.5,-0.7 0.5,-0.5 1.1,-0.8 1.7,-0.8 1.3,0 2.7,1.2 3.6,2.2 0.2,0.3 0.4,0.6 0.6,0.9 0.6,0.9 1.3,1.8 2.2,2.2 0.7,0.3 1.2,-0.2 1.7,-0.8 0.6,-0.7 1.1,-1.6 1.6,-2.5 l 0,-0.1 c 0.1,-0.2 0.2,-0.5 0.3,-0.8 0,-0.5 -0.1,-1 -0.1,-1.4 0,-0.2 0.1,-0.4 0.2,-0.5 0.3,-0.3 0.9,-0.3 1.2,0 0.5,0.5 0.6,1.2 0.3,2.1 0.1,1.4 0.4,2.5 0.7,3.5 0.2,0.7 0.5,1.4 1.1,1.5 0.1,0 0.2,0 0.3,0 0.9,0 2.2,-0.8 2.8,-1.2 1.1,-0.8 1.6,-2.1 2,-3.4 0,-0.2 0,-0.5 0.1,-0.8 -1.1,0 -2.1,0.1 -2.8,0.7 -0.4,0.4 -1.1,0.1 -1.3,-0.4 -0.1,-0.3 0,-0.6 0.2,-0.8 1.1,-0.9 2.4,-1 3.6,-1 l 0.5,0 c 0.4,-2.2 1.2,-4.3 2.2,-5.9 0.3,-0.5 0.9,-0.5 1.3,-0.1 0.2,0.2 0.2,0.4 0.2,0.7 -0.3,1.8 -0.9,3.5 -1.5,5.2 l 3.4,-0.2 c 0,0 0,0 0,0 0.5,0 0.8,0.3 0.8,0.7 0,0.4 -0.3,0.8 -0.8,0.8 l -4,0.2 c -0.1,0.2 -0.2,0.4 -0.2,0.7 0,0.1 -0.1,0.2 -0.1,0.3 -0.1,0.7 -0.1,1.5 0,2.2 0.1,1.5 0.3,3.3 1.6,3.5 0.6,0.1 1,-0.2 1.5,-1 0.6,-0.9 1.1,-1.8 1.6,-2.7 0.3,-0.5 0.5,-0.9 0.8,-1.4 l 1.3,-2.2 c 0.3,-0.7 0.7,-1.4 1,-2 -1,0 -2.1,0.1 -2.7,0.7 -0.4,0.4 -1.1,0.1 -1.3,-0.4 -0.1,-0.3 0,-0.6 0.2,-0.8 1.1,-0.9 2.4,-1 3.6,-1 l 1.1,-0.1 c 0.5,-0.9 1.1,-1.7 1.7,-2.5 0.3,-0.5 1.1,-0.4 1.4,0.1 0.1,0.2 0.1,0.5 0,0.8 l -0.9,1.5 2.8,-0.1 c 0,0 0,0 0,0 0.5,0 0.8,0.3 0.8,0.7 0,0.4 -0.3,0.8 -0.8,0.8 l -3.8,0.2 -1.7,2.9 c -0.9,2 -1.8,4.2 0.2,5.9 0.5,0.4 1,0.6 1.5,0.6 0.8,0 1.5,-0.5 2.1,-1.4 0.2,-0.3 0.3,-0.6 0.5,-0.9 0.4,-0.7 0.8,-1.5 1.5,-2.1 0.7,-0.6 1.6,-0.9 2.5,-0.9 1.1,0 1.9,0.6 2.3,1.5 0.1,0.2 0.1,0.5 -0.1,0.7 -0.2,0.3 -0.5,0.4 -0.9,0.3 l -0.3,-0.1 c -0.5,-0.1 -0.9,-0.2 -1.3,-0.2 -0.5,0 -0.9,0.2 -1.3,0.6 -0.6,0.6 -1,1.7 -0.6,2.5 0.3,0.7 0.9,0.8 1.3,0.8 1,0 2,-0.7 2.3,-1.6 0,-0.4 0,-0.7 0.1,-1.1 0.1,-0.3 0.4,-0.6 0.8,-0.6 0.4,0 0.7,0.2 0.8,0.6 0.1,0.4 0.1,0.7 0,1.1 0.2,1.2 1.3,2.2 2.4,2.1 0.7,-0.1 1.4,-0.6 1.7,-1.3 -0.1,-0.7 0,-1.4 0.2,-2 0.1,-0.3 0.5,-0.5 0.8,-0.5 0.4,0 0.6,0.2 0.7,0.6 0.2,0.7 0.1,1.4 -0.1,2.1 0.2,0.9 0.9,1.6 1.7,1.9 1.1,0.3 2.3,-0.3 2.9,-1.5 -0.1,-0.7 0,-1.3 0.3,-2 0.1,-0.2 0.4,-0.4 0.7,-0.4 0.4,0 0.7,0.2 0.8,0.6 0.1,0.6 0,1.3 -0.2,1.9 0.5,1.3 2.6,2 3.7,1.7 2.1,-0.6 3.5,-2.7 4.7,-4.6 0.3,-0.5 1,-0.5 1.3,-0.2 2.2,2.5 4.2,5.4 2.4,7.7 z"
       id="path4359"
       inkscape:connector-curvature="0" /><path
       d="m 333.2,855 c -0.1,0 -0.1,-0.1 -0.2,-0.1 -0.1,0 -0.1,0 -0.2,0 -0.1,0 -0.2,0 -0.3,0 -1.2,0 -2.3,1.1 -2.4,2.3 -0.1,1.2 1,2 2,2.1 1.4,0.2 2.2,-0.8 2.3,-1.7 0.3,-0.9 0,-2.1 -1.2,-2.6 z"
       id="path4361"
       inkscape:connector-curvature="0" /><path
       d="m 315.4,860.3 c -0.5,0 -1.1,0.1 -1.4,0.5 -0.2,0.2 -0.3,0.4 -0.3,0.7 0.1,1 1.2,1.6 2.1,1.4 0.9,-0.2 1.5,-0.7 2,-1.6 -0.6,-0.4 -1.4,-0.8 -2.2,-0.9 0,-0.1 -0.1,-0.1 -0.2,-0.1 z"
       id="path4363"
       inkscape:connector-curvature="0" /></g><g
     id="g4365"
     transform="translate(-296.76634,-172.74847)"><path
       d="m 359.2,660.2 c 0.9,-0.2 1.7,-0.6 1.8,-1.1 0.1,-0.3 0,-0.8 -0.4,-1.2 -1,-1.3 -2.7,-1.6 -3.8,-0.6 0,0.1 0,0.2 -0.1,0.3 -0.3,0.6 -0.3,1.2 0.1,1.7 0.5,0.7 1.5,1.1 2.4,0.9 z"
       id="path4367"
       inkscape:connector-curvature="0" /><path
       d="m 389.6,660.2 c -1.1,0 -2.7,0.3 -3.4,1.3 -0.4,0.5 -0.5,1.2 -0.2,1.9 0.2,0.7 0.7,1.1 1.4,1.1 0.4,0 0.9,-0.2 1.2,-0.5 0.2,-0.1 0.3,-0.3 0.4,-0.5 -0.4,-1.2 -0.1,-2.5 0.8,-3.3 -0.1,0 -0.1,0 -0.2,0 z"
       id="path4369"
       inkscape:connector-curvature="0" /><path
       d="m 418.5,660.4 c -1.2,0 -2.7,0.6 -3.3,1.6 -0.3,0.6 -0.3,1.3 0.1,2 0.3,0.5 0.7,0.7 1.2,0.7 0.5,0 1,-0.3 1.4,-0.7 0.2,-0.2 0.4,-0.5 0.5,-0.9 -0.2,-1 0,-1.9 0.4,-2.7 0,0 -0.1,0 -0.2,0 0,0 0,0 -0.1,0 z"
       id="path4371"
       inkscape:connector-curvature="0" /><path
       d="m 460,620.2 c -2.3,-5 -7,-13 -9.4,-16.8 -2.4,-3.8 -16.3,-17.1 -18.4,-18.6 -2.1,-1.5 -11.8,-7.4 -14.1,-8.5 -2.3,-1 -6.3,-3.6 -14.7,-5.4 -8.4,-1.8 -10.5,-3 -19.3,-2.8 -8.8,0.2 -18.8,1.3 -22.7,2.4 -3.9,1.1 -6.4,0.7 -14.8,5.1 -8.4,4.4 -6.5,2.3 -13.2,7.5 -6.7,5.2 -17,15.6 -17.6,16.3 -0.6,0.8 -8.8,13.2 -9.3,14.1 -0.5,0.9 -4.7,7.5 -6.7,17.1 -2,9.6 -3.5,15.6 -2.9,23.7 0.5,8.1 1.7,18.1 4,24.5 2.3,6.4 3.5,11.1 8.3,18.1 4.8,7 10.7,12.1 14.4,17.8 3.8,5.7 15.3,11.6 19,13.4 3.7,1.8 14.7,6.9 23.5,8.1 8.8,1.2 18.2,1.4 18.2,1.4 0,0 17.1,-1.6 24,-4.3 6.9,-2.7 6.8,-1.5 14.6,-6.5 7.8,-5 11.6,-5 20.3,-15.8 8.7,-10.8 10.5,-11.6 14.4,-20.6 3.9,-9 5.6,-9.7 7.1,-20.5 1.5,-10.9 3.7,-13.7 1.2,-26.9 -2.5,-13.2 -3.6,-17.8 -5.9,-22.8 z m -67.4,-3.9 c 1.3,0 1.3,2 0,2 -1.3,0 -1.3,-2 0,-2 z M 374,598 c 3.4,-0.3 6.8,-0.6 10.2,-0.8 0.7,-0.1 1.3,0.9 0.9,1.5 -1,1.4 -2,2.9 -3,4.3 6.9,1.1 10,10.3 4,15.1 -2.8,2.2 -7.1,2.8 -10,0.3 -2.5,-2.2 -2.6,-6.5 0.7,-8 1.2,-0.5 2.2,1.2 1,1.7 -3.6,1.6 -0.4,5.4 2.2,5.8 2.4,0.3 4.8,-0.9 6.2,-2.8 3.3,-4.5 -0.7,-10.4 -6,-10.2 -0.7,0 -1.3,-0.9 -0.9,-1.5 0.9,-1.4 1.9,-2.7 2.8,-4.1 -2.7,0.2 -5.4,0.4 -8.2,0.7 -1.2,0.1 -1.2,-1.9 0.1,-2 z m -21.2,45 c -0.8,2.1 -2.8,3.4 -5.2,3.4 0,0 0,0 0,0 -2.1,0 -4,-1 -5.1,-2.8 -0.2,-0.3 -0.2,-0.5 0,-0.8 0.1,-0.3 0.5,-0.4 0.8,-0.4 0.3,0 0.5,0.1 0.7,0.4 0.8,1.2 2.2,2 3.8,2 1.1,0 2,-0.4 2.7,-1.1 0.9,-1 1.3,-2.4 1.1,-3.8 -0.3,-1.4 -1.1,-2.5 -2.3,-3 -0.6,-0.3 -1.3,-0.4 -1.9,-0.4 -2,0 -4,1.3 -5,3.3 -1.3,2.5 -0.8,5.7 1.3,7.9 0.7,0.8 1.6,1.6 2.4,2.3 1.1,0.9 2.2,1.9 3.1,3 1.7,2.2 2.6,4.8 2.5,7.3 -0.2,4.6 -3.8,8.3 -8.1,8.3 -0.3,0 -0.7,0 -1,-0.1 -2.3,-0.3 -4.3,-1.8 -5.3,-3.9 -0.9,-2 -0.8,-4.1 0.4,-6 0.2,-0.2 0.4,-0.4 0.7,-0.4 0.3,0 0.6,0.2 0.8,0.5 0.1,0.2 0.1,0.5 0,0.8 -0.8,1.2 -1,2.8 -0.4,4.2 0.6,1.5 1.8,2.6 3.3,3 0.5,0.1 1,0.2 1.5,0.2 2.6,0 4.9,-1.7 5.9,-4.3 1.1,-2.8 0.4,-6.2 -1.7,-8.8 -0.8,-1 -1.8,-1.9 -2.8,-2.7 -1,-0.9 -2,-1.7 -2.9,-2.8 -1.7,-2.1 -2.4,-5.1 -1.7,-7.8 0.6,-2.4 2.2,-4.3 4.5,-5.2 0.8,-0.3 1.7,-0.5 2.5,-0.5 1.8,0 3.4,0.7 4.5,1.9 1.3,1.7 1.7,4.2 0.9,6.3 z m 72.9,21.6 c -0.8,1.2 -2,2 -3.3,2 -0.1,0 -0.3,0 -0.4,0 -1.1,-0.1 -2,-0.7 -2.7,-1.6 -0.3,0.3 -0.6,0.6 -0.9,0.8 -0.6,0.4 -1.2,0.6 -1.8,0.6 -0.9,0 -1.8,-0.4 -2.4,-1.1 -0.2,-0.3 -0.4,-0.6 -0.6,-1 -0.5,0.9 -1.1,1.9 -2,2.6 -0.7,0.5 -1.6,0.8 -2.5,0.8 -1.2,0 -2.2,-0.6 -2.7,-1.5 -0.2,0.3 -0.3,0.5 -0.5,0.7 -1,1.1 -2.8,1.3 -3.9,0.4 -1.2,-1 -0.9,-2.5 -0.7,-3.7 l 0.1,-0.3 c 0.1,-0.7 0.3,-1.6 -0.1,-2.1 -0.3,-0.4 -0.8,-0.5 -1.2,-0.5 -0.3,0 -0.6,0.1 -0.9,0.2 -1.9,0.7 -2,3.2 -2,5.1 0,0.6 -0.5,0.9 -0.9,0.9 -0.4,0 -0.7,-0.2 -0.7,-0.6 l -0.3,-1.8 c -0.6,1.1 -1.5,1.7 -2.7,1.8 -1.1,0.1 -2.1,-0.2 -2.8,-0.9 -0.4,0.4 -0.8,0.7 -1.3,0.9 -1.1,0.5 -2.3,0.3 -3.2,-0.5 -0.8,1.2 -2.3,1.8 -3.6,1.2 -1,-0.4 -1.8,-1.4 -2,-2.5 -0.2,-1.1 0.3,-2.1 0.8,-3 0.1,-0.2 0.2,-0.3 0.3,-0.5 0.3,-0.6 0.4,-1 0.4,-1.6 0,-0.3 -0.1,-0.4 -0.1,-0.4 -0.1,0 -0.4,0.1 -0.6,0.2 -0.7,0.3 -1.2,0.5 -1.7,0.5 -0.3,0 -0.5,0 -0.8,-0.1 -0.3,1.4 -0.7,2.8 -1.1,4.2 -0.5,1.6 -1.7,3.4 -3.5,3.4 -0.2,0 -0.5,0 -0.7,-0.1 -1.1,-0.3 -1.8,-1 -2,-2.2 -0.9,1 -2,1.9 -3.4,1.8 -1.2,-0.1 -1.9,-1 -2.3,-2 -0.1,0.3 -0.3,0.7 -0.4,1 -1,1.7 -3.1,2.4 -4.3,2.7 -0.7,0.1 -1.2,0.2 -1.8,0.2 -1,0 -1.9,-0.2 -2.6,-0.7 -1.4,-1 -2.1,-2.7 -2.1,-5.2 0,-1.7 0.1,-3.9 1.3,-5.5 1.2,-1.6 3.1,-2.2 4.8,-1.5 1.3,0.6 2.8,1.8 3,3.3 0.2,1.3 -0.7,2.4 -2.4,2.9 -1.5,0.5 -3.1,0.4 -4,-0.4 -0.4,-0.3 -0.7,-0.6 -0.9,-1 -0.1,0.9 -0.1,1.9 -0.1,2.6 0,0.9 0.3,3.7 2.7,3.9 1.2,0.1 2.6,-0.2 3.7,-0.9 1.2,-0.7 1.5,-1.6 2,-2.9 l 0.1,-0.3 c 0.4,-1.1 0.9,-2.6 1.6,-4 0.1,-0.4 0.3,-0.7 0.5,-1 0.2,-0.2 0.4,-0.4 0.7,-0.4 0.3,0 0.6,0.2 0.7,0.4 0.1,0.2 0.1,0.5 0,0.8 -0.1,0.2 -0.3,0.5 -0.4,0.7 -0.2,0.6 -0.3,1.3 -0.3,2.1 0,0.4 0,0.7 -0.1,1.1 -0.1,1.1 0,1.9 0.3,2.3 0.2,0.3 0.6,0.3 1,0.2 1,-0.3 2.2,-2 2.7,-2.6 0.1,-0.1 0.1,-0.2 0.2,-0.3 0.2,-0.9 0.4,-1.8 0.7,-2.6 0.1,-0.4 0.2,-0.7 0.3,-1 0.1,-0.4 0.4,-0.6 0.7,-0.6 0.4,0 0.8,0.3 0.9,0.8 0.1,1.4 -0.2,2.7 -1,4 -0.3,1.7 0,2.7 0.8,2.8 1.7,0.3 2.3,-2 2.6,-3.5 0,-0.2 0.1,-0.4 0.1,-0.6 0.2,-0.6 0.3,-1.2 0.5,-1.8 0.2,-0.6 0.3,-1.2 0.5,-1.7 -0.1,-1 0.2,-2.3 1,-2.7 0.4,-0.2 0.8,0 1.1,0.3 0.1,0.2 0.2,0.4 0.1,0.7 -0.2,0.6 -0.3,1.2 -0.5,1.8 0,0 0,0 0,0 0.3,0.4 1.1,0 1.7,-0.3 0.3,-0.2 0.6,-0.3 0.8,-0.4 1,-0.2 1.7,0.5 1.8,1.7 0.2,1.3 -0.3,2.2 -0.8,3.2 -0.1,0.2 -0.3,0.5 -0.4,0.8 -0.3,0.6 -0.3,1.3 -0.1,1.8 0.2,0.4 0.5,0.6 1,0.7 0.6,0.1 1,-0.2 1.2,-0.4 0.3,-0.4 0.5,-0.9 0.5,-1.4 0,-0.1 0,-0.1 0,-0.2 -0.2,-1.3 0.3,-2.6 1.3,-3.4 1,-0.9 2.3,-1.3 3.8,-1.3 0.5,0 0.9,0 1.4,0.1 0.3,0 0.5,0.2 0.6,0.5 0,0.2 0,0.4 -0.1,0.6 0.2,0.2 0.3,0.5 0.3,0.8 -0.1,1 -0.3,2.1 -0.8,3 0,0.1 0.1,0.1 0.1,0.2 0.7,0.7 1.9,0.7 2.6,0 1.1,-1 1.2,-2.9 1.1,-4.8 0,-0.2 0.1,-0.4 0.2,-0.6 0.2,-0.2 0.4,-0.3 0.7,-0.3 0.4,0 0.7,0.3 0.8,0.6 l 0.3,2.1 c 0.7,-1.3 1.7,-2 3.1,-2.1 1.2,-0.1 2.1,0.2 2.7,0.9 0.6,0.7 0.9,1.8 0.8,3 0,0.2 -0.1,0.4 -0.1,0.7 -0.2,0.8 -0.4,1.9 0,2.4 0.1,0.2 0.3,0.2 0.7,0.2 1.4,0 1.9,-2 2.2,-3.2 l 0,-0.2 c 0.5,-2.1 0.8,-4.3 1.1,-6.4 -1.2,0.1 -2.4,0.2 -3.1,0.9 -0.4,0.4 -1.1,0.2 -1.3,-0.3 -0.1,-0.3 -0.1,-0.6 0.2,-0.9 1,-1 2.4,-1.1 3.7,-1.3 l 0.8,-0.1 c 0.3,-1.9 0.6,-4 1.1,-6.1 0.1,-0.4 0.4,-0.6 0.8,-0.6 0.3,0 0.5,0.1 0.7,0.3 0.2,0.2 0.2,0.4 0.2,0.7 -0.4,1.9 -0.7,3.8 -0.9,5.5 l 3.8,-0.4 c 0.5,-0.1 0.8,0.3 0.8,0.7 0,0.4 -0.2,0.9 -0.8,0.9 l -4.1,0.5 -0.1,0.6 c -0.3,2.1 -0.5,4.3 -0.9,6.4 -0.2,0.9 -0.3,1.9 0.3,2.5 0.5,0.5 1.4,0.5 2.2,0.1 1.1,-0.6 1.7,-1.8 2.3,-3 0.1,-0.3 0.3,-0.5 0.4,-0.8 0.9,-1.7 2.5,-3.5 4.5,-3.5 0.6,0 1.1,0.2 1.7,0.4 0.3,0.2 0.5,0.5 0.4,0.9 0.3,-0.1 0.8,-0.1 1,0.2 0.1,0.1 0.2,0.3 0.2,0.6 -0.1,0.8 -0.2,1.8 -0.5,2.7 0.3,0.9 0.9,1.6 1.8,1.8 0.9,0.2 1.8,-0.3 2.3,-1.2 0.5,-0.8 0.6,-1.7 0.2,-2.4 -0.1,-0.3 -0.1,-0.6 0,-0.8 0.2,-0.3 0.5,-0.4 0.7,-0.4 0.3,0 0.5,0.2 0.7,0.4 0.3,1 0.2,2.6 -0.6,3.9 z"
       id="path4373"
       inkscape:connector-curvature="0" /></g><path
     d="m 154.93366,400.85153 c 0.1,0 7.8,-4 12.5,-5.8 1.1,-0.4 1.8,-0.7 2.2,-0.8 0.6,-0.2 1.5,-0.6 1.1,-1.5 -0.4,-0.9 -1.1,-0.7 -2.2,-0.3 l 0,0 c -0.4,0.2 -1,0.4 -1.8,0.7 -2.6,1 -5.9,2.6 -8.6,3.8 4.6,-6.5 5.3,-12.8 5,-17.2 -1,-10.5 -4.9,-19.1 -6.7,-20.5 -0.4,-0.3 -1.1,-0.3 -1.4,0.1 -0.3,0.4 -0.3,1.1 0.1,1.4 0.9,0.8 5,8.5 5.9,19.1 0.3,4.5 -0.5,11.2 -6.2,17.9 -0.3,-1.2 -0.7,-3.3 -1.4,-6.9 -1.2,-6.9 -1.2,-8.2 -1.2,-8.4 0,-0.5 -0.3,-0.9 -0.8,-1 -0.5,-0.1 -1.1,0.2 -1.2,0.8 0,0 0,0.1 0,0.4 0,0.7 0.3,2.7 1.3,8.6 0.7,3.8 1.6,8.4 2.1,9.1 0.3,0.6 0.8,0.7 1.3,0.5 z"
     id="path4375"
     inkscape:connector-curvature="0" /><path
     d="m 154.93366,598.35153 c 0.1,0 7.8,-4 12.5,-5.8 1.1,-0.4 1.8,-0.7 2.2,-0.8 0.6,-0.2 1.5,-0.6 1.1,-1.5 -0.4,-0.9 -1.1,-0.7 -2.2,-0.3 l 0,0 c -0.4,0.2 -1,0.4 -1.8,0.7 -2.6,1 -5.9,2.6 -8.6,3.8 4.6,-6.5 5.3,-12.8 5,-17.2 -1,-10.5 -4.9,-19.1 -6.7,-20.5 -0.4,-0.3 -1.1,-0.3 -1.4,0.1 -0.3,0.4 -0.3,1.1 0.1,1.4 0.9,0.8 5,8.5 5.9,19.1 0.3,4.5 -0.5,11.2 -6.2,17.9 -0.3,-1.2 -0.7,-3.3 -1.4,-6.9 -1.2,-6.9 -1.2,-8.2 -1.2,-8.4 0,-0.5 -0.3,-0.9 -0.8,-1 -0.5,-0.1 -1.1,0.2 -1.2,0.8 0,0 0,0.1 0,0.4 0,0.7 0.3,2.7 1.3,8.6 0.7,3.8 1.6,8.4 2.1,9.1 0.3,0.6 0.8,0.7 1.3,0.5 z"
     id="path4377"
     inkscape:connector-curvature="0" /></svg>