<?xml version="1.0" encoding="UTF-8" standalone="no"?>
<!-- Generator: Adobe Illustrator 18.1.1, SVG Export Plug-In . SVG Version: 6.00 Build 0)  -->

<svg
   xmlns:dc="http://purl.org/dc/elements/1.1/"
   xmlns:cc="http://creativecommons.org/ns#"
   xmlns:rdf="http://www.w3.org/1999/02/22-rdf-syntax-ns#"
   xmlns:svg="http://www.w3.org/2000/svg"
   xmlns="http://www.w3.org/2000/svg"
   xmlns:sodipodi="http://sodipodi.sourceforge.net/DTD/sodipodi-0.dtd"
   xmlns:inkscape="http://www.inkscape.org/namespaces/inkscape"
   version="1.1"
   id="Layer_2"
   x="0px"
   y="0px"
   viewBox="0 0 472.56206 483.33995"
   enable-background="new 0 0 841.9 1190.6"
   xml:space="preserve"
   inkscape:version="0.91 r13725"
   sodipodi:docname="vvv.svg"
   width="472.56207"
   height="483.33994"><metadata
     id="metadata4250"><rdf:RDF><cc:Work
         rdf:about=""><dc:format>image/svg+xml</dc:format><dc:type
           rdf:resource="http://purl.org/dc/dcmitype/StillImage" /><dc:title></dc:title></cc:Work></rdf:RDF></metadata><defs
     id="defs4248" /><sodipodi:namedview
     pagecolor="#ffffff"
     bordercolor="#666666"
     borderopacity="1"
     objecttolerance="10"
     gridtolerance="10"
     guidetolerance="10"
     inkscape:pageopacity="0"
     inkscape:pageshadow="2"
     inkscape:window-width="1916"
     inkscape:window-height="1037"
     id="namedview4246"
     showgrid="false"
     fit-margin-top="0"
     fit-margin-left="0"
     fit-margin-right="0"
     fit-margin-bottom="0"
     inkscape:zoom="1.432891"
     inkscape:cx="205.50807"
     inkscape:cy="187.76922"
     inkscape:window-x="0"
     inkscape:window-y="20"
     inkscape:window-maximized="0"
     inkscape:current-layer="Layer_2" /><path
     style="fill:#000000"
     d="m 218.73706,9.0979743e-5 c -0.6918,-0.0079999997 -1.325,0.540230000257 -1.5,1.240230020257 -0.1,0.7 0.3,1.49922 1,1.69922 0.2,0.1 1.49922,0.69961 7.69922,4.59961 2.1,1.3 3.70078,2.29961 4.80078,3.09961 -3.5,-0.1 -12.8,0.30156 -33.5,4.10156 -32.4,5.9 -60.8,19.59961 -71.5,25.09961 -18.1,9.4 -30.100777,18.49961 -30.300777,18.59961 -0.2,0.2 -24.89922,20.89961 -34.69922,30.59961 -9.4,9.3 -30.79961,39.801169 -46.59961,75.701169 -14.30000002,32.2 -18.10078,81.09922 -9.80078,124.69922 9.3,49.4 20.69961,67.69922 27.59961,78.69922 l 0.70117,1 c 0.3,0.5 0.79883,0.70117 1.29883,0.70117 0.3,0 0.50078,-0.10117 0.80078,-0.20117 0.7,-0.4 0.9,-1.39961 0.5,-2.09961 l -0.70117,-1.09961 c -6.7,-10.8 -17.89922,-28.79961 -27.19922,-77.59961 -8.20000002,-43 -4.40039,-91.20039 9.59961,-122.90039 15.7,-35.5 36.7,-65.60078 46,-74.800779 9.7,-9.6 34.30039,-30.19844 34.40039,-30.39844 0.1,-0.1 12.000777,-9.00078 29.800777,-18.30078 10.6,-5.5 38.59961,-19.00078 70.59961,-24.80078 19.4,-3.5 28.69883,-4 32.29883,-4 -2.2,2.1 -5.09961,4.80039 -7.09961,6.90039 -0.8,0.9 -1.39922,1.40078 -1.69922,1.80078 -0.4,0.5 -1.40039,1.49961 -0.40039,2.59961 0.3,0.3 0.7,0.5 1,0.5 0.7,0 1.30078,-0.59961 1.80078,-1.09961 0.3,-0.3 0.8,-0.79961 1.5,-1.59961 3.6,-3.8 10.39844,-9.80039 10.39844,-9.90039 0.7,-0.8 0.80078,-1.70078 0.30078,-2.30078 -0.5,-0.6 -3.20078,-2.49961 -8.30078,-5.59961 -7.6,-4.70000002 -8.3,-4.90039002 -8.5,-4.90039002 -0.1,-0.025 -0.2,-0.0379 -0.29883,-0.03910000026 z M 250.53589,11.339931 c -0.8,0 -1.5,0.7 -1.5,1.5 0,0.8 0.6,1.5 1.5,1.5 12.3,0.3 29.30078,0.59883 76.80078,20.29883 40.4,16.7 78.79922,46.20117 97.69922,75.201169 21.2,32.5 34.9,66.49883 37.5,79.29883 2.7,13.3 6.70117,45.2 6.70117,45.5 0,0.1 1,14.90039 -1,34.90039 -1.1,11.8 -5.20078,42.50117 -17.80078,72.70117 -8,19 -12.7,26.89961 -14.5,29.59961 -0.5,-3.1 -1.2,-7.1 -2,-10 -0.3,-1.2 -0.39961,-1.90078 -0.59961,-2.30078 -0.1,-0.6 -0.50039,-1.99922 -1.90039,-1.69922 -1.5,0.3 -1.2,1.69922 -1,2.69922 l 0.0996,0 c 0.1,0.4 0.3,1.09961 0.5,2.09961 1.3,5 2.60156,14 2.60156,14 0.1,0.7 0.7,1.30078 1.5,1.30078 0.8,0 3.99844,-1.30078 9.39844,-3.80078 8.1,-3.7 8.70039,-4.19844 8.90039,-4.39844 0.6,-0.6 0.6,-1.50156 0,-2.10156 -0.5,-0.5 -1.4,-0.59961 -2,-0.0996 -0.19999,0.1 -1.4996,0.90038 -8.0996,3.90038 -2.1,1 -3.70039,1.69922 -4.90039,2.19922 2,-2.9 6.80078,-10.89961 14.80078,-30.09961 12.7,-30.7 16.8,-61.79922 18,-73.69922 2.1,-20.3 1.1,-35.2 1,-35.5 0,-0.3 -4.00117,-32.30078 -6.70117,-45.80078 -2.7,-13 -16.6,-47.60039 -38,-80.40039 -19.2,-29.499999 -58.09961,-59.498829 -99.09961,-76.298829 -48.1,-19.9 -65.30039,-20.2 -77.90039,-20.5 z m -17.5,21.59961 c -6,0.3 -12.99883,1.20039 -21.79883,2.90039 -33,6.4 -45.4,9.29961 -58,15.09961 -12.4,6.3 -32.49961,18.29922 -42.09961,24.19922 -9.5,5.9 -43.099997,41.000779 -46.999997,46.300779 -3.7,5.3 -18.70078,29.7 -21.30078,35.5 -2.6,5.8 -9.1,15.8 -13.5,37 -4.5,21.2 -7.5,26.4 -7,48.5 0.5,22.1 3.39961,47.39922 6.09961,57.19922 2.6,9.9 1.80039,16.30117 12.90039,37.20117 8.9,17 7.29922,17.29961 13.19922,25.59961 17.2,-9.4 30.80078,-19.69922 40.80078,-27.19922 7.199997,-5.1 11.999997,-8.70117 14.999997,-9.70117 7,-2.3 48.70039,-27.59961 59.40039,-36.09961 10.5,-8.2 56.29922,-32.90039 62.69922,-36.40039 0.5,-3.3 2.20117,-17.30039 2.20117,-33.40039 0,-18.7 -0.001,-24.99883 -1.70117,-41.29883 -0.8,-7.6 -0.49922,-18.10078 -0.19922,-29.30078 0.4,-13 0.8,-26.50039 -0.5,-37.40039 -1.1,-9.7 -0.50078,-19.699219 0.19922,-31.199219 0.8,-13.2 1.79961,-28.1 0.59961,-47.5 z m 3.20117,0 c 1.2,19.5 0.20039,34.50078 -0.59961,47.80078 -0.7,11.4 -1.30078,21.299219 -0.30078,30.699219 1.3,11.1 0.9,24.70078 0.5,37.80078 -0.3,11 -0.60078,21.39844 0.19922,28.89844 1.7,16.4 1.70117,22.70156 1.70117,41.60156 0,15.6 -1.49961,28.19922 -2.09961,32.19922 l 0.0996,0.59961 c 2.1,1.1 52.30039,28.00117 63.40039,36.70117 10.8,8.4 52.39844,33.69961 59.39844,36.09961 9.1,3 42.6,27.29961 58,38.59961 4.2,-7.2 7.50078,-13.70078 9.30078,-17.30078 4.6,-9.3 17.50039,-37.19883 20.40039,-59.29883 2.90001,-22.1 3.59962,-45.90039 3.59962,-45.90039 0,0 -4.30039,-42.99922 -10.90039,-60.69922 -6.7,-17.6 -3.69883,-17.10078 -16.29883,-36.80078 -12.5,-19.7 -12.50039,-29.2 -39.90039,-50.999999 -27.2,-21.8 -29.10078,-26.39922 -51.80078,-36.19922 -22.6,-9.7 -24.29883,-14.10039 -51.79883,-17.90039 -18.8,-2.6 -28.10039,-6.10039 -42.90039,-5.90039 z M 342.63745,169.83993 c 0.2,0 0.49961,0.0988 0.59961,0.29883 0.2,0.2 0.19922,0.40117 0.19922,0.70117 l 0,0.0996 0.0996,0 -0.19921,0.30079 c -0.9,3.5 -1.69961,7.19961 -2.59961,11.09961 l 8.59961,-1 0.0996,0 c 0.3,0 0.59961,0.19961 0.59961,0.59961 0,0.4 -0.19922,0.9 -0.69922,1 -2.9,0.4 -5.7,0.69961 -9,1.09961 -0.9,4.2 -1.79961,8.80039 -2.59961,13.40039 0,0.3 -0.10117,0.6 -0.20117,1 -0.4,1.9 -0.99844,5.00078 0.10156,6.30078 0.5,0.6 1.29883,0.79961 2.29883,0.59961 2.2,-0.4 3.40039,-2.90078 4.40039,-4.80078 1.5,-2.9 3.2,-5.90039 6,-7.40039 0.6,-0.3 1.29961,-0.49922 2.09961,-0.69922 1.6,-1.4 3.49961,-1.70039 5.59961,-0.90039 0.7,0.3 2.30078,1.5 2.30078,2.5 0,0.4 -0.30039,0.8 -0.90039,1 -0.1,0 -0.20039,0.0996 -0.40039,0.0996 -0.4,0 -0.89922,-0.19844 -1.19922,-0.39844 -0.2,-0.1 -0.4,-0.20117 -0.5,-0.20117 -1.2,-0.4 -2.40078,-0.5 -3.30078,-0.5 -0.4,0 -0.79883,-3.9e-4 -1.29883,0.0996 -1.2,1.5 -1.90117,3.9 -2.20117,5.5 -0.2,1.2 0.10078,2.30156 0.80078,3.10156 0.7,0.8 1.8,1.29883 3,1.29883 0.8,0 1.60078,-0.19961 2.30078,-0.59961 1.7,-0.9 2.49961,-2.80039 3.09961,-4.40039 0.1,-0.3 0.30039,-0.7 0.40039,-1 0.7,-1.7 1.29961,-3.39883 2.59961,-4.79883 l 0.0996,-0.10156 0.30078,-0.29883 c 0.1,-0.1 0.3,-0.20117 0.5,-0.20117 0.3,0 0.59922,0.20039 0.69922,0.40039 0.1,0.2 0.1,0.50117 0,0.70117 -0.9,1.5 -0.60039,3.09844 -0.40039,4.89844 0,0.3 0.0996,0.60039 0.0996,0.90039 0,0.3 0.002,0.50117 0.10156,0.70117 0,0.2 0.0996,0.49922 0.0996,0.69922 0.1,1.4 0.89922,1.99922 2.19922,1.69922 0.4,0.1 0.7,0.10156 1,0.10156 0.9,0 1.30117,-0.30156 2.20117,-1.10156 2.1,-1.9 3.79883,-4.19961 5.29883,-7.09961 l 0,-0.0996 c 0,-0.1 0.0996,-0.20078 0.0996,-0.30078 l 0.10156,-0.0996 0.0996,0 c 0,-0.1 0.0996,-0.19883 0.0996,-0.29883 0.1,-0.2 0.29961,-0.40039 0.59961,-0.40039 0.3,0 0.60078,0.20039 0.80078,0.40039 0.1,0.2 0.0996,0.39961 0.0996,0.59961 l -0.19922,0.40039 c -0.79992,1.9 -1.5007,3.79922 -1.3007,5.69922 0.3,2.4 1.69922,4.09961 3.69922,4.09961 0.9,0 1.90078,-0.39961 2.80078,-1.09961 2.4,-1.9 4.60039,-4.49922 6.90039,-8.19922 l 0,-0.10156 c 0,-0.1 0.0996,-0.29844 0.0996,-0.39844 l 0,-0.20117 0.0996,0.0996 c 0,0 -3.9e-4,-0.0996 0.0996,-0.0996 0.2,-0.3 0.40117,-0.40039 0.70117,-0.40039 0.3,0 0.49961,0.10078 0.59961,0.30078 0.1,0.2 0.19961,0.39922 0.0996,0.69922 -0.8,2.7 -1.59883,5.70117 -0.29883,8.20117 1.1,2.2 2.89883,2.59961 4.29883,2.59961 1.3,0 2.7,-0.39961 4,-1.09961 2.5,-1.3 4.3,-3.60039 6,-5.90039 1.3,-1.7 2.70039,-3.50039 4.40039,-4.90039 0.1,-0.1 0.3,-0.19922 0.5,-0.19922 0.3,0 0.59922,0.1 0.69922,0.5 0.4,1.3 1.2,2.80039 2,4.40039 2.9,4.6 5.40117,9.59844 1.70117,13.39844 -0.8,0.9 -2.00078,1.30078 -3.30078,1.30078 -1.5,0 -3.00039,-0.69922 -3.90039,-1.69922 -0.7,-0.9 -0.89922,-1.9 -0.69922,-3 0.1,-0.3 0.39922,-0.5 0.69922,-0.5 0.3,0 0.50117,0.0988 0.70117,0.29883 0.2,0.2 0.19922,0.40117 0.19922,0.70117 -0.2,0.6 -0.0992,1.19961 0.30078,1.59961 0.5,0.7 1.59922,1.09961 2.69922,1.09961 0.6,0 1.19961,-0.10039 1.59961,-0.40039 2,-1.2 2.1,-4.30039 1.5,-6.40039 -0.4,-1.9 -1.39883,-3.69844 -2.29883,-5.39844 -0.6,-1.2 -1.30078,-2.40117 -1.80078,-3.70117 -1.3,1.2 -2.49922,2.70117 -3.69922,4.20117 -2.8,3.5 -5.70117,7.19844 -10.70117,7.39844 l -0.39844,0 c -1.9,0 -3.5,-0.59883 -4.5,-1.79883 -1.8,-2 -1.80117,-5.1 -1.70117,-7 -1.4,2 -2.69961,3.50039 -4.09961,4.90039 -1.3,1.4 -2.99961,3 -5.09961,3 l -0.5,0 c -1.5,-0.2 -2.60078,-0.70117 -3.30078,-1.70117 -1,-1.2 -1.39961,-3.10039 -1.09961,-5.40039 -0.8,1.1 -1.70078,2.20156 -2.80078,3.10156 l -0.29879,0.19922 c -1.3,1.2 -2.7,2.5 -4.5,2.5 l -0.5,0 c -2,-0.3 -3.10117,-1.80078 -3.70117,-4.30078 l 0,-0.29883 c -0.2,-1 -0.29844,-2.00039 -0.39844,-2.90039 -0.2,0.5 -0.40156,0.99961 -0.60156,1.59961 -0.6,1.9 -1.29844,3.79961 -2.89844,5.09961 -1.2,1.1 -2.80039,1.70117 -4.40039,1.70117 -1.6,0 -3.10117,-0.70078 -4.20117,-1.80078 -2.2,-2.6 -0.79961,-6.60039 0.40039,-8.90039 -1.1,0.7 -1.99961,1.80039 -3.09961,3.40039 -0.5,0.7 -0.90078,1.50039 -1.30078,2.40039 -1.3,2.5 -2.69961,5.3 -5.59961,6 -1.6,0.3 -2.90039,0 -3.90039,-1 -0.8,-0.8 -1.19922,-2.1 -1.19922,-3.5 0.2,-4 1.1,-8.09961 2,-12.09961 0.3,-1.2 0.50078,-2.39961 0.80078,-3.59961 0.2,-0.9 0.39961,-1.90078 0.59961,-2.80078 l -0.30078,0 c -0.7,0.1 -1.39922,0.0992 -2.19922,0.19922 l -0.20117,0.40039 c -1.3,2.5 -2.7,5 -4,7.5 -0.4,0.8 -0.79883,1.6 -1.29883,2.5 -2.4,4.7 -4.90039,9.60078 -8.90039,12.80078 -1.6,1.2 -3.40039,2 -4.90039,2 -1.8,0 -3.09883,-1.00078 -3.79883,-2.80078 -1.3,-3.1 -0.20156,-5.89961 0.89844,-8.59961 0.8,-2 1.7,-4.20078 1.5,-6.30078 -1.2,1.1 -2.59883,1.70117 -3.79883,1.70117 -0.9,0 -1.70039,-0.39961 -2.40039,-1.09961 -0.1,-0.1 -0.20078,-0.3 -0.30078,-0.5 -2.6,3.8 -4.69922,6.89883 -6.69922,9.79883 -0.3,0.4 -0.60039,0.99961 -0.90039,1.59961 -1.5,2.7 -3.7,6.40078 -6.5,6.80078 -1.6,0.2 -2.70039,-0.20078 -3.40039,-1.30078 -1,-1.5 -0.99961,-4.39844 -0.0996,-8.39844 0.7,-3 1.90117,-6.20156 2.70117,-8.10156 -0.8,-0.3 -1.50078,-0.39844 -2.30078,-0.39844 -2.9,0 -7.10039,2.09961 -10.40039,8.09961 l -1.79884,3.59961 c -1.4,3 -2.90117,6.09922 -5.20117,8.69922 -0.1,0.1 -0.20039,0.20117 -0.40039,0.20117 -0.4,0 -0.89844,-0.40078 -0.89844,-0.80078 l 0,-0.59961 c 0,0 -0.10156,3.9e-4 -0.10156,-0.0996 l -0.19922,-0.0996 0.0996,-0.10156 0.20117,-0.19922 0.0996,-0.0996 0,-18.80078 c -3,1 -6.80117,2.90117 -6.70117,6.70117 0,0.6 -0.39883,0.79883 -0.79883,0.79883 -0.5,0 -0.89961,-0.29883 -1.09961,-0.79883 -0.2,-3.7 2.69883,-6.5 8.79883,-8.5 l 0.20117,0 c 0.4,0 0.79883,0.39883 0.79883,0.79883 l 0,18.59961 c 1.5,-2 2.59961,-4.29961 3.59961,-6.59961 1.3,-2.7 2.60117,-5.60039 4.70117,-7.90039 2.6,-3 5.9,-4.59961 9,-4.59961 1.2,0 2.49961,0.30078 3.59961,0.80078 0.2,0.1 0.30039,0.19883 0.40039,0.29883 0.1,0.3 0.1,0.60117 0,0.70117 -1.6,3 -2.59961,6.20039 -3.09961,9.40039 -0.1,1 -0.30078,2 -0.30078,3 -0.1,0.7 -0.2,2.7 0.5,3.5 0.6,0.7 1.69922,0.49961 3.19922,-0.40039 1,-0.6 1.60117,-1.70078 2.20117,-2.80078 0.2,-0.4 0.39961,-0.7 0.59961,-1 3.2,-4.6 6.50078,-9.39922 9.80078,-14.19922 0.1,-1.4 0.89961,-2.40117 2.09961,-2.70117 0.3,-0.1 0.70039,0.10039 0.90039,0.40039 0.1,0.2 0.1,0.50117 0,0.70117 -0.3,0.5 -0.60039,0.89844 -0.90039,1.39844 l -0.59961,0.90039 c 0,0.2 0.0992,0.39961 0.19922,0.59961 l 2.30078,0.80078 c 1,0 2.19883,-1.2 2.79883,-2 0.5,-0.5 1.10039,-0.40039 1.40039,0.0996 1,3 -0.0996,5.5 -1.09961,8 -0.7,1.8 -1.5,3.59961 -1.5,5.59961 0,1.2 0.30039,2.30156 0.90039,3.10156 1,1.4 2.59883,1.69922 4.29883,0.69922 2.7,-1.5 4.60117,-3.89961 5.70117,-5.59961 2.3,-3.4 4.2,-7.20039 6,-10.90039 0.7,-1.4 1.39961,-2.79961 2.09961,-4.09961 0.2,-0.4 0.49922,-0.90078 0.69922,-1.30078 l 0.5,-0.90039 c -2.4,0.2 -4.9,0.70078 -6.5,2.30078 -0.2,0.1 -0.3,0.19922 -0.5,0.19922 -0.3,0 -0.69883,-0.2 -0.79883,-0.5 -0.1,-0.3 -10e-4,-0.59883 0.29883,-0.79883 2,-2 4.8,-2.30117 7.5,-2.70117 0.3,0 0.50078,-0.0996 0.80078,-0.0996 0.7,-1.4 1.49922,-2.79961 2.19922,-4.09961 1.5,-2.9 3.09961,-5.79922 4.59961,-8.69922 0.1,-0.2 0.40156,-0.40039 0.60156,-0.40039 z m -225.20117,6.29883 c 0.4,0 0.80078,0.30078 0.80078,0.80078 l 0,0.30078 0,0.0996 0.29883,0 0.20117,0 -0.0996,0.19922 c -0.1,0.2 -0.10117,0.39961 -0.20117,0.59961 0,0.1 -0.0996,0.20039 -0.0996,0.40039 0.1,3.2 0.19922,6.30078 0.19922,9.30078 1.7,-3.3 4.10156,-5.10039 7.10156,-5.40039 2.9,-0.3 5.89883,1.20078 7.79883,3.80078 1.5,2.1 1.90117,4.59844 1.20117,6.89844 -0.9,2.6 -3.30156,4.50117 -6.10156,5.20117 2.2,-0.4 4.30156,-1.70078 5.60156,-2.80078 1.1,-1 2.1,-2.09922 3,-3.19922 1.3,-1.5 2.59883,-3.10078 4.29883,-4.30078 1.7,-1.3 4.10078,-2.09961 6.30078,-2.09961 2,0 3.70039,0.60078 4.90039,1.80078 0.9,0.5 1.49883,1.29844 1.79883,2.39844 0.1,0.3 3.9e-4,0.60117 -0.0996,0.70117 -0.1,0.2 -0.39922,0.29883 -0.69922,0.29883 -0.4,0 -0.70078,-0.19961 -0.80078,-0.59961 0,-0.1 -0.0996,-0.0992 -0.0996,-0.19922 l -0.20117,0.0996 0,-0.0996 c -0.4,-1.2 -0.99883,-1.80078 -1.79883,-1.80078 -1.7,0 -4.00039,2.60039 -4.90039,3.90039 -1.5,2.2 -2.10078,5.19922 -0.30078,7.19922 0.8,0.9 1.70156,1.30078 2.60156,1.30078 3.3,0 5.89844,-6.10078 6.39844,-8.30078 0.2,-0.5 0.50078,-0.59961 0.80078,-0.59961 0.4,0 0.80078,0.30078 0.80078,0.80078 l 0,0.29883 0.0996,0 0.19922,0 0,0.20117 -0.29883,0.90039 c 0,1.7 0,3.29922 0.5,4.69922 0.6,1.9 1.99961,3 3.59961,3 1.1,0 2.30039,-0.5 3.40039,-1.5 1.6,-1.4 2.39883,-3.40078 3.29883,-5.30078 0.8,-1.9 1.70078,-3.89844 3.30078,-5.39844 0.1,-0.1 0.3,-0.20117 0.5,-0.20117 0.2,0 0.49922,0.10039 0.69922,0.40039 0.2,0.2 0.19961,0.50078 0.0996,0.80078 l 0,0.0996 0.10156,0.0996 -0.10156,0.0996 c 0,0 -0.0996,0.10117 -0.0996,0.20117 l -0.0996,0.0996 c -1.1,2.4 -2.29961,5.09883 -1.59961,7.79883 0.5,1.9 1.99922,3.20117 3.69922,3.20117 1.1,0 2.20039,-0.59961 2.90039,-1.59961 1.6,-2.1 3.00078,-4.50039 4.30078,-6.90039 l 2.09961,-3.59961 c 0.2,-0.2 0.39922,-0.40039 0.69922,-0.40039 0.3,0 0.60117,0.10039 0.70117,0.40039 0.1,0.2 0.1,0.49883 0,0.79883 -0.1,0.2 -0.30039,0.50117 -0.40039,0.70117 l -0.20117,0.39844 c -1.3,2.3 -2.7,4.90117 -2,7.70117 0.7,2.8 2.40117,3.40039 3.70117,3.40039 1.5,0 3.19922,-0.8 4.69922,-2 2.5,-2.1 4.8,-4.6 7,-7 1.3,-1.4 2.69961,-2.90078 4.09961,-4.30078 0.3,-0.3 0.80156,-0.20039 1.10156,0.0996 0.2,0.2 0.19922,0.40117 0.19922,0.70117 -0.6,2.8 0.7,5.2 2,7.5 0.8,1.3 1.50039,2.69922 1.90039,4.19922 0.6,2.1 0.49961,4.89922 -1.40039,6.19922 -0.6,0.5 -1.40078,0.70117 -2.30078,0.70117 -1.5,0 -3.09922,-0.80039 -3.69922,-1.90039 -0.3,-0.6 -0.60039,-1.49922 0.0996,-2.69922 0.2,-0.2 0.40117,-0.40039 0.70117,-0.40039 0.3,0 0.59922,0.10039 0.69922,0.40039 0.1,0.2 0.1,0.49883 0,0.79883 -0.2,0.3 -0.10039,0.70039 0.0996,0.90039 0.4,0.6 1.40039,1.30078 2.40039,1.30078 0.7,0 1.99961,-0.40078 2.09961,-2.80078 0.1,-2.1 -0.89922,-4.1 -1.69922,-5.5 -0.2,-0.4 -0.4,-0.7 -0.5,-1 -1,-1.9 -1.9,-3.70078 -2,-5.80078 -2.9,2.9 -5.80039,5.90117 -8.40039,8.70117 -1.7,1.8 -3.89961,3.79883 -6.59961,3.79883 -0.3,0 -0.60039,3.9e-4 -0.90039,-0.0996 -2.2,-0.4 -3.99961,-2.19922 -4.59961,-4.69922 -0.1,-0.7 -0.20117,-1.3 -0.20117,-2 -0.6,1.1 -1.39922,2.20039 -2.19922,3.40039 -0.8,1.1 -2.20078,2.59961 -4.30078,2.59961 l -0.59961,0 c -2.7,-0.3 -4.19922,-2.70078 -4.69922,-4.80078 -0.1,-0.6 -0.20117,-1.20039 -0.20117,-1.90039 -1.5,3.3 -3.3,6.70117 -7.5,6.70117 -3.8,0 -5.1,-3.40039 -5.5,-6.40039 -1.2,2.5 -2.7,4.10039 -4.5,4.90039 -0.6,0.2 -1.19883,0.40039 -1.79883,0.40039 -2.3,0 -4.39961,-1.7 -5.09961,-4 -0.8,-3.2 0.69961,-6.60156 4.59961,-10.10156 0.3,-0.2 0.49883,-0.39961 0.79883,-0.59961 -1.8,-0.2 -3.99961,0.30078 -5.59961,1.30078 -1.8,1.2 -3.29922,2.9 -4.69922,4.5 -1.1,1.3 -2.19961,2.59922 -3.59961,3.69922 -2.1,1.8 -4.90039,2.80078 -7.40039,2.80078 -1.7,0 -4.10117,-0.5 -5.70117,-3 -0.2,-0.2 -0.2,-0.50117 0,-0.70117 0.1,-0.3 0.50078,-0.5 0.80078,-0.5 0.1,0 0.30039,0.002 0.40039,0.10156 1,0.7 2.29922,1.09961 3.69922,1.09961 2.3,0 4.60039,-1.10078 5.90039,-2.80078 0.7,-1 1.50039,-2.59883 0.90039,-4.79883 -0.8,-2.7 -3.40117,-4.90117 -6.20117,-5.20117 -2.6,-0.2 -5.09922,1.29961 -6.69922,4.09961 -0.8,1.4 -1.5,3.00039 -2,4.90039 -0.2,9.6 -0.79961,19.40078 -2.09961,29.30078 l 0,0.79883 c 0,0.6 -3.9e-4,1.10117 0.0996,1.70117 l 0,0.0996 -0.0996,0 -0.40039,0 c -0.1,0.2 -0.29961,0.40039 -0.59961,0.40039 -0.4,0 -0.80078,-0.30117 -0.80078,-0.70117 -0.6,-10.4 -3.9e-4,-20.19922 1.59961,-29.19922 0.3,-1.9 0.70117,-3.50039 1.20117,-4.90039 0,-3 3.9e-4,-6.09922 -0.0996,-9.19922 -2.4,6.4 -5.30117,12.3 -8.70117,17.5 -0.3,0.3 -0.79961,0.49883 -1.09961,0.29883 -2.6,-1.3 -4.69961,-4.39961 -5.59961,-8.09961 0,0.2 -0.0996,0.39961 -0.0996,0.59961 -0.3,1.4 -0.50039,2.80117 -0.90039,4.20117 -0.7,2.3 -1.601167,5.5 -4.201167,6 -0.3,0.1 -0.49883,0.0996 -0.79883,0.0996 -2.6,-0.6 -4.9,-2.19922 -6,-3.69922 -1.3,-1.8 -1.60117,-4.30117 -0.70117,-6.70117 0.5,-1.3 1.30039,-2.49961 2.40039,-3.59961 0.5,-0.5 1.09961,-1.1 1.59961,-1.5 1.3,-0.6 1.90039,-0.99961 1.90039,-1.09961 0.1,-0.2 0.1,-0.4 0,-0.5 -0.1,-0.2 -0.49922,-0.30078 -1.19922,-0.30078 -1.3,0 -3.30117,0.50117 -3.70117,0.70117 -1.8,0.9 -3.39844,2.3 -4.39844,4 -1.4,2.1 -2.00117,4.49844 -2.70117,6.89844 -1,3.5 -2.00039,7.20117 -5.40039,9.70117 -0.1,0.1 -0.3,0.19922 -0.5,0.19922 -0.4,0 -0.79883,-0.39883 -0.79883,-0.79883 l 0,-0.70117 0,-0.40039 -0.0996,-0.0996 0.0996,-0.0996 c -0.5,-7.1 -1.5,-14.5 -3,-22.5 -4.4,3 -6.80078,8.30078 -6.30078,13.80078 0,0.2 3.9e-4,0.4 -0.0996,0.5 -0.1,0.1 -0.30039,0.19922 -0.40039,0.19922 -0.5,0 -0.99883,-0.40078 -1.29883,-1.30078 -0.7,-6.2 2.5,-12.49922 8,-15.69922 0.1,0 0.19883,-0.0996 0.29883,-0.0996 0.3,0 0.70078,0.2 0.80078,0.5 1.5,7.4 2.59922,15.3 3.19922,23.5 2.2,-2.3 3.00039,-5.30078 3.90039,-8.30078 0.7,-2.6 1.49961,-5.3 3.09961,-7.5 1.6,-2.2 3.89961,-3.9 6.09961,-4.5 0.7,-0.2 1.40156,-0.29883 2.10156,-0.29883 1.1,0 2.7,0.19844 3.5,1.39844 0.3,0.4 0.39883,0.90078 0.29883,1.30078 -0.2,0.9 -1.50039,1.5 -2.40039,2 -0.4,0.2 -0.8,0.39961 -1,0.59961 -4.3,3.4 -3.89961,7.3 -2.59961,9 0.9,1.4 2.50039,2.30078 3.90039,2.30078 1,0 1.9,-0.5 2.5,-1.5 0.7,-1.1 1.10039,-2.40117 1.40039,-4.20117 0.2,-0.8 0.3,-1.7 0.5,-2.5 0.4,-2.1 0.799607,-4.29844 1.599607,-6.39844 0.2,-0.3 0.40078,-0.5 0.80078,-0.5 0.2,0 0.49961,0.0988 0.59961,0.29883 0.2,0.2 0.19922,0.40117 0.19922,0.70117 l 0,0.0996 c 0.2,0 0.3,0.0996 0.5,0.0996 l 0.0996,0 0,0.0996 c -0.2,0.6 -0.39961,1.29961 -0.59961,2.09961 0.3,3.7 2.20117,7.3 4.70117,9 4.1,-6.6 7.3,-13.49844 9.5,-20.39844 0.2,-0.5 0.49883,-0.60156 0.79883,-0.60156 z m 223.20117,0.40039 c -1.1,2.1 -2.30039,4.20078 -3.40039,6.30078 l 2,-0.20117 c 0.5,-2.2 0.90039,-4.19961 1.40039,-6.09961 z m -43.20117,7 c 0.2,0 0.3,-3.9e-4 0.5,0.0996 l 0.0996,0 c 0.5,0 0.70117,0.40117 0.70117,0.70117 0,0.27793 -0.0971,0.63018 -0.42773,0.76172 0.20978,-0.16982 0.29987,-0.44217 0.22656,-0.66211 0,-0.3 -0.29922,-0.69922 -0.69922,-0.69922 l -0.0996,0 c -0.1,-0.1 -0.3,-0.10156 -0.5,-0.10156 -0.0843,0 -0.15411,0.0316 -0.22656,0.0566 0.11965,-0.0877 0.25625,-0.15625 0.42578,-0.15625 z m 0.79687,1.60742 c -0.0783,0.22299 -0.26878,0.33511 -0.48632,0.375 0.13189,-0.0759 0.2371,-0.17733 0.28906,-0.28125 0.0753,-0.0188 0.1368,-0.0563 0.19726,-0.0937 z m 59.10352,7.79297 c 0.6,0.1 0.99922,0.19922 1.19922,0.19922 -0.2,-0.1 -0.39922,-0.19922 -1.19922,-0.19922 z m -240.59961,10.80078 c -0.1,0.7 -0.10117,1.29844 -0.20117,1.89844 -0.1,2 -0.19883,3.90078 -0.29883,5.80078 0.2,-2.6 0.4,-5.09922 0.5,-7.69922 z m 117.79883,51.59961 c -0.5,0.3 -52.09844,27.90039 -62.89844,36.40039 -11.2,8.8 -52.90078,34.1 -60.30078,36.5 -2.6,0.9 -7.69961,4.7 -14.099607,9.5 -10,7.5 -23.60078,17.69922 -40.80078,27.19922 1.1,1.5 2.4,3.19922 4,5.19922 13,17 39.20117,42.80078 41.201167,44.30078 2,1.6 33.29844,22.20078 35.39844,23.30078 2.2,1.2 18.9,11.79883 43,16.79883 24.2,5 39.30039,8.70039 59.90039,7.40039 20.5,-1.3 45.60117,-4.30078 61.70117,-10.30078 16.1,-6 27.99961,-8.89844 45.59961,-20.89844 17.6,-12.1 30.39922,-27.00039 44.69922,-36.40039 8.2,-5.4 16.49961,-17.1 23.09961,-28 -29.8,-22 -51.19844,-36.30039 -57.39844,-38.40039 -7.5,-2.2 -49.20039,-27.50078 -60.40039,-36.30078 -10.4,-8.2 -58.90117,-34.29883 -62.70117,-36.29883 z m 8.40039,70.59961 c 0.2,0 0.49961,0.0992 0.59961,0.19922 0.2,0.1 0.40156,0.10117 0.60156,0.20117 l 0.0996,0 0,0.0996 c -0.3,0.8 -0.50117,1.60039 -0.70117,2.40039 l 0,0.19922 c -0.5,3.1 -1.09844,6.50039 -1.89844,9.90039 l 7.89844,-0.90039 0.10156,0 c 0.3,0 0.59961,0.19961 0.59961,0.59961 0,0.4 -0.20117,0.9 -0.70117,1 -2.9,0.4 -5.69883,0.7 -8.29883,1 -0.1,0.4 -0.20078,0.90078 -0.30078,1.30078 -0.5,4.5 -0.59922,9.00078 -0.19922,13.30078 0.1,0.5 0.0996,1.09922 0.0996,1.69922 0.1,2.2 0.29922,4.59961 1.69922,6.09961 0.8,0.8 1.90156,1.30078 3.10156,1.30078 0.4,0 0.79922,-0.10117 1.19922,-0.20117 1,-0.4 2.09922,-1.89844 2.69922,-2.89844 l 0.10156,-0.10156 c 1.5,-1.9 2.69883,-3.99922 3.79883,-6.19922 0.3,-2 1.10039,-4 1.90039,-6 0.2,-0.3 0.50078,-0.40039 0.80078,-0.40039 0.3,0 0.59922,0.20039 0.69922,0.40039 l 0.0996,0 c 0.1,0 0.20078,0.0996 0.30078,0.0996 l 0.0996,0 -0.19922,0.5 c -1.3,3.3 -2.70078,6.90078 -1.30078,10.30078 0.7,2 2.49922,3.40039 4.19922,3.40039 0.8,0 1.60078,-0.30039 2.30078,-0.90039 1,-0.9 1.8,-1.99961 2.5,-3.59961 -0.1,-2.8 1.20078,-5.60078 2.30078,-7.80078 0.1,-0.2 0.29961,-0.40039 0.59961,-0.40039 0.3,0 0.49922,0.10078 0.69922,0.30078 0.1,0.1 0.20117,0.30039 0.20117,0.40039 l 0.0996,0 0.0996,0 -0.0996,0.0996 c -0.3,0.6 -0.60078,1.19922 -0.80078,1.69922 -0.1,0.4 -0.20039,0.80117 -0.40039,1.20117 -0.3,1 -0.6,2 -1,3 -0.1,0.9 -0.0984,1.69844 0.10156,2.39844 0.5,2.2 2.2,3.5 4.5,3.5 1.1,0 2.29883,-0.29844 3.29883,-0.89844 1.8,-1 3.09961,-2.90078 4.09961,-5.80078 -0.4,-2.9 0.30078,-5.49922 1.80078,-7.19922 0.1,-0.2 0.3,-0.30078 0.5,-0.30078 0.2,0 0.39961,0.10078 0.59961,0.30078 0.2,0.2 0.20117,0.49922 0.20117,0.69922 l -0.10156,0.30078 0.10156,0.0996 -0.10156,0.0996 -0.0996,0.0996 0,0.0996 -0.0996,0.60156 c -0.3,1.4 -0.69961,2.79922 -1.09961,4.19922 0.1,2.8 1.29883,5.90078 3.79883,6.80078 0.5,0.2 0.90039,0.19922 1.40039,0.19922 3.2,0 5.70078,-3.70039 6.80078,-6.90039 -0.1,-1.7 0.19883,-3.3 0.79883,-4.5 0.1,-0.3 0.40156,-0.5 0.60156,-0.5 0.4,0 0.79883,0.30078 0.79883,0.80078 l 0,0.29883 0.0996,0 -0.0996,0.20117 c 0,1.1 -0.29922,2.29961 -0.69922,3.59961 0.1,3.2 1.59883,6.29961 3.79883,7.59961 0.7,0.4 1.40156,0.59961 2.10156,0.59961 1.6,0 3.09922,-1.09844 4.19922,-2.89844 1.3,-2.2 1.40039,-5.00117 0.40039,-6.70117 -0.1,-0.2 -0.1,-0.49922 0,-0.69922 0.2,-0.3 0.49883,-0.5 0.79883,-0.5 0.3,0 0.50156,0.10039 0.60156,0.40039 1.3,2.5 1.19922,5.8 -0.30078,8.5 -1.3,2.3 -3.39961,3.59961 -5.59961,3.59961 -0.4,0 -0.90078,3.9e-4 -1.30078,-0.0996 -3.3,-0.6 -5.09883,-3.90078 -5.79883,-6.80078 -1.9,3.6 -4.60078,5.69922 -7.30078,5.69922 -0.7,0 -1.3,-0.0984 -2,-0.39844 -1.9,-0.7 -3.50078,-2.5 -4.30078,-5 -1.8,4 -4.39883,5.99922 -7.79883,6.19922 -2.8,0.1 -5.2,-1.5 -6,-4 -1.4,2.5 -3,3.89922 -5,4.19922 -3,0.3 -5.20117,-2.19883 -6.20117,-4.29883 -0.4,-0.8 -0.59922,-1.69961 -0.69922,-2.59961 -1.3,2.4 -2.80039,4.39922 -4.40039,6.19922 -1.2,1.2 -2.59961,1.90039 -4.09961,1.90039 -2.1,0 -4,-1.30039 -5,-3.40039 -0.9,-2 -0.99961,-4.70078 -1.09961,-6.80078 l 0,-1 c -0.1,-1.5 -0.20117,-3.09922 -0.20117,-4.69922 -1.1,3.2 -2.39844,6.09922 -3.89844,8.69922 -2.2,3.9 -5.10117,8.20039 -9.70117,9.90039 -1.5,0.6 -3.09922,0.90117 -4.69922,0.70117 -0.4,0.1 -0.80117,0.0996 -1.20117,0.0996 -1.8,0 -3.4,-0.80117 -4,-2.20117 -0.1,0 -0.0992,-0.0996 -0.19922,-0.0996 -0.2,-0.1 -0.3,-0.30039 -0.5,-0.40039 l -0.0996,-0.0996 0.0996,-0.0996 c 0.1,-0.1 0.20078,-0.19922 0.30078,-0.19922 0,-0.2 -0.10156,-0.3 -0.10156,-0.5 -0.1,-0.3 0.002,-0.50156 0.10156,-0.60156 0.3,-0.3 0.79961,-0.3 1.09961,0 1.4,1.4 3.09922,2.10156 5.19922,2.10156 l 0.0996,0 c 2.3,-2 1.20117,-5.90039 0.20117,-7.90039 -0.7,-1.4 -1.60039,-2.70039 -2.40039,-3.90039 -1.1,-1.6 -2.20039,-3.29922 -2.90039,-5.19922 -2.6,3.8 -5.29883,7.59961 -7.79883,11.09961 -0.2,0.3 -0.40156,0.59883 -0.60156,0.79883 -1.4,2.1 -3.19883,4.70039 -5.79883,5.40039 -0.4,0.1 -0.90078,0.20117 -1.30078,0.20117 -2.1,0 -4,-1.20156 -5,-3.10156 -0.6,-1.1 -1,-2.29922 -1,-3.69922 -1.5,2.5 -3.2,4.39922 -5,5.69922 -1,0.7 -2.50039,1.10156 -3.90039,1.10156 -1.9,0 -3.49883,-0.60078 -4.29883,-1.80078 -1.9,-2.7 0,-7.9 2,-10.5 1.2,-1.5 2.80039,-2.59922 4.40039,-3.69922 0.4,-0.3 0.79922,-0.50078 1.19922,-0.80078 1,-0.8 2.09922,-1.20039 3.19922,-1.40039 -1.2,-0.9 -2.69844,-1.40039 -4.39844,-1.40039 -3.3,0 -7.40039,1.90117 -9.90039,4.70117 -2,2.3 -3.5,4.99961 -5,7.59961 -1.4,2.4 -2.80117,4.99922 -4.70117,7.19922 l 0,0.5 -0.19921,-0.19922 -0.0996,0.0996 c -0.1,0.1 -0.10117,0.20078 -0.20117,0.30078 -0.1,0.1 -0.19844,0.19922 -0.39844,0.19922 -0.4,0 -0.90039,-0.39883 -0.90039,-0.79883 0.3,-5.1 0.4,-10.20156 0.5,-15.10156 l 0,-0.0996 c 0,-0.8 -3.9e-4,-1.59883 0.0996,-2.29883 0,-0.7 0.0996,-1.40156 0.0996,-2.10156 l 0,-0.59961 c 0.1,-0.6 0.1,-1.49883 0,-1.79883 -0.1,0.1 -0.3,0.0996 -0.5,0.0996 -1.3,0 -2.79922,0.0988 -4.19922,0.79883 -2.8,1.2 -4.69961,3.70156 -5.09961,6.60156 -0.1,0.6 -0.7,0.79883 -1,0.79883 -0.2,0 -0.30039,-0.0992 -0.40039,-0.19922 0,0 -3.9e-4,-0.10078 0.0996,-0.30078 0.6,-5 5.09922,-9 10.19922,-9 0.7,0 1.4,0.10117 2,0.20117 0.3,0.1 0.60156,0.39883 0.60156,0.79883 -0.1,6.5 -0.30156,12.9 -0.60156,20 1.3,-1.8 2.50156,-3.90039 3.60156,-5.90039 2.3,-4.1 4.59961,-8.29883 8.59961,-10.79883 2.4,-1.5 5.09961,-2.40039 7.59961,-2.40039 3,0 5.49961,1.20039 7.09961,3.40039 0.1,0.2 0.1,0.39922 0,0.69922 -0.2,0.3 -0.60039,0.5 -0.90039,0.5 -0.3,-0.1 -0.59844,-0.0996 -0.89844,-0.0996 -2.8,0 -6.40156,3.00039 -8.10156,4.90039 -1.2,1.4 -2.89922,4.80039 -2.69922,7.40039 0.1,0.9 0.40039,1.59961 0.90039,2.09961 0.7,0.6 1.39883,0.90039 2.29883,0.90039 2.2,0 4.4,-2.10039 5.5,-3.40039 1.5,-1.9 2.90156,-4.09961 4.10156,-6.59961 0.3,-1 0.59844,-1.90156 0.89844,-2.60156 0.1,-0.3 0.40117,-0.5 0.70117,-0.5 0.4,0 0.79883,0.20156 0.79883,0.60156 l 0.30078,0.0996 0,0.0996 c -1.2,3.1 -2.70039,7.30078 -0.40039,10.30078 0.9,1.1 1.9,1.69922 3,1.69922 2.3,0 4.40117,-2.40039 5.20117,-3.40039 3.2,-4.4 6.19922,-8.59922 9.69922,-13.69922 l 0,-0.20117 0.19922,0 0.5,-0.69922 c 0.1,-0.2 0.40117,-0.30078 0.70117,-0.30078 0.4,0 0.59922,0.2 0.69922,0.5 0.4,1.8 1.69961,3.90156 3.09961,6.10156 2.6,4.1 5.5,8.69922 3,12.69922 1.8,-0.5 3.60156,-1.6 5.10156,-3 2.6,-2.5 4.99961,-6.20078 7.09961,-11.30078 1,-2.3 1.89883,-4.89844 2.79883,-7.89844 0.1,-1.5 0.3,-3.00039 0.5,-4.40039 l -0.5,0.0996 c -0.7,0.1 -1.39922,0.0992 -2.19922,0.19922 -3,0.2 -6.30039,0.40039 -8.40039,2.40039 -0.2,0.2 -0.39961,0.30078 -0.59961,0.30078 -0.3,0 -0.59922,-0.2 -0.69922,-0.5 -0.1,-0.3 -0.001,-0.60039 0.29883,-0.90039 2,-2 4.79961,-2.29922 7.59961,-2.69922 0.4,0 0.70156,-0.10156 1.10156,-0.10156 l 3.69924,-0.39841 c 0.7,-4.5 1.70039,-8.80078 2.90039,-12.80078 0.1,-0.3 0.39922,-0.5 0.69922,-0.5 z M 42.737063,379.89266 c -0.6918,-0.0465 -1.325,0.34688 -1.5,1.04688 -0.2,0.7 -0.29961,4.1 -0.0996,10 0.3,8.9 0.49961,9.60078 0.59961,9.80078 0.2,0.6 0.80039,0.89844 1.40039,0.89844 0.2,0 0.39961,3.9e-4 0.59961,-0.0996 0.7,-0.3 1.10039,-1.09883 0.90039,-1.79883 0,-0.2 -0.3,-1.7 -0.5,-9 -0.1,-2.6 -0.10156,-4.50078 -0.10156,-5.80078 1.6,2.6 6.90078,10.10039 22.30078,25.90039 23.1,23.9 50.099607,39.70039 60.599607,45.40039 17.9,9.8 32.10117,14.79883 32.20117,14.79883 l 0.0996,0 c 0.3,0.1 31.19922,7.90117 44.69922,10.70117 5,1 14.40039,1.59961 25.40039,1.59961 4.9,0 10.19961,-0.10078 15.59961,-0.30078 12.2,-0.5 35.6,-2.1 55,-7 34.9,-8.8 64.79961,-24.5 86.59961,-45.5 3.3,-3.2 6.50039,-6.2 9.40039,-9 11.7,-11.20001 20.20039,-19.39962 26.40039,-27.59962 0.5,-0.9 0.39922,-1.80078 -0.30078,-2.30078 -0.7,-0.5 -1.59961,-0.39922 -2.09961,0.30078 -6,8 -14.39961,16.09922 -26.09961,27.19922 -2.9,2.8 -6.10039,5.80156 -9.40039,9.10156 -21.4,20.6 -50.89922,36.09922 -85.19922,44.69922 -31.8,8 -81.10117,8.50078 -94.70117,5.80078 -13.1,-2.7 -42.8,-10.20156 -44.5,-10.60156 -1,-0.4 -14.59922,-5.19961 -31.69922,-14.59961 -10.4,-5.6 -37.100387,-21.19883 -59.900387,-44.79883 -14.1,-14.4 -19.6,-21.90117 -21.5,-24.70117 3,0.7 6.7,1.6 9.5,2 1.2,0.2 1.90039,0.30039 2.40039,0.40039 0.6,0.1 2.10078,0.30078 2.30078,-1.19922 0.2,-1.5 -1.20156,-1.70039 -2.10156,-1.90039 l -0.39844,0 c -0.4,-0.1 -1.00117,-0.10078 -1.70117,-0.30078 -5,-0.8 -13.80039,-3.09961 -13.90039,-3.09961 -0.1,-0.025 -0.2,-0.0402 -0.29883,-0.0469 z"
     id="path4224"
     inkscape:connector-curvature="0" /></svg>