<?xml version="1.0" encoding="UTF-8" standalone="no"?>
<!-- Generator: Adobe Illustrator 18.1.1, SVG Export Plug-In . SVG Version: 6.00 Build 0)  -->

<svg
   xmlns:dc="http://purl.org/dc/elements/1.1/"
   xmlns:cc="http://creativecommons.org/ns#"
   xmlns:rdf="http://www.w3.org/1999/02/22-rdf-syntax-ns#"
   xmlns:svg="http://www.w3.org/2000/svg"
   xmlns="http://www.w3.org/2000/svg"
   xmlns:sodipodi="http://sodipodi.sourceforge.net/DTD/sodipodi-0.dtd"
   xmlns:inkscape="http://www.inkscape.org/namespaces/inkscape"
   version="1.1"
   id="Layer_1"
   x="0px"
   y="0px"
   viewBox="0 0 47 47"
   enable-background="new 0 0 73.5 67.5"
   xml:space="preserve"
   inkscape:version="0.91 r13725"
   sodipodi:docname="logo-fill.svg"
   width="47"
   height="47"><metadata
     id="metadata9780"><rdf:RDF><cc:Work
         rdf:about=""><dc:format>image/svg+xml</dc:format><dc:type
           rdf:resource="http://purl.org/dc/dcmitype/StillImage" /><dc:title></dc:title></cc:Work></rdf:RDF></metadata><defs
     id="defs9778" /><sodipodi:namedview
     pagecolor="#ffffff"
     bordercolor="#666666"
     borderopacity="1"
     objecttolerance="10"
     gridtolerance="10"
     guidetolerance="10"
     inkscape:pageopacity="0"
     inkscape:pageshadow="2"
     inkscape:window-width="1916"
     inkscape:window-height="1037"
     id="namedview9776"
     showgrid="false"
     fit-margin-top="0"
     fit-margin-left="0"
     fit-margin-right="0"
     fit-margin-bottom="0"
     inkscape:zoom="3.4962963"
     inkscape:cx="-22.498729"
     inkscape:cy="23.45"
     inkscape:window-x="0"
     inkscape:window-y="20"
     inkscape:window-maximized="0"
     inkscape:current-layer="Layer_1" /><g
     id="g9772"
     transform="translate(-13.2,-10.2)"><path
       d="m 36.7,10.2 c -13,0 -23.5,10.5 -23.5,23.5 0,13 10.5,23.5 23.5,23.5 13,0 23.5,-10.5 23.5,-23.5 0,-13 -10.5,-23.5 -23.5,-23.5 z m 0.7,25.8 -7.3,0 0,8 -1.2,0 0,-9.1 8.6,0 0,1.1 z m 5.2,-11.3 -7.3,0 0,8 -1.3,0 0,-9.1 8.6,0 0,1.1 z"
       id="path9774"
       inkscape:connector-curvature="0" /></g></svg>