<?xml version="1.0" encoding="UTF-8" standalone="no"?>
<!-- Generated by IcoMoon.io -->

<svg
   xmlns:dc="http://purl.org/dc/elements/1.1/"
   xmlns:cc="http://creativecommons.org/ns#"
   xmlns:rdf="http://www.w3.org/1999/02/22-rdf-syntax-ns#"
   xmlns:svg="http://www.w3.org/2000/svg"
   xmlns="http://www.w3.org/2000/svg"
   xmlns:sodipodi="http://sodipodi.sourceforge.net/DTD/sodipodi-0.dtd"
   xmlns:inkscape="http://www.inkscape.org/namespaces/inkscape"
   version="1.1"
   width="1900.833"
   height="321.71201"
   viewBox="0 0 1900.833 321.71201"
   id="svg10392"
   inkscape:version="0.91 r13725"
   sodipodi:docname="logo-fill-name.svg">
  <metadata
     id="metadata10435">
    <rdf:RDF>
      <cc:Work
         rdf:about="">
        <dc:format>image/svg+xml</dc:format>
        <dc:type
           rdf:resource="http://purl.org/dc/dcmitype/StillImage" />
        <dc:title></dc:title>
      </cc:Work>
    </rdf:RDF>
  </metadata>
  <defs
     id="defs10433" />
  <sodipodi:namedview
     pagecolor="#ffffff"
     bordercolor="#666666"
     borderopacity="1"
     objecttolerance="10"
     gridtolerance="10"
     guidetolerance="10"
     inkscape:pageopacity="0"
     inkscape:pageshadow="2"
     inkscape:window-width="1916"
     inkscape:window-height="1037"
     id="namedview10431"
     showgrid="false"
     fit-margin-top="0"
     fit-margin-left="0"
     fit-margin-right="0"
     fit-margin-bottom="0"
     inkscape:zoom="0.2002064"
     inkscape:cx="154.3919"
     inkscape:cy="164.963"
     inkscape:window-x="0"
     inkscape:window-y="20"
     inkscape:window-maximized="0"
     inkscape:current-layer="svg10392" />
  <g
     id="icomoon-ignore"
     transform="translate(-10.438,-355.251)" />
  <path
     d="m 437.391,97.198 63.658,0 0,7.529 -56.128,0 0,52.706 48.599,0 0,7.529 -48.599,0 0,58.866 -7.529,0 0,-126.631 z"
     id="path10395"
     inkscape:connector-curvature="0" />
  <path
     d="m 520.899,97.198 8.898,0 0,13.005 -8.898,0 0,-13.005 z m 0.684,36.278 7.529,0 0,90.353 -7.529,0 0,-90.353 z"
     id="path10397"
     inkscape:connector-curvature="0" />
  <path
     d="m 556.492,97.198 7.529,0 0,105.412 c 0,12.321 6.16,14.374 10.952,14.374 1.369,0 2.738,0 2.738,0 l 0,6.845 c 0,0 -1.369,0.684 -3.422,0.684 -5.476,0 -17.797,-2.053 -17.797,-19.166 l 0,-108.15 z"
     id="path10399"
     inkscape:connector-curvature="0" />
  <path
     d="m 635.209,130.738 c 26.011,0 46.545,20.535 46.545,46.545 0,26.695 -21.219,47.914 -46.545,47.914 -25.326,0 -46.545,-21.219 -46.545,-47.914 0,-26.011 20.535,-46.545 46.545,-46.545 z m 0,87.615 c 21.219,0 39.016,-17.797 39.016,-40.385 0,-22.588 -17.112,-39.016 -39.016,-39.016 -21.219,0 -39.016,17.112 -39.016,39.016 0,22.588 17.797,40.385 39.016,40.385 z"
     id="path10401"
     inkscape:connector-curvature="0" />
  <path
     d="m 700.236,206.717 c 0,0 10.267,11.636 28.064,11.636 10.952,0 20.535,-5.476 20.535,-17.112 0,-22.588 -49.283,-16.428 -49.283,-45.861 0,-15.743 13.69,-24.642 28.749,-24.642 18.481,0 26.695,9.583 26.695,9.583 l -4.791,6.16 c 0,0 -7.529,-8.214 -22.588,-8.214 -10.267,0 -20.535,4.791 -20.535,16.428 0,23.273 49.283,16.428 49.283,46.545 0,14.374 -12.321,24.642 -28.749,24.642 -21.904,0 -32.856,-13.005 -32.856,-13.005 l 5.476,-6.16 z"
     id="path10403"
     inkscape:connector-curvature="0" />
  <path
     d="m 818.653,130.738 c 26.011,0 46.545,20.535 46.545,46.545 0,26.695 -21.219,47.914 -46.545,47.914 -26.011,0 -46.545,-21.219 -46.545,-47.914 0,-26.011 20.535,-46.545 46.545,-46.545 z m 0,87.615 c 21.219,0 39.016,-17.797 39.016,-40.385 0,-22.588 -17.112,-39.016 -39.016,-39.016 -21.219,0 -39.016,17.112 -39.016,39.016 0,22.588 17.112,40.385 39.016,40.385 z"
     id="path10405"
     inkscape:connector-curvature="0" />
  <path
     d="m 941.177,140.321 -43.807,0 0,83.508 -7.529,0 0,-83.508 -11.636,0 0,-6.845 11.636,0 0,-3.422 c 0,-29.433 19.166,-33.54 28.749,-33.54 2.738,0 4.791,0.684 4.791,0.684 l 0,6.845 c 0,0 -1.369,-0.684 -4.107,-0.684 -7.529,0 -21.219,2.738 -21.219,26.011 l 0,4.107 51.337,0 0,90.353 -7.529,0 0,-83.508 z m -0.685,-43.123 8.898,0 0,13.005 -8.898,0 0,-13.005 z"
     id="path10407"
     inkscape:connector-curvature="0" />
  <path
     d="m 1025.369,168.385 6.16,0 0,-3.422 c 0,-19.85 -10.267,-26.695 -24.642,-26.695 -15.743,0 -26.011,8.898 -26.011,8.898 l -4.107,-6.16 c 0,0 10.952,-9.583 30.802,-9.583 20.535,0 32.171,11.636 32.171,34.225 l 0,58.182 -8.214,0 0,-11.636 c 0,-4.791 0.684,-8.214 0.684,-8.214 l -0.684,0 c 0,0 -8.214,21.904 -31.487,21.904 -14.374,0 -30.802,-8.214 -30.802,-26.011 0,-31.487 39.701,-31.487 56.128,-31.487 z m -24.641,49.968 c 19.85,0 30.802,-20.535 30.802,-38.332 l 0,-4.791 -5.476,0 c -15.059,0 -47.914,0 -47.914,23.273 -0.684,9.583 6.845,19.85 22.588,19.85 z"
     id="path10409"
     inkscape:connector-curvature="0" />
  <path
     d="m 1065.755,133.476 7.529,0 0,15.743 c 0,4.107 -0.684,7.529 -0.684,7.529 l 0.684,0 c 2.738,-8.214 15.743,-25.326 38.332,-25.326 23.273,0 29.433,13.69 29.433,34.909 l 0,56.813 -7.529,0 0,-54.759 c 0,-15.743 -2.053,-30.802 -21.904,-30.802 -17.112,0 -32.171,11.636 -36.278,28.749 -1.369,4.107 -1.369,8.214 -1.369,12.321 l 0,43.807 -8.214,0 0,-88.984 z"
     id="path10411"
     inkscape:connector-curvature="0" />
  <path
     d="m 1279.316,180.022 -53.39,0 -16.428,43.807 -8.214,0 47.23,-125.947 8.214,0 47.23,125.947 -8.214,0 -16.428,-43.807 z m -26.695,-73.925 c 0,0 -2.738,9.583 -4.791,15.059 l -19.166,51.337 47.914,0 -19.166,-51.337 c -1.369,-5.476 -4.107,-15.059 -4.791,-15.059 l 0,0 z"
     id="path10413"
     inkscape:connector-curvature="0" />
  <path
     d="m 1319.701,97.198 7.529,0 0,71.872 15.743,0 29.433,-35.594 9.583,0 -32.856,39.016 0,0.684 35.594,51.337 -9.583,0 -32.856,-47.914 -15.743,0 0,47.914 -7.529,0 0,-127.316 z"
     id="path10415"
     inkscape:connector-curvature="0" />
  <path
     d="m 1451.123,168.385 6.16,0 0,-3.422 c 0,-19.85 -10.267,-26.695 -24.642,-26.695 -15.743,0 -26.011,8.898 -26.011,8.898 l -4.107,-6.16 c 0,0 10.952,-9.583 30.802,-9.583 20.535,0 32.171,11.636 32.171,34.225 l 0,58.182 -7.529,0 0,-11.636 c 0,-4.791 0.684,-8.214 0.684,-8.214 l -0.684,0 c 0,0 -8.214,21.904 -31.487,21.904 -14.374,0 -30.802,-8.214 -30.802,-26.011 0,-31.487 39.701,-31.487 55.444,-31.487 z m -24.641,49.968 c 19.85,0 30.802,-20.535 30.802,-38.332 l 0,-4.791 -5.476,0 c -15.059,0 -47.914,0 -47.914,23.273 -0.684,9.583 6.845,19.85 22.588,19.85 z"
     id="path10417"
     inkscape:connector-curvature="0" />
  <path
     d="m 1494.246,140.321 -11.636,0 0,-6.845 11.636,0 0,-25.326 7.529,0 0,25.326 23.273,0 0,6.845 -23.273,0 0,49.283 c 0,23.957 14.374,26.695 21.219,26.695 2.738,0 4.107,-0.684 4.107,-0.684 l 0,6.845 c 0,0 -2.053,0.684 -4.791,0.684 -9.583,0 -28.749,-3.422 -28.749,-33.54 l 0,-49.283 z"
     id="path10419"
     inkscape:connector-curvature="0" />
  <path
     d="m 1581.861,130.738 c 24.642,0 36.963,19.166 36.963,41.07 0,2.053 -0.684,4.791 -0.684,4.791 l -72.556,0 c 0,26.011 17.797,41.07 38.332,41.07 17.112,0 28.064,-11.636 28.064,-11.636 l 4.107,6.16 c 0,0 -12.321,12.321 -32.171,12.321 -25.326,0 -46.545,-18.481 -46.545,-47.23 0.684,-29.433 21.219,-46.545 44.492,-46.545 z m 28.749,39.016 c -0.684,-21.904 -14.374,-32.171 -28.749,-32.171 -16.428,0 -32.171,10.952 -34.909,32.171 l 63.658,0 z"
     id="path10421"
     inkscape:connector-curvature="0" />
  <path
     d="m 1640.043,133.476 7.529,0 0,15.743 c 0,4.107 -0.684,7.529 -0.684,7.529 l 0.684,0 c 4.791,-13.69 20.535,-25.326 34.909,-25.326 17.797,0 26.695,8.214 28.749,24.642 l 0.684,0 c 4.791,-12.321 18.481,-24.642 34.225,-24.642 23.273,0 30.118,13.69 30.118,34.909 l 0,56.813 -7.529,0 0,-54.759 c 0,-17.112 -3.422,-30.802 -22.588,-30.802 -15.059,0 -28.064,13.005 -31.487,27.38 -1.369,4.107 -2.053,8.898 -2.053,13.69 l 0,43.807 -7.529,0 0,-54.759 c 0,-15.743 -2.053,-30.802 -21.904,-30.802 -15.743,0 -28.749,14.374 -32.856,28.749 -1.369,4.107 -1.369,8.214 -1.369,12.321 l 0,43.807 -7.529,0 0,-88.299 z"
     id="path10423"
     inkscape:connector-curvature="0" />
  <path
     d="m 1801.583,97.198 8.898,0 0,13.005 -8.898,0 0,-13.005 z m 0.685,36.278 7.529,0 0,90.353 -7.529,0 0,-90.353 z"
     id="path10425"
     inkscape:connector-curvature="0" />
  <path
     d="m 1886.46,168.385 6.16,0 0,-3.422 c 0,-19.85 -10.267,-26.695 -24.642,-26.695 -15.743,0 -26.011,8.898 -26.011,8.898 l -4.107,-6.16 c 0,0 10.952,-9.583 30.802,-9.583 20.535,0 32.171,11.636 32.171,34.225 l 0,58.182 -7.529,0 0,-11.636 c 0,-4.791 0.684,-8.214 0.684,-8.214 l -0.684,0 c 0,0 -8.214,21.904 -31.487,21.904 -14.374,0 -30.802,-8.214 -30.802,-26.011 -0.684,-31.487 39.701,-31.487 55.444,-31.487 z m -24.641,49.968 c 19.85,0 30.802,-20.535 30.802,-38.332 l 0,-4.791 -5.476,0 c -15.059,0 -47.914,0 -47.914,23.273 -0.684,9.583 6.845,19.85 22.588,19.85 z"
     id="path10427"
     inkscape:connector-curvature="0" />
  <path
     d="M 160.856,0 C 71.872,0 0,71.872 0,160.856 0,249.84 71.872,321.712 160.856,321.712 249.84,321.712 321.712,249.84 321.712,160.856 321.712,71.872 249.84,0 160.856,0 Z m 5.476,175.915 -49.968,0 0,54.759 -8.898,0 0,-62.289 58.866,0 0,7.529 z m 34.909,-77.348 -49.968,0 0,54.759 -8.214,0 0,-62.289 58.866,0 0,7.529 z"
     id="path10429"
     inkscape:connector-curvature="0" />
</svg>
