<?xml version="1.0" encoding="utf-8"?>
<!-- Generator: Adobe Illustrator 18.1.1, SVG Export Plug-In . SVG Version: 6.00 Build 0)  -->
<svg version="1.1" id="Layer_1" xmlns="http://www.w3.org/2000/svg" xmlns:xlink="http://www.w3.org/1999/xlink" x="0px" y="0px"
	 viewBox="0 0 238 43" enable-background="new 0 0 238 43" xml:space="preserve">
<g>
	<path d="M12.2,12.2h9.3v1.1h-8.2v7.7h7.1V22h-7.1v8.6h-1.1V12.2z"/>
	<path d="M24.4,12.2h1.3v1.9h-1.3V12.2z M24.5,17.5h1.1v13.2h-1.1V17.5z"/>
	<path d="M29.6,12.2h1.1v15.4c0,1.8,0.9,2.1,1.6,2.1c0.2,0,0.4,0,0.4,0v1c0,0-0.2,0.1-0.5,0.1c-0.8,0-2.6-0.3-2.6-2.8V12.2z"/>
	<path d="M41.1,17.1c3.8,0,6.8,3,6.8,6.8c0,3.9-3.1,7-6.8,7c-3.8,0-6.8-3.1-6.8-7C34.3,20.1,37.3,17.1,41.1,17.1z M41.1,29.9
		c3.1,0,5.7-2.6,5.7-5.9c0-3.3-2.5-5.7-5.7-5.7c-3.1,0-5.7,2.5-5.7,5.7C35.4,27.3,37.9,29.9,41.1,29.9z"/>
	<path d="M50.6,28.2c0,0,1.5,1.7,4.1,1.7c1.6,0,3-0.8,3-2.5c0-3.3-7.2-2.4-7.2-6.7c0-2.3,2-3.6,4.2-3.6c2.7,0,3.9,1.4,3.9,1.4
		l-0.7,0.9c0,0-1.1-1.2-3.3-1.2c-1.5,0-3,0.7-3,2.4c0,3.4,7.2,2.4,7.2,6.8c0,2.1-1.8,3.6-4.2,3.6c-3.2,0-4.8-1.9-4.8-1.9L50.6,28.2z
		"/>
	<path d="M67.8,17.1c3.8,0,6.8,3,6.8,6.8c0,3.9-3.1,7-6.8,7c-3.8,0-6.8-3.1-6.8-7C61,20.1,64.1,17.1,67.8,17.1z M67.8,29.9
		c3.1,0,5.7-2.6,5.7-5.9c0-3.3-2.5-5.7-5.7-5.7c-3.1,0-5.7,2.5-5.7,5.7C62.2,27.3,64.7,29.9,67.8,29.9z"/>
	<path d="M85.8,18.5h-6.4v12.2h-1.1V18.5h-1.7v-1h1.7v-0.5c0-4.3,2.8-4.9,4.2-4.9c0.4,0,0.7,0.1,0.7,0.1v1c0,0-0.2-0.1-0.6-0.1
		c-1.1,0-3.1,0.4-3.1,3.8v0.6h7.5v13.2h-1.1V18.5z M85.7,12.2H87v1.9h-1.3V12.2z"/>
	<path d="M98.1,22.6h0.9v-0.4c0-2.9-1.5-3.9-3.6-3.9c-2.3,0-3.8,1.3-3.8,1.3l-0.6-0.9c0,0,1.6-1.4,4.5-1.4c3,0,4.7,1.7,4.7,5v8.5
		h-1.1v-1.7c0-0.7,0.1-1.2,0.1-1.2H99c0,0-1.2,3.2-4.6,3.2c-2.1,0-4.5-1.2-4.5-3.8C89.9,22.6,95.7,22.6,98.1,22.6z M94.4,29.9
		c2.9,0,4.5-3,4.5-5.6v-0.7h-0.8c-2.2,0-7,0-7,3.4C91.1,28.4,92.2,29.9,94.4,29.9z"/>
	<path d="M104,17.5h1.1v2.3c0,0.6-0.1,1.1-0.1,1.1h0.1c0.4-1.2,2.3-3.7,5.6-3.7c3.4,0,4.3,2,4.3,5.1v8.3h-1.1v-8
		c0-2.3-0.3-4.5-3.2-4.5c-2.5,0-4.7,1.7-5.3,4.2c-0.2,0.6-0.2,1.2-0.2,1.8v6.4H104V17.5z"/>
	<path d="M135.2,24.3h-7.8l-2.4,6.4h-1.2l6.9-18.4h1.2l6.9,18.4h-1.2L135.2,24.3z M131.3,13.5c0,0-0.4,1.4-0.7,2.2l-2.8,7.5h7
		l-2.8-7.5C131.7,14.9,131.3,13.5,131.3,13.5L131.3,13.5z"/>
	<path d="M141.1,12.2h1.1v10.5h2.3l4.3-5.2h1.4l-4.8,5.7v0.1l5.2,7.5h-1.4l-4.8-7h-2.3v7h-1.1V12.2z"/>
	<path d="M160.3,22.6h0.9v-0.4c0-2.9-1.5-3.9-3.6-3.9c-2.3,0-3.8,1.3-3.8,1.3l-0.6-0.9c0,0,1.6-1.4,4.5-1.4c3,0,4.7,1.7,4.7,5v8.5
		h-1.1v-1.7c0-0.7,0.1-1.2,0.1-1.2h-0.1c0,0-1.2,3.2-4.6,3.2c-2.1,0-4.5-1.2-4.5-3.8C152.1,22.6,158,22.6,160.3,22.6z M156.7,29.9
		c2.9,0,4.5-3,4.5-5.6v-0.7h-0.8c-2.2,0-7,0-7,3.4C153.3,28.4,154.4,29.9,156.7,29.9z"/>
	<path d="M166.5,18.5h-1.7v-1h1.7v-3.7h1.1v3.7h3.4v1h-3.4v7.2c0,3.5,2.1,3.9,3.1,3.9c0.4,0,0.6-0.1,0.6-0.1v1c0,0-0.3,0.1-0.7,0.1
		c-1.4,0-4.2-0.5-4.2-4.9V18.5z"/>
	<path d="M179.3,17.1c3.6,0,5.4,2.8,5.4,6c0,0.3-0.1,0.7-0.1,0.7h-10.6c0,3.8,2.6,6,5.6,6c2.5,0,4.1-1.7,4.1-1.7l0.6,0.9
		c0,0-1.8,1.8-4.7,1.8c-3.7,0-6.8-2.7-6.8-6.9C172.9,19.6,176,17.1,179.3,17.1z M183.6,22.8c-0.1-3.2-2.1-4.7-4.2-4.7
		c-2.4,0-4.7,1.6-5.1,4.7H183.6z"/>
	<path d="M187.9,17.5h1.1v2.3c0,0.6-0.1,1.1-0.1,1.1h0.1c0.7-2,3-3.7,5.1-3.7c2.6,0,3.9,1.2,4.2,3.6h0.1c0.7-1.8,2.7-3.6,5-3.6
		c3.4,0,4.4,2,4.4,5.1v8.3h-1.1v-8c0-2.5-0.5-4.5-3.3-4.5c-2.2,0-4.1,1.9-4.6,4c-0.2,0.6-0.3,1.3-0.3,2v6.4h-1.1v-8
		c0-2.3-0.3-4.5-3.2-4.5c-2.3,0-4.2,2.1-4.8,4.2c-0.2,0.6-0.2,1.2-0.2,1.8v6.4h-1.1V17.5z"/>
	<path d="M211.5,12.2h1.3v1.9h-1.3V12.2z M211.6,17.5h1.1v13.2h-1.1V17.5z"/>
	<path d="M223.9,22.6h0.9v-0.4c0-2.9-1.5-3.9-3.6-3.9c-2.3,0-3.8,1.3-3.8,1.3l-0.6-0.9c0,0,1.6-1.4,4.5-1.4c3,0,4.7,1.7,4.7,5v8.5
		h-1.1v-1.7c0-0.7,0.1-1.2,0.1-1.2h-0.1c0,0-1.2,3.2-4.6,3.2c-2.1,0-4.5-1.2-4.5-3.8C215.7,22.6,221.5,22.6,223.9,22.6z M220.2,29.9
		c2.9,0,4.5-3,4.5-5.6v-0.7h-0.8c-2.2,0-7,0-7,3.4C216.9,28.4,218,29.9,220.2,29.9z"/>
</g>
</svg>
