<?xml version="1.0" encoding="UTF-8" standalone="no"?>
<!-- Generator: Adobe Illustrator 18.1.1, SVG Export Plug-In . SVG Version: 6.00 Build 0)  -->

<svg
   xmlns:dc="http://purl.org/dc/elements/1.1/"
   xmlns:cc="http://creativecommons.org/ns#"
   xmlns:rdf="http://www.w3.org/1999/02/22-rdf-syntax-ns#"
   xmlns:svg="http://www.w3.org/2000/svg"
   xmlns="http://www.w3.org/2000/svg"
   xmlns:sodipodi="http://sodipodi.sourceforge.net/DTD/sodipodi-0.dtd"
   xmlns:inkscape="http://www.inkscape.org/namespaces/inkscape"
   version="1.1"
   id="Layer_2"
   x="0px"
   y="0px"
   viewBox="0 0 1096.9792 673.23157"
   enable-background="new 0 0 1214.8 735"
   xml:space="preserve"
   inkscape:version="0.91 r13725"
   sodipodi:docname="smk-quote.svg"
   width="1096.9792"
   height="673.23157"><metadata
     id="metadata6749"><rdf:RDF><cc:Work
         rdf:about=""><dc:format>image/svg+xml</dc:format><dc:type
           rdf:resource="http://purl.org/dc/dcmitype/StillImage" /><dc:title></dc:title></cc:Work></rdf:RDF></metadata><defs
     id="defs6747" /><sodipodi:namedview
     pagecolor="#ffffff"
     bordercolor="#666666"
     borderopacity="1"
     objecttolerance="10"
     gridtolerance="10"
     guidetolerance="10"
     inkscape:pageopacity="0"
     inkscape:pageshadow="2"
     inkscape:window-width="956"
     inkscape:window-height="1037"
     id="namedview6745"
     showgrid="false"
     fit-margin-top="0"
     fit-margin-left="0"
     fit-margin-right="0"
     fit-margin-bottom="0"
     inkscape:zoom="0.31939413"
     inkscape:cx="-459.74925"
     inkscape:cy="336.7"
     inkscape:window-x="960"
     inkscape:window-y="20"
     inkscape:window-maximized="0"
     inkscape:current-layer="Layer_2" /><g
     id="g6643"
     style="fill:#000000"
     transform="translate(-58.990473,-30.968423)"><path
       d="m 881.3,543.2 -18.6,0 c -0.9,0 -1.6,-0.7 -1.5,-1.6 l 1.4,-128.3 c 0,-0.8 0.7,-1.5 1.5,-1.5 3.6,0 12.8,0 16.8,0 0.8,0 1.5,0.7 1.5,1.5 1.2,13.8 0.7,114.8 0.5,128.4 -0.1,0.8 -0.8,1.5 -1.6,1.5 z"
       id="path6645"
       style="fill:#000000"
       inkscape:connector-curvature="0" /><path
       d="m 305.3,682.9 -18.6,0 c -0.9,0 -1.6,-0.7 -1.5,-1.6 L 286.6,553 c 0,-0.8 0.7,-1.5 1.5,-1.5 3.6,0 12.8,0 16.8,0 0.8,0 1.5,0.7 1.5,1.5 1.2,13.8 0.7,114.8 0.5,128.4 0,0.8 -0.7,1.5 -1.6,1.5 z"
       id="path6647"
       style="fill:#000000"
       inkscape:connector-curvature="0" /><path
       d="m 571,682.9 -18.6,0 c -0.9,0 -1.6,-0.7 -1.5,-1.6 L 552.3,553 c 0,-0.8 0.7,-1.5 1.5,-1.5 3.6,0 12.8,0 16.8,0 0.8,0 1.5,0.7 1.5,1.5 1.2,13.8 0.7,114.8 0.5,128.4 -0.1,0.8 -0.8,1.5 -1.6,1.5 z"
       id="path6649"
       style="fill:#000000"
       inkscape:connector-curvature="0" /><path
       d="m 707.9,682.9 -18.6,0 c -0.9,0 -1.6,-0.7 -1.5,-1.6 L 689.2,553 c 0,-0.8 0.7,-1.5 1.5,-1.5 3.6,0 12.8,0 16.8,0 0.8,0 1.5,0.7 1.5,1.5 1.2,13.8 0.7,114.8 0.5,128.4 -0.1,0.8 -0.8,1.5 -1.6,1.5 z"
       id="path6651"
       style="fill:#000000"
       inkscape:connector-curvature="0" /><path
       d="m 79.1,538.6 -18.6,0 c -0.9,0 -1.6,-0.7 -1.5,-1.6 l 1.4,-128.3 c 0,-0.8 0.7,-1.5 1.5,-1.5 3.6,0 12.8,0 16.8,0 0.8,0 1.5,0.7 1.5,1.5 1.2,13.8 0.7,114.8 0.5,128.4 -0.1,0.8 -0.8,1.5 -1.6,1.5 z"
       id="path6653"
       style="fill:#000000"
       inkscape:connector-curvature="0" /><path
       d="m 387.5,571 -1.3,46.6 c 0,0.8 -0.7,1.5 -1.5,1.5 -7.3,0.4 -40.4,2.1 -40.5,-0.1 -0.1,-2.2 -0.4,-39.9 -0.5,-48 0,-0.8 -0.7,-1.5 -1.5,-1.5 l -13.5,0 c -0.8,0 -1.5,0.7 -1.5,1.5 l -1.4,128.3 c 0,0.9 0.7,1.6 1.5,1.6 l 16.7,0 c 0.9,0 1.6,-0.7 1.5,-1.6 l -1.3,-57.5 c 0,-0.9 0.7,-1.6 1.6,-1.6 l 40.2,0.4 c 0.8,0 1.5,0.7 1.5,1.5 l 0.4,57.2 c 0,0.8 0.7,1.5 1.5,1.5 l 16.3,0 c 0.9,0 1.5,-0.7 1.5,-1.5 l 0,-128.3 c 0,-0.9 -0.7,-1.5 -1.5,-1.5 l -16.7,0 c -0.8,0 -1.5,0.6 -1.5,1.5 z"
       id="path6655"
       style="fill:#000000"
       inkscape:connector-curvature="0" /><path
       d="m 369,70.1 -1.3,46.6 c 0,0.8 -0.7,1.5 -1.5,1.5 -7.3,0.4 -40.4,2.1 -40.5,-0.1 -0.1,-2.2 -0.4,-39.9 -0.5,-48 0,-0.8 -0.7,-1.5 -1.5,-1.5 l -13.5,0 c -0.8,0 -1.5,0.7 -1.5,1.5 l -1.4,128.3 c 0,0.9 0.7,1.6 1.5,1.6 l 16.7,0 c 0.9,0 1.6,-0.7 1.5,-1.6 l -1.3,-57.5 c 0,-0.9 0.7,-1.6 1.6,-1.6 l 40.2,0.4 c 0.8,0 1.5,0.7 1.5,1.5 l 0.4,57.2 c 0,0.8 0.7,1.5 1.5,1.5 l 16.3,0 c 0.9,0 1.5,-0.7 1.5,-1.5 l 0,-128.2 c 0,-0.9 -0.7,-1.5 -1.5,-1.5 l -16.8,0 c -0.7,-0.1 -1.4,0.6 -1.4,1.4 z"
       id="path6657"
       style="fill:#000000"
       inkscape:connector-curvature="0" /><path
       d="m 787.9,452.1 37.5,1.2 c 0.8,0 1.5,-0.6 1.5,-1.5 l 0,-15.4 c 0,-0.8 0,-1.7 -1.5,-2.5 -1.5,-0.9 -38.8,-0.4 -38.8,-0.4 0,0 -1.5,-0.5 -1.5,-1.5 0,-1 0,-25.8 0,-25.8 0,-0.8 0.7,-1.5 1.5,-1.5 l 54.8,-0.8 c 0.7,0 1.3,-0.5 1.4,-1.2 l 2.6,-15.6 c 0.1,-0.9 -0.5,-1.7 -1.5,-1.7 l -57.6,0 -4,0 -16.2,0 c -0.8,0 -1.5,0.7 -1.5,1.5 l 2.6,106.2 0.8,17.2 c 0,0.8 0.7,1.4 1.5,1.4 l 16.8,0 57.9,0 c 0.8,0 1.5,-0.7 1.5,-1.5 l 0,-18.2 c 0,-0.8 -0.7,-1.5 -1.5,-1.5 l -56.3,0.4 c -0.8,0 -1.5,-0.7 -1.5,-1.5 l 0,-35.9 c 0,-0.7 0.7,-1.4 1.5,-1.4 z"
       id="path6659"
       style="fill:#000000"
       inkscape:connector-curvature="0" /><path
       d="m 1049.8,520.6 c -0.2,1 0.4,2 1.5,2 l 17,0 c 0.7,0 1.3,-0.4 1.5,-1.1 l 8.1,-24.8 c 0.2,-0.6 0.8,-1.1 1.5,-1.1 l 46.3,0 c 0.7,0 1.3,0.4 1.5,1.1 l 8.1,24.7 c 0.2,0.6 0.8,1.1 1.5,1.1 l 17.6,0 c 1.1,0 1.8,-1 1.5,-2 l -42.2,-128.3 c -0.2,-0.6 -0.8,-1.1 -1.5,-1.1 l -18.8,0 c -0.6,0 -1.1,0.3 -1.4,0.9 l -0.2,0.5 c -0.1,0 -39.2,112.1 -42,128.1 z m 35.9,-42.7 c -1.1,0.1 -1.9,-0.9 -1.6,-2 2.9,-10.3 15.6,-53.9 16.4,-56.4 1,-2.8 5.6,0 6,1.8 l 13.4,53.4 c 0.2,0.9 -0.4,1.9 -1.4,1.9 l -32.8,1.3 z"
       id="path6661"
       style="fill:#000000"
       inkscape:connector-curvature="0" /><path
       d="m 506.5,77.9 c 3.3,1.9 3.6,-0.1 6,4.3 6.2,11.4 28.7,94.4 28.7,94.4 0.5,1.4 2.7,1.3 3.4,0 4.4,-7.9 28.7,-97.4 28.7,-97.4 0.2,-0.6 0.8,-1.1 1.5,-1.1 l 19.4,0 c 1.1,0 1.8,1 1.5,2 0,0 -5.2,15.4 -4.1,12.4 1,-3.1 -27,86.1 -30.4,90.9 -3.4,4.8 -8.4,25.1 -8.4,25.1 -0.2,0.6 -0.8,1.1 -1.5,1.1 l -17.9,0 c -0.7,0 -1.3,-0.4 -1.5,-1.1 l -42.3,-127 c -0.3,-1 0.4,-3.4 1.5,-3.4 0,0 12.6,-1.8 15.4,-0.2 z"
       id="path6663"
       style="fill:#000000"
       inkscape:connector-curvature="0" /><path
       d="m 369.7,402.5 c -2.1,-1.9 -4.3,-3.5 -6.7,-5 -5.4,-3.2 -11.7,-5.3 -18.3,-5.7 l -6,0 c -6.7,0.5 -13,2.5 -18.4,5.8 -5,3 -9.3,6.9 -12.6,11.6 -4.3,6 -7,13.2 -7.6,21 l 0,0 c -0.1,1.1 -0.1,2.1 -0.1,3.2 0,1.1 0,2.2 0.1,3.2 l 0,0 0.9,44.4 0,6.5 c 0.5,6.8 1.8,13.2 5.2,18.7 3.5,5.7 8.4,10.5 14.2,14 5.4,3.2 11.6,5.3 18.3,5.8 0,0 0.1,0 0.1,0 l 0.2,0 c 0.3,0 0.6,0 0.9,0.1 l 3.8,0 c 0.3,0 0.6,0 0.9,-0.1 l 0.2,0 c 0,0 0.1,0 0.1,0 6.6,-0.5 12.8,-2.5 18.2,-5.7 1.4,-0.8 2.8,-1.8 4.1,-2.8 9,-6.9 11.5,-18 12.7,-29.9 l 1.7,-58.1 c -1.2,-10.7 -4.4,-20.2 -11.9,-27 z m -6.7,28.2 0,4.4 0,47.7 0,3.9 c -1,10.6 -4.7,18.9 -20.3,19.9 l -1.6,-0.5 c -11.5,-1.2 -20.3,-9.4 -20.8,-20.4 l 0,-1.9 -1,-53.8 c -1.4,-15.2 10.6,-18.5 22.4,-18.5 11.1,0 20.2,8.5 21.3,19.2 z"
       id="path6665"
       style="fill:#000000"
       inkscape:connector-curvature="0" /><path
       d="m 437.5,681.2 c 0.8,0 1.5,-0.7 1.5,-1.5 0.2,-5.9 1,-27.5 1.3,-37.3 0.4,-10.6 -0.3,-16.3 -0.4,-17 0,-0.1 0,-0.1 0,-0.2 l -0.8,-39.7 c 0,-1.7 2.4,-2.2 3,-0.6 l 19.9,56.5 c 0.2,0.6 0.8,1 1.5,1 l 22,-0.4 c 0.7,0 1.3,-0.5 1.5,-1.1 l 15.1,-52.4 c 0.5,-1.7 3,-1.4 3,0.4 l 0,53.5 0,37.2 c 0,0.9 0.7,1.5 1.5,1.5 l 19.5,0 c 0.9,0 1.6,-0.7 1.5,-1.6 l -0.4,-37.2 -0.9,-91.1 c 0,-0.8 -0.7,-1.5 -1.5,-1.5 l -7.7,0 -9.3,0 -10.5,0 c -0.7,0 -1.2,0.4 -1.5,1 l -22.6,62.1 c -0.5,1.4 -2.5,1.3 -2.9,-0.1 l -18,-61.7 c -0.2,-0.7 -0.8,-1.1 -1.5,-1.1 l -10.4,0 -9.3,0 -9,0 c -0.9,0 -1.5,0.7 -1.5,1.5 l 0,91 0,37.3 c 0,0.9 0.7,1.5 1.5,1.5 l 15.4,0 z"
       id="path6667"
       style="fill:#000000"
       inkscape:connector-curvature="0" /><path
       d="m 628.7,227.3 -19.5,0 c -0.9,0 -1.6,0.7 -1.5,1.6 l 3.3,96.5 c 0,1.8 -2.5,2.2 -3,0.5 l -30.1,-95.6 c -0.1,-0.5 -0.5,-0.8 -1,-1 -1.8,-0.6 -6.5,-2.1 -11.9,-2.1 -6.9,0 -8.2,0 -8.2,0 l -7.5,0 c -0.9,0 -1.5,0.7 -1.5,1.5 l 0,128.4 c 0,0.8 0.7,1.5 1.5,1.5 l 14,0.4 c 0.9,0 1.6,-0.7 1.6,-1.5 l 0.4,-94.2 c 0,-0.1 0,-0.3 0.1,-0.4 0.7,-2.3 2.4,-0.2 2.6,0.5 1.4,3.8 3,9.9 3.6,13 1.3,5.8 6.3,21.1 7.5,25.1 2.2,7.5 12.3,33.5 12.3,33.5 l 8.2,22.6 c 0.2,0.6 0.8,1 1.4,1 l 19.8,0 0,0 7.9,0 c 0.9,0 1.5,-0.7 1.5,-1.5 L 632,229.6 c 0.6,-2.3 -2.4,-2.3 -3.3,-2.3 z"
       id="path6669"
       style="fill:#000000"
       inkscape:connector-curvature="0" /><path
       d="m 744.7,397.9 -19.5,0 c -0.9,0 -1.6,0.7 -1.5,1.6 L 727,496 c 0,1.8 -2.5,2.2 -3,0.5 L 693.8,401 c -0.1,-0.5 -0.5,-0.8 -1,-1 -1.8,-0.6 -6.5,-2.1 -11.9,-2.1 -6.9,0 -8.2,0 -8.2,0 l -7.5,0 c -0.9,0 -1.5,0.7 -1.5,1.5 l 0,128.4 c 0,0.8 0.7,1.5 1.5,1.5 l 14,0.4 c 0.9,0 1.6,-0.7 1.6,-1.5 l 0.4,-94.2 c 0,-0.1 0,-0.3 0.1,-0.4 0.7,-2.3 2.4,-0.2 2.6,0.5 1.4,3.8 3,9.9 3.6,13 1.3,5.8 6.3,21.1 7.5,25.1 2.2,7.5 12.3,33.5 12.3,33.5 l 8.2,22.6 c 0.2,0.6 0.8,1 1.4,1 l 19.8,0 0,0 7.9,0 c 0.9,0 1.5,-0.7 1.5,-1.5 l 1.8,-127.5 c 0.7,-2.4 -2.3,-2.4 -3.2,-2.4 z"
       id="path6671"
       style="fill:#000000"
       inkscape:connector-curvature="0" /><path
       d="m 190.4,393 -19.5,0 c -0.9,0 -1.6,0.7 -1.5,1.6 l 3.3,96.5 c 0,1.8 -2.5,2.2 -3,0.5 L 139.5,396 c -0.1,-0.5 -0.5,-0.8 -1,-1 -1.8,-0.6 -6.5,-2.1 -11.9,-2.1 -6.9,0 -8.2,0 -8.2,0 l -7.4,0 c -0.9,0 -1.5,0.7 -1.5,1.5 l 0,128.4 c 0,0.8 0.7,1.5 1.5,1.5 l 14,0.4 c 0.9,0 1.6,-0.7 1.6,-1.5 L 127,429 c 0,-0.1 0,-0.3 0.1,-0.4 0.7,-2.3 2.4,-0.2 2.6,0.5 1.4,3.8 3,9.9 3.6,13 1.3,5.8 6.3,21.1 7.5,25.1 2.2,7.5 12.3,33.5 12.3,33.5 l 8.2,22.6 c 0.2,0.6 0.8,1 1.4,1 l 19.8,0 0,0 7.9,0 c 0.9,0 1.5,-0.7 1.5,-1.5 l 1.8,-127.5 c 0.6,-2.3 -2.4,-2.3 -3.3,-2.3 z"
       id="path6673"
       style="fill:#000000"
       inkscape:connector-curvature="0" /><path
       d="m 285.6,378.4 -19.5,0 c -0.9,0 -1.6,0.7 -1.5,1.6 l 3.3,96.5 c 0,1.8 -2.5,2.2 -3,0.5 l -30.1,-95.6 c -0.1,-0.5 -0.5,-0.8 -1,-1 -1.8,-0.6 -6.5,-2.1 -11.9,-2.1 -6.9,0 -8.2,0 -8.2,0 l -7.5,0 c -0.9,0 -1.5,0.7 -1.5,1.5 l 0,128.4 c 0,0.8 0.7,1.5 1.5,1.5 l 14,0.4 c 0.9,0 1.6,-0.7 1.6,-1.5 l 0.4,-94.2 c 0,-0.1 0,-0.3 0.1,-0.4 0.7,-2.3 2.4,-0.2 2.6,0.5 1.4,3.8 3,9.9 3.6,13 1.3,5.8 6.3,21.1 7.5,25.1 2.2,7.5 12.3,33.5 12.3,33.5 l 8.2,22.6 c 0.2,0.6 0.8,1 1.4,1 l 19.8,0 0,0 7.9,0 c 0.9,0 1.5,-0.7 1.5,-1.5 l 1.8,-127.5 c 0.5,-2.3 -2.5,-2.3 -3.3,-2.3 z"
       id="path6675"
       style="fill:#000000"
       inkscape:connector-curvature="0" /><path
       d="m 625.4,424.7 c -0.5,5.6 0.8,46.7 0.8,46.7 l 0,4.8 c 0,0.1 0,0.1 0,0.2 -1,10.5 -9.6,17.9 -20.3,18.4 l -2,0 c -13.5,-0.6 -17.3,-6.1 -20.8,-17.9 0,-0.1 0,-0.2 -0.1,-0.3 l -0.4,-4.1 c 0,-0.1 0,-0.1 0,-0.2 l 0.9,-50.8 c 0,-0.6 0.7,-30 0.9,-36.9 0,-0.8 -0.6,-1.4 -1.4,-1.4 l -18.6,0 c -0.8,0 -1.4,0.6 -1.4,1.3 -0.2,5.3 -0.7,24.4 -0.9,27.5 -0.1,2.2 0.2,14.3 0.3,15.5 0,0 0,0.1 0,0.1 l 0.2,5.4 0.5,24.5 c 0,0.4 0,0.9 0,1.3 l 0.2,17.2 c 0,0 0,0.1 0,0.1 0.5,6.8 2.7,13.1 6.1,18.6 3.5,5.7 7.2,11.2 14.2,14 5.9,2.3 11.6,5.3 18.3,5.8 0,0 0.1,0 0.1,0 l 0.2,0 c 0.3,0 0.6,0 0.9,0.1 l 3.8,0 c 0.3,0 0.6,0 0.9,-0.1 l 0.2,0 c 0,0 0.1,0 0.1,0 6.6,-0.5 12.8,-2.5 18.2,-5.7 1.4,-0.8 2.8,-1.8 4.1,-2.8 9,-6.9 16.7,-19.7 16.2,-34.7 l -2.3,-86.8 c 0,-0.8 -0.6,-1.4 -1.4,-1.4 l -16.6,0 c -0.8,0 -1.4,0.6 -1.4,1.4 0.1,6.9 1,35.3 0.5,40.2 z"
       id="path6677"
       style="fill:#000000"
       inkscape:connector-curvature="0" /><path
       d="m 436.6,303.6 0,0 c 0.1,-2.9 -0.1,-5.6 -0.7,-8.3 -0.6,-3.2 -1.7,-6.4 -3.1,-9.4 -0.5,-1.1 -1.8,-3.8 -4.1,-6.7 -3.2,-4.1 -6.5,-6.3 -9.6,-8.4 l -0.1,0 c -1.3,-0.9 -4.9,-3.1 -9.8,-5.3 -1.9,-0.8 -4.5,-1.7 -9.6,-3.5 -1,-0.3 -1.8,-0.6 -2.5,-0.9 -2.1,-0.7 -3.2,-1.1 -5.2,-1.9 -0.3,-0.1 -3.1,-1.3 -6.6,-3.2 -3.1,-1.7 -4.6,-2.1 -5.6,-3.3 -1.5,-1.8 -1.6,-5.4 -1.6,-5.4 -1.1,-13.9 8.1,-18.5 18.1,-18.8 4.5,-0.1 8.9,1.4 12.4,4.3 2.5,2.1 3.5,2.9 4.6,6 l 0,0 c 0.5,1.3 1.8,2.2 3.3,2.2 l 15.3,0 c 1.4,0 2.5,-1.3 2.2,-2.7 l -0.2,-1.1 c -1.7,-9.3 -4.5,-14.7 -11.2,-20.4 -2,-1.7 -4.2,-3.2 -6.5,-4.5 -5.4,-3 -11.5,-4.7 -17.6,-4.9 l 0,0 -5.6,0.2 -0.1,0 c -6.1,0.6 -12.1,2.7 -17.3,6.1 -4.7,3 -8.1,7.3 -11.2,11.9 -4,5.9 -6.5,9.7 -6.8,16.8 l -0.3,2.9 c 0,1 -0.1,2.1 0,3.1 0,0.3 0,0.5 0,0.8 l 0.1,1.4 0.8,2.8 c 0,0 0,0.1 0,0.1 0.8,4 2,6.8 6.5,11.9 2.1,2.3 4.2,3.8 6.2,5.3 l 0.2,0.1 c 4.9,3.4 9.1,5.2 13.3,7 1.8,0.7 2.7,1.1 3.9,1.5 1.4,0.5 0.5,-0.1 4.4,1.4 2.7,1.1 7.7,1.4 10.4,2.9 3.1,1.7 5.5,2.8 6.9,4.1 0.9,0.9 2.6,2.5 3.9,5.3 1.2,2.5 1.4,4.7 1.6,5.8 0.1,0.9 0.2,1.9 0.1,2.8 l -0.1,2.3 0,-1.9 c -1,9.9 -9,20.1 -19,20.9 0,0 -0.1,0 -0.1,0 l -2.9,0.1 c -9.9,-0.1 -13.5,-4.7 -18.3,-13.1 l -1.4,-3.7 c -0.2,-0.6 -0.8,-1 -1.4,-1 l -17.6,0 c -0.9,0 -1.7,0.8 -1.5,1.8 l 0.5,3.2 c 0.8,6.9 1.8,9.9 6.1,14.6 4.9,5.4 8.8,10.3 14.7,13.6 5.7,3.1 12.1,4.9 18.5,5.2 l 0.2,0 0.2,0 c 0.3,0 0.6,0 0.9,0 l 0,0 3.7,-0.1 0,0 c 0.3,0 0.6,-0.1 0.9,-0.1 l 0.2,0 0.2,0 c 6.5,-0.7 12,-2.9 17.6,-6.4 1.4,-0.9 4,-3.6 5.3,-4.6 9,-7.4 13.9,-16.4 14.6,-28 l 0,0 -0.2,-0.8 z"
       id="path6679"
       style="fill:#000000"
       inkscape:connector-curvature="0" /><path
       d="m 980.4,475.7 0,0 c 0.1,-2.9 -0.1,-5.6 -0.7,-8.3 -0.6,-3.2 -1.7,-6.4 -3.1,-9.4 -0.5,-1.1 -1.8,-3.8 -4.1,-6.7 -3.2,-4.1 -6.5,-6.3 -9.6,-8.4 l -0.1,0 c -1.3,-0.9 -4.9,-3.1 -9.8,-5.3 -1.9,-0.8 -4.5,-1.7 -9.6,-3.5 -1,-0.3 -1.8,-0.6 -2.5,-0.9 -2.1,-0.7 -3.2,-1.1 -5.2,-1.9 -0.3,-0.1 -3.1,-1.3 -6.6,-3.2 -3.1,-1.7 -4.6,-2.1 -5.6,-3.3 -1.5,-1.8 -1.6,-5.4 -1.6,-5.4 -1.1,-13.9 8.1,-18.5 18.1,-18.8 4.5,-0.1 8.9,1.4 12.4,4.3 2.5,2.1 3.5,2.9 4.6,6 l 0,0 c 0.5,1.3 1.8,2.2 3.3,2.2 l 15.3,0 c 1.4,0 2.5,-1.3 2.2,-2.7 l -0.2,-1.1 c -1.7,-9.3 -4.5,-14.7 -11.2,-20.4 -2,-1.7 -4.2,-3.2 -6.5,-4.5 -5.4,-3 -11.5,-4.7 -17.6,-4.9 l 0,0 -5.6,0.2 -0.1,0 c -6.1,0.6 -12.1,2.7 -17.3,6.1 -4.7,3 -8.1,7.3 -11.2,11.9 -4,5.9 -6.5,9.7 -6.8,16.8 l -0.3,2.9 c 0,1 -0.1,2.1 0,3.1 0,0.3 0,0.5 0,0.8 l 0.1,1.4 0.8,2.8 c 0,0 0,0.1 0,0.1 0.8,4 2,6.8 6.5,11.9 2.1,2.3 4.2,3.8 6.2,5.3 l 0.2,0.1 c 4.9,3.4 9.1,5.2 13.3,7 1.8,0.7 2.7,1.1 3.9,1.5 1.4,0.5 0.5,-0.1 4.4,1.4 2.7,1.1 7.7,1.4 10.4,2.9 3.1,1.7 5.5,2.8 6.9,4.1 0.9,0.9 2.6,2.5 3.9,5.3 1.2,2.5 1.4,4.7 1.6,5.8 0.1,0.9 0.2,1.9 0.1,2.8 l -0.1,2.3 0,-1.9 c -1,9.9 -9,20.1 -19,20.9 0,0 -0.1,0 -0.1,0 l -2.9,0.1 C 927.3,495 923.7,490.4 918.9,482 l -1.4,-3.7 c -0.2,-0.6 -0.8,-1 -1.4,-1 l -17.6,0 c -0.9,0 -1.7,0.8 -1.5,1.8 l 0.5,3.2 c 0.8,6.9 1.8,9.9 6.1,14.6 4.9,5.4 8.8,10.3 14.7,13.6 5.7,3.1 12.1,4.9 18.5,5.2 l 0.2,0 0.2,0 c 0.3,0 0.6,0 0.9,0 l 0,0 3.7,-0.1 0,0 c 0.3,0 0.6,-0.1 0.9,-0.1 l 0.2,0 0.2,0 c 6.5,-0.7 12,-2.9 17.6,-6.4 1.4,-0.9 4,-3.6 5.3,-4.6 9,-7.4 13.9,-16.4 14.6,-28 l 0,0 -0.2,-0.8 z"
       id="path6681"
       style="fill:#000000"
       inkscape:connector-curvature="0" /><path
       d="m 470.8,474.5 0,0 c 0.1,-2.9 -0.1,-5.6 -0.7,-8.3 -0.6,-3.2 -1.7,-6.4 -3.1,-9.4 -0.5,-1.1 -1.8,-3.8 -4.1,-6.7 -3.2,-4.1 -6.5,-6.3 -9.6,-8.4 l -0.1,0 c -1.3,-0.9 -4.9,-3.1 -9.8,-5.3 -1.9,-0.8 -4.5,-1.7 -9.6,-3.5 -1,-0.3 -1.8,-0.6 -2.5,-0.9 -2.1,-0.7 -3.2,-1.1 -5.2,-1.9 -0.3,-0.1 -3.1,-1.3 -6.6,-3.2 -3.1,-1.7 -4.6,-2.1 -5.6,-3.3 -1.5,-1.8 -1.6,-5.4 -1.6,-5.4 -1.1,-13.9 8.1,-18.5 18.1,-18.8 4.5,-0.1 8.9,1.4 12.4,4.3 2.5,2.1 3.5,2.9 4.6,6 l 0,0 c 0.5,1.3 1.8,2.2 3.3,2.2 l 15.3,0 c 1.4,0 2.5,-1.3 2.2,-2.7 l -0.2,-1.1 c -1.7,-9.3 -4.5,-14.7 -11.2,-20.4 -2,-1.7 -4.2,-3.2 -6.5,-4.5 -5.4,-3 -11.5,-4.7 -17.6,-4.9 l 0,0 -5.6,0.2 -0.1,0 c -6.1,0.6 -12.1,2.7 -17.3,6.1 -4.7,3 -8.1,7.3 -11.2,11.9 -4,5.9 -6.5,9.7 -6.8,16.8 l -0.3,2.9 c 0,1 -0.1,2.1 0,3.1 0,0.3 0,0.5 0,0.8 l 0.1,1.4 0.8,2.8 c 0,0 0,0.1 0,0.1 0.8,4 2,6.8 6.5,11.9 2.1,2.3 4.2,3.8 6.2,5.3 l 0.2,0.1 c 4.9,3.4 9.1,5.2 13.3,7 1.8,0.7 2.7,1.1 3.9,1.5 1.4,0.5 0.5,-0.1 4.4,1.4 2.7,1.1 7.7,1.4 10.4,2.9 3.1,1.7 5.5,2.8 6.9,4.1 0.9,0.9 2.6,2.5 3.9,5.3 1.2,2.5 1.4,4.7 1.6,5.8 0.1,0.9 0.2,1.9 0.1,2.8 l -0.1,2.3 0,-1.9 c -1,9.9 -9,20.1 -19,20.9 0,0 -0.1,0 -0.1,0 l -2.9,0.1 c -9.9,-0.1 -13.5,-4.7 -18.3,-13.1 l -1.4,-3.7 c -0.2,-0.6 -0.8,-1 -1.4,-1 l -17.6,0 c -0.9,0 -1.7,0.8 -1.5,1.8 l 0.5,3.2 c 0.8,6.9 1.8,9.9 6.1,14.6 4.9,5.4 8.8,10.3 14.7,13.6 5.7,3.1 12.1,4.9 18.5,5.2 l 0.2,0 0.2,0 c 0.3,0 0.6,0 0.9,0 l 0,0 3.7,-0.1 0,0 c 0.3,0 0.6,-0.1 0.9,-0.1 l 0.2,0 0.2,0 c 6.5,-0.7 12,-2.9 17.6,-6.4 1.4,-0.9 4,-3.6 5.3,-4.6 9,-7.4 13.9,-16.4 14.6,-28 l 0,0 -0.2,-0.8 z"
       id="path6683"
       style="fill:#000000"
       inkscape:connector-curvature="0" /><path
       d="m 671.8,656.9 0,0 c 0.1,-2.9 -0.1,-5.6 -0.7,-8.3 -0.6,-3.2 -1.7,-6.4 -3.1,-9.4 -0.5,-1.1 -1.8,-3.8 -4.1,-6.7 -3.2,-4.1 -6.5,-6.3 -9.6,-8.4 l -0.1,0 c -1.3,-0.9 -4.9,-3.1 -9.8,-5.3 -1.9,-0.8 -4.5,-1.7 -9.6,-3.5 -1,-0.3 -1.8,-0.6 -2.5,-0.9 -2.1,-0.7 -3.2,-1.1 -5.2,-1.9 -0.3,-0.1 -3.1,-1.3 -6.6,-3.2 -3.1,-1.7 -4.6,-2.1 -5.6,-3.3 -1.5,-1.8 -1.6,-5.4 -1.6,-5.4 -1.1,-13.9 8.1,-18.5 18.1,-18.8 4.5,-0.1 8.9,1.4 12.4,4.3 2.5,2.1 3.5,2.9 4.6,6 l 0,0 c 0.5,1.3 1.8,2.2 3.3,2.2 l 15.3,0 c 1.4,0 2.5,-1.3 2.2,-2.7 l -0.2,-1.1 c -1.7,-9.3 -4.5,-14.7 -11.2,-20.4 -2,-1.7 -4.2,-3.2 -6.5,-4.5 -5.4,-3 -11.5,-4.7 -17.6,-4.9 l 0,0 -5.6,0.2 -0.1,0 c -6.1,0.6 -12.1,2.7 -17.3,6.1 -4.7,3 -8.1,7.3 -11.2,11.9 -4,5.9 -6.5,9.7 -6.8,16.8 l -0.3,2.9 c 0,1 -0.1,2.1 0,3.1 0,0.3 0,0.5 0,0.8 l 0.1,1.4 0.8,2.8 c 0,0 0,0.1 0,0.1 0.8,4 2,6.8 6.5,11.9 2.1,2.3 4.2,3.8 6.2,5.2 l 0.2,0.1 c 4.9,3.4 9.1,5.2 13.3,7 1.8,0.7 2.7,1.1 3.9,1.5 1.4,0.5 0.5,-0.1 4.4,1.4 2.7,1.1 7.7,1.4 10.4,2.9 3.1,1.7 5.5,2.8 6.9,4.1 0.9,0.9 2.6,2.5 3.9,5.3 1.2,2.5 1.4,4.7 1.6,5.8 0.1,0.9 0.2,1.9 0.1,2.8 l -0.1,2.3 0,-1.9 c -1,9.9 -9,20.1 -19,20.9 0,0 -0.1,0 -0.1,0 l -2.9,0.1 c -9.9,-0.1 -13.5,-4.7 -18.3,-13.1 l -1.4,-3.7 c -0.2,-0.6 -0.8,-1 -1.4,-1 l -17.6,0 c -0.9,0 -1.7,0.8 -1.5,1.8 l 0.5,3.2 c 0.8,6.9 1.8,9.9 6.1,14.6 4.9,5.4 8.8,10.3 14.7,13.6 5.7,3.1 12.1,4.9 18.5,5.2 l 0.2,0 0.2,0 c 0.3,0 0.6,0 0.9,0 l 0,0 3.7,-0.1 0,0 c 0.3,0 0.6,-0.1 0.9,-0.1 l 0.2,0 0.2,0 c 6.5,-0.7 12,-2.9 17.6,-6.4 1.4,-0.9 4,-3.6 5.3,-4.6 9,-7.4 13.9,-16.4 14.6,-28 l 0,0 -0.2,-0.7 z"
       id="path6685"
       style="fill:#000000"
       inkscape:connector-curvature="0" /><path
       d="m 804.5,645.4 0,0 c 0.1,-2.9 -0.1,-5.6 -0.7,-8.3 -0.6,-3.2 -1.7,-6.4 -3.1,-9.4 -0.5,-1.1 -1.8,-3.8 -4.1,-6.7 -3.2,-4.1 -6.5,-6.3 -9.6,-8.4 l -0.1,0 c -1.3,-0.9 -4.9,-3.1 -9.8,-5.3 -1.9,-0.8 -4.5,-1.7 -9.6,-3.5 -1,-0.3 -1.8,-0.6 -2.5,-0.9 -2.1,-0.7 -3.2,-1.1 -5.2,-1.9 -0.3,-0.1 -3.1,-1.3 -6.6,-3.2 -3.1,-1.7 -4.6,-2.1 -5.6,-3.3 -1.5,-1.8 -1.6,-5.4 -1.6,-5.4 -1.1,-13.9 8.1,-18.5 18.1,-18.8 4.5,-0.1 8.9,1.4 12.4,4.3 2.5,2.1 3.5,2.9 4.6,6 l 0,0 c 0.5,1.3 1.8,2.2 3.3,2.2 l 15.3,0 c 1.4,0 2.5,-1.3 2.2,-2.7 l -0.2,-1.1 c -1.7,-9.3 -4.5,-14.7 -11.2,-20.4 -2,-1.7 -4.2,-3.2 -6.5,-4.5 -5.4,-3 -11.5,-4.7 -17.6,-4.9 l 0,0 -5.6,0.2 -0.1,0 c -6.1,0.6 -12.1,2.7 -17.3,6.1 -4.7,3 -8.1,7.3 -11.2,11.9 -4,5.9 -6.5,9.7 -6.8,16.8 l -0.3,2.9 c 0,1 -0.1,2.1 0,3.1 0,0.3 0,0.5 0,0.8 l 0.1,1.4 0.8,2.8 c 0,0 0,0.1 0,0.1 0.8,4 2,6.8 6.5,11.9 2.1,2.3 4.2,3.8 6.2,5.3 l 0.2,0.1 c 4.9,3.4 9.1,5.2 13.3,7 1.8,0.7 2.7,1.1 3.9,1.5 1.4,0.5 0.5,-0.1 4.4,1.4 2.7,1.1 7.7,1.4 10.4,2.9 3.1,1.7 5.5,2.8 6.9,4.1 0.9,0.9 2.6,2.5 3.9,5.3 1.2,2.5 1.4,4.7 1.6,5.8 0.1,0.9 0.2,1.9 0.1,2.8 l -0.1,2.3 0,-1.9 c -1,9.9 -9,20.1 -19,20.9 0,0 -0.1,0 -0.1,0 l -2.9,0.1 c -9.9,-0.1 -13.5,-4.7 -18.3,-13.1 l -1.4,-3.7 c -0.2,-0.6 -0.8,-1 -1.4,-1 l -17.6,0 c -0.9,0 -1.7,0.8 -1.5,1.8 l 0.5,3.2 c 0.8,6.9 1.8,9.9 6.1,14.6 4.9,5.4 8.8,10.3 14.7,13.6 5.7,3.1 12.1,4.9 18.5,5.2 l 0.2,0 0.2,0 c 0.3,0 0.6,0 0.9,0 l 0,0 3.7,-0.1 0,0 c 0.3,0 0.6,-0.1 0.9,-0.1 l 0.2,0 0.2,0 c 6.5,-0.7 12,-2.9 17.6,-6.4 1.4,-0.9 4,-3.6 5.3,-4.6 9,-7.4 13.9,-16.4 14.6,-28 l 0,0 -0.2,-0.8 z"
       id="path6687"
       style="fill:#000000"
       inkscape:connector-curvature="0" /><path
       d="m 722.4,245.6 c 0,-0.9 -0.7,-1.5 -1.5,-1.5 l -18.6,0 c -0.1,0 -4.1,-0.2 -4.2,-0.1 l -6.4,0.1 c -0.1,0 -0.2,0 -0.3,0 l -3.3,-0.2 c -0.4,0 -11.3,0.1 -12.1,0.2 -0.1,0 -0.1,0 -0.2,0 l -4.2,0 -27.6,0 c -1.8,0 -3.3,1.5 -3.3,3.3 l 0,12.8 c 0,1.8 1.5,3.3 3.3,3.3 l 24.4,0 c 1.8,0 3.3,1.5 3.3,3.3 l 0,9.9 c -0.7,73.6 -1.9,59 0,84.2 l 0,11.5 c 0,1.8 1.5,3.3 3.3,3.3 l 13.3,0 c 1.8,0 3.3,-1.5 3.3,-3.3 l 0,-107.5 c 0,-0.9 0.7,-1.5 1.5,-1.5 0,0 0.9,-0.3 3.7,0 1.9,1 18.5,0.1 19.5,0 0,0 0.1,0 0.1,0 l 2.8,0 c 1.8,0 3.3,-1.5 3.3,-3.3 l 0,-14.5 z"
       id="path6689"
       style="fill:#000000"
       inkscape:connector-curvature="0" /><path
       d="m 553.4,407.8 c 0,-0.9 -0.7,-1.5 -1.5,-1.5 l -18.6,0 c -0.1,0 -4.1,-0.2 -4.2,-0.1 l -6.4,0.1 c -0.1,0 -0.2,0 -0.3,0 l -3.3,-0.2 c -0.4,0 -11.3,0.1 -12.1,0.2 -0.1,0 -0.1,0 -0.2,0 l -4.2,0 -27.6,0 c -1.8,0 -3.3,1.5 -3.3,3.3 l 0,12.8 c 0,1.8 1.5,3.3 3.3,3.3 l 24.4,0 c 1.8,0 3.3,1.5 3.3,3.3 l 0,9.9 c -0.7,73.6 -1.9,59 0,84.2 l 0,11.5 c 0,1.8 1.5,3.3 3.3,3.3 l 13.3,0 c 1.8,0 3.3,-1.5 3.3,-3.3 l 0,-107.5 c 0,-0.9 0.7,-1.5 1.5,-1.5 0,0 0.9,-0.3 3.7,0 1.9,1 18.5,0.1 19.5,0 0,0 0.1,0 0.1,0 l 2.8,0 c 1.8,0 3.3,-1.5 3.3,-3.3 l 0,-14.5 z"
       id="path6691"
       style="fill:#000000"
       inkscape:connector-curvature="0" /><path
       d="m 785,52.7 c 0,-0.9 -0.7,-1.5 -1.5,-1.5 l -18.6,0 c -0.1,0 -4.1,-0.2 -4.2,-0.1 l -6.4,0.1 c -0.1,0 -0.2,0 -0.3,0 L 750.7,51 c -0.4,0 -11.3,0.1 -12.1,0.2 -0.1,0 -0.1,0 -0.2,0 l -4.2,0 -27.6,0 c -1.8,0 -3.3,1.5 -3.3,3.3 l 0,12.8 c 0,1.8 1.5,3.3 3.3,3.3 l 24.4,0 c 1.8,0 3.3,1.5 3.3,3.3 l 0,9.9 c -0.7,73.6 -1.9,59 0,84.2 l 0,11.5 c 0,1.8 1.5,3.3 3.3,3.3 l 13.3,0 c 1.8,0 3.3,-1.5 3.3,-3.3 l 0,-107.5 c 0,-0.9 0.7,-1.5 1.5,-1.5 0,0 0.9,-0.3 3.7,0 1.9,1 18.5,0.1 19.5,0 0,0 0.1,0 0.1,0 l 2.8,0 c 1.8,0 3.3,-1.5 3.3,-3.3 l 0,-14.5 z"
       id="path6693"
       style="fill:#000000"
       inkscape:connector-curvature="0" /><path
       d="m 1059.8,420.4 c 0,-0.9 -0.7,-1.5 -1.5,-1.5 l -18.6,0 c -0.1,0 -4.1,-0.2 -4.2,-0.1 l -6.4,0.1 c -0.1,0 -0.2,0 -0.3,0 l -3.3,-0.2 c -0.4,0 -11.3,0.1 -12.1,0.2 -0.1,0 -0.1,0 -0.2,0 l -4.2,0 -27.6,0 c -1.8,0 -3.3,1.5 -3.3,3.3 l 0,12.8 c 0,1.8 1.5,3.3 3.3,3.3 l 24.4,0 c 1.8,0 3.3,1.5 3.3,3.3 l 0,9.9 c -0.7,73.6 -1.9,59 0,84.2 l 0,11.3 c 0,1.8 1.5,3.3 3.3,3.3 l 13.3,0 c 1.8,0 3.3,-1.5 3.3,-3.3 l 0,-107.3 c 0,-0.9 0.7,-1.5 1.5,-1.5 0,0 0.9,-0.3 3.7,0 1.9,1 18.5,0.1 19.5,0 0,0 0.1,0 0.1,0 l 2.8,0 c 1.8,0 3.3,-1.5 3.3,-3.3 l 0,-14.5 z"
       id="path6695"
       style="fill:#000000"
       inkscape:connector-curvature="0" /><path
       d="m 890.2,574.1 c 0,-0.9 -0.7,-1.5 -1.5,-1.5 l -18.6,0 c -0.1,0 -4.1,-0.2 -4.2,-0.1 l -6.4,0.1 c -0.1,0 -0.2,0 -0.3,0 l -3.3,-0.2 c -0.4,0 -11.3,0.1 -12.1,0.2 -0.1,0 -0.1,0 -0.2,0 l -4.2,0 -27.6,0 c -1.8,0 -3.3,1.5 -3.3,3.3 l 0,12.8 c 0,1.8 1.5,3.3 3.3,3.3 l 24.4,0 c 1.8,0 3.3,1.5 3.3,3.3 l 0,9.9 c -0.7,73.6 -1.9,59 0,84.2 l 0,11.5 c 0,1.8 1.5,3.3 3.3,3.3 l 13.3,0 c 1.8,0 3.3,-1.5 3.3,-3.3 l 0,-107.4 c 0,-0.9 0.7,-1.5 1.5,-1.5 0,0 0.9,-0.3 3.7,0 1.9,1 18.5,0.1 19.5,0 0,0 0.1,0 0.1,0 l 2.8,0 c 1.8,0 3.3,-1.5 3.3,-3.3 l 0,-14.6 z"
       id="path6697"
       style="fill:#000000"
       inkscape:connector-curvature="0" /><g
       id="g6699"
       style="fill:#000000"><path
         d="m 576.3,204.8 c -0.2,1 0.4,2 1.5,2 l 17,0 c 0.7,0 1.3,-0.4 1.5,-1.1 l 8.1,-24.8 c 0.2,-0.6 0.8,-1.1 1.5,-1.1 l 46.3,0 c 0.7,0 1.3,0.4 1.5,1.1 l 8.1,24.7 c 0.2,0.6 0.8,1.1 1.5,1.1 l 17.6,0 c 1.1,0 1.8,-1 1.5,-2 L 640,76.4 c -0.2,-0.6 -0.8,-1.1 -1.5,-1.1 l -18.8,0 c -0.6,0 -1.1,0.3 -1.4,0.9 l -0.2,0.5 c 0.1,0 -39,112.1 -41.8,128.1 z m 35.9,-42.7 c -1.1,0.1 -1.9,-0.9 -1.6,-2 2.9,-10.3 15.6,-53.9 16.4,-56.4 1,-2.8 5.6,0 6,1.8 l 13.4,53.4 c 0.2,0.9 -0.4,1.9 -1.4,1.9 l -32.8,1.3 z"
         id="path6701"
         style="fill:#000000"
         inkscape:connector-curvature="0" /><path
         d="m 600.3,52 c -4,3.5 -2.9,12.6 2,15.5 5.8,3.4 15.3,-2.5 15.5,-7.5 0.1,-2.8 -2.7,-5 -4,-6 -3.4,-2.7 -9.9,-5.1 -13.5,-2 z"
         id="path6703"
         style="fill:#000000"
         inkscape:connector-curvature="0" /><path
         d="m 645.3,50.8 c -2.7,0.7 -5.3,3 -6,6 -1.2,4.8 2.7,10.4 8,11.5 5.6,1.2 11.4,-2.8 12,-7 0.8,-5.6 -7.7,-12.2 -14,-10.5 z"
         id="path6705"
         style="fill:#000000"
         inkscape:connector-curvature="0" /></g><g
       id="g6707"
       style="fill:#000000"><path
         d="m 877.3,700.6 c -0.2,1 0.4,2 1.5,2 l 17,0 c 0.7,0 1.3,-0.4 1.5,-1.1 l 8.1,-24.8 c 0.2,-0.6 0.8,-1.1 1.5,-1.1 l 46.3,0 c 0.7,0 1.3,0.4 1.5,1.1 l 8.1,24.7 c 0.2,0.6 0.8,1.1 1.5,1.1 l 17.6,0 c 1.1,0 1.8,-1 1.5,-2 L 941.2,572.2 c -0.2,-0.6 -0.8,-1.1 -1.5,-1.1 l -18.8,0 c -0.6,0 -1.1,0.3 -1.4,0.9 l -0.2,0.5 c -0.1,0.1 -39.2,112.2 -42,128.1 z m 35.9,-42.7 c -1.1,0.1 -1.9,-0.9 -1.6,-2 2.9,-10.3 15.6,-53.9 16.4,-56.4 1,-2.8 5.6,0 6,1.8 l 13.4,53.4 c 0.2,0.9 -0.4,1.9 -1.4,1.9 l -32.8,1.3 z"
         id="path6709"
         style="fill:#000000"
         inkscape:connector-curvature="0" /><path
         d="m 901.3,547.9 c -4,3.5 -2.9,12.6 2,15.5 5.8,3.4 15.3,-2.5 15.5,-7.5 0.1,-2.8 -2.7,-5 -4,-6 -3.4,-2.7 -9.9,-5.2 -13.5,-2 z"
         id="path6711"
         style="fill:#000000"
         inkscape:connector-curvature="0" /><path
         d="m 946.3,546.7 c -2.7,0.7 -5.3,3 -6,6 -1.2,4.8 2.7,10.4 8,11.5 5.6,1.2 11.4,-2.8 12,-7 0.8,-5.7 -7.6,-12.3 -14,-10.5 z"
         id="path6713"
         style="fill:#000000"
         inkscape:connector-curvature="0" /></g><g
       id="g6715"
       style="fill:#000000"><path
         d="m 955.3,75.5 c -2.1,-1.9 -4.3,-3.5 -6.7,-5 -5.4,-3.2 -11.7,-5.3 -18.3,-5.7 l -6,0 c -6.7,0.5 -13,2.5 -18.4,5.8 -5,3 -9.3,6.9 -12.6,11.6 -4.3,6 -7,13.2 -7.6,21 l 0,0 c -0.1,1.1 -0.1,2.1 -0.1,3.2 0,1.1 0,2.2 0.1,3.2 l 0,0 0.9,44.4 0,6.5 c 0.5,6.8 1.8,13.2 5.2,18.7 3.5,5.7 8.4,10.5 14.2,14 5.4,3.2 11.6,5.3 18.3,5.8 0,0 0.1,0 0.1,0 l 0.2,0 c 0.3,0 0.6,0 0.9,0.1 l 3.8,0 c 0.3,0 0.6,0 0.9,-0.1 l 0.2,0 c 0,0 0.1,0 0.1,0 6.6,-0.5 12.8,-2.5 18.2,-5.7 1.4,-0.8 2.8,-1.8 4.1,-2.8 9,-6.9 11.5,-18 12.7,-29.9 l 1.7,-58.1 c -1.3,-10.7 -4.4,-20.2 -11.9,-27 z m -6.8,28.2 0,4.4 0,47.7 0,3.9 c -1,10.6 -4.7,18.9 -20.3,19.9 l -1.6,-0.5 c -11.5,-1.2 -20.3,-9.4 -20.8,-20.4 l 0,-1.9 -1,-53.8 c -1.4,-15.2 10.6,-18.5 22.4,-18.5 11.1,0 20.2,8.4 21.3,19.2 z"
         id="path6717"
         style="fill:#000000"
         inkscape:connector-curvature="0" /><path
         d="m 892.2,42.9 c -2.9,3.3 -4.3,8.8 -2,12.5 3.5,5.7 14.9,6.2 19.5,0 3,-4 3,-10.8 -1,-14.5 -4.7,-4.3 -12.6,-2.4 -16.5,2 z"
         id="path6719"
         style="fill:#000000"
         inkscape:connector-curvature="0" /><path
         d="m 944.2,45.9 c 1.3,-2.9 4.3,-5.8 8,-6 6.1,-0.3 12.4,7.2 10.5,13.5 -1.7,5.7 -9.6,9.2 -15,6 -4.5,-2.6 -5.6,-8.9 -3.5,-13.5 z"
         id="path6721"
         style="fill:#000000"
         inkscape:connector-curvature="0" /></g><g
       id="g6723"
       style="fill:#000000"><path
         d="m 241.6,44.9 c -7.6,-1.9 -13.5,-1.4 -19.3,3.4 -8.7,7.3 -7.4,22.2 1.8,26.5 7.1,3.3 11.9,-0.3 13.6,2.6 1.4,2.3 0.7,6 -7,13.2 -3.1,2.9 -8.8,4.2 -9.5,6.3 -0.9,2.6 10.7,3.5 21.1,-2.1 15.8,-8.5 15.5,-22.7 15.4,-23.8 -1.2,-10.1 -1.2,-10.1 -6.7,-18.9 -0.9,-1.2 -6.6,-6.5 -9.4,-7.2 z"
         id="path6725"
         style="fill:#000000"
         inkscape:connector-curvature="0" /><path
         d="m 194.7,32 c -7.6,-1.9 -13.5,-1.4 -19.3,3.4 -8.7,7.3 -7.4,22.2 1.8,26.5 7.1,3.3 11.9,-0.3 13.6,2.6 1.4,2.3 0.7,6 -7,13.2 -3.1,2.9 -8.8,4.2 -9.5,6.3 -0.9,2.6 10.7,3.5 21.1,-2.1 15.8,-8.5 15.5,-22.7 15.4,-23.8 C 209.5,48 209.5,48 204,39.2 203.2,38 197.4,32.7 194.7,32 Z"
         id="path6727"
         style="fill:#000000"
         inkscape:connector-curvature="0" /></g><g
       id="g6729"
       style="fill:#000000"><path
         d="m 1099,595.2 c -7.6,-1.9 -13.5,-1.4 -19.3,3.4 -8.7,7.3 -7.4,22.2 1.8,26.5 7.1,3.3 11.9,-0.3 13.6,2.6 1.4,2.3 0.7,6 -7,13.2 -3.1,2.9 -8.8,4.2 -9.5,6.3 -0.9,2.6 10.7,3.5 21.1,-2.1 15.8,-8.5 15.5,-22.7 15.4,-23.8 -1.2,-10.1 -1.2,-10.1 -6.7,-18.9 -0.9,-1.3 -6.7,-6.6 -9.4,-7.2 z"
         id="path6731"
         style="fill:#000000"
         inkscape:connector-curvature="0" /><path
         d="m 1052.1,582.2 c -7.6,-1.9 -13.5,-1.4 -19.3,3.4 -8.7,7.3 -7.4,22.2 1.8,26.5 7.1,3.3 11.9,-0.3 13.6,2.6 1.4,2.3 0.7,6 -7,13.2 -3.1,2.9 -8.8,4.2 -9.5,6.3 -0.9,2.6 10.7,3.5 21.1,-2.1 15.8,-8.5 15.5,-22.7 15.4,-23.8 -1.2,-10.1 -1.2,-10.1 -6.7,-18.9 -0.9,-1.2 -6.7,-6.5 -9.4,-7.2 z"
         id="path6733"
         style="fill:#000000"
         inkscape:connector-curvature="0" /></g><path
       d="m 868.4,80.5 c -3.3,1.9 -5.6,0.2 -7.9,4.6 -6.2,11.4 -31.5,49.1 -31.5,49.1 -0.5,1.4 -2.7,1.3 -3.4,0 -4.4,-7.9 -24.9,-46.6 -24.9,-46.6 -0.2,-0.6 -2.7,-6.4 -4.5,-6.1 L 778,82.3 c -1.1,0 -1.8,1 -1.5,2 0,0 2.4,7 3.7,9.6 3.7,5.7 25.4,42.3 28.8,47 3.4,4.8 8,11.1 8,11.1 0.2,0.6 1.1,13.3 1.7,63.7 0,1.2 1,2.2 2.2,2.4 l 15.1,1.3 c 1.3,0.1 2.5,-0.9 2.5,-2.3 0.7,-49.9 1.3,-54.7 -0.7,-65.1 l 44.6,-66.2 c 0.3,-1 -0.4,-3.4 -1.5,-3.4 0.1,-0.1 -9.8,-3.5 -12.5,-1.9 z"
       id="path6735"
       style="fill:#000000"
       inkscape:connector-curvature="0" /><path
       d="m 528.6,244.5 c -3.3,1.9 -5.6,0.2 -7.9,4.6 -6.2,11.4 -31.5,49.1 -31.5,49.1 -0.5,1.4 -2.7,1.3 -3.4,0 -4.4,-7.9 -24.9,-46.6 -24.9,-46.6 -0.2,-0.6 -2.7,-6.4 -4.5,-6.1 l -18.2,0.9 c -1.1,0 -1.8,1 -1.5,2 0,0 2.4,7 3.7,9.6 3.7,5.7 25.4,42.3 28.8,47 3.4,4.7 8,11.1 8,11.1 0.2,0.6 1.1,13.3 1.7,63.7 0,1.2 1,2.2 2.2,2.4 l 15.1,1.3 c 1.3,0.1 2.5,-0.9 2.5,-2.3 0.7,-49.9 1.3,-54.7 -0.7,-65.1 l 44.6,-66.2 c 0.3,-1 -0.4,-3.4 -1.5,-3.4 0.1,-0.1 -9.8,-3.6 -12.5,-2 z"
       id="path6737"
       style="fill:#000000"
       inkscape:connector-curvature="0" /><path
       d="m 812.4,220.2 c -3.3,1.9 -5.6,0.2 -7.9,4.6 -6.2,11.4 -31.5,49.1 -31.5,49.1 -0.5,1.4 -2.7,1.3 -3.4,0 -4.4,-7.9 -24.9,-46.6 -24.9,-46.6 -0.2,-0.6 -2.7,-6.4 -4.5,-6.1 L 722,222 c -1.1,0 -1.8,1 -1.5,2 0,0 2.4,7 3.7,9.6 3.7,5.7 25.4,42.3 28.8,47 3.4,4.7 8,11.1 8,11.1 0.2,0.6 1.1,13.3 1.7,63.7 0,1.2 1,2.2 2.2,2.4 l 15.1,1.3 c 1.3,0.1 2.5,-0.9 2.5,-2.3 0.7,-49.9 1.3,-54.7 -0.7,-65.1 l 44.6,-66.2 c 0.3,-1 -0.4,-3.4 -1.5,-3.4 0.1,0 -9.8,-3.5 -12.5,-1.9 z"
       id="path6739"
       style="fill:#000000"
       inkscape:connector-curvature="0" /><path
       d="m 916.7,239.5 c -3.3,1.9 -5.6,0.2 -7.9,4.6 -6.2,11.4 -31.5,49.1 -31.5,49.1 -0.5,1.4 -2.7,1.3 -3.4,0 -4.4,-7.9 -24.9,-46.6 -24.9,-46.6 -0.2,-0.6 -2.7,-6.4 -4.5,-6.1 l -18.2,0.9 c -1.1,0 -1.8,1 -1.5,2 0,0 2.4,7 3.7,9.6 3.7,5.7 25.4,42.3 28.8,47 3.4,4.8 8,11.1 8,11.1 0.2,0.6 1.1,13.3 1.7,63.7 0,1.2 1,2.2 2.2,2.4 l 15.1,1.3 c 1.3,0.1 2.5,-0.9 2.5,-2.3 0.7,-49.9 1.3,-54.7 -0.7,-65.1 l 44.6,-66.2 c 0.3,-1 -0.4,-3.4 -1.5,-3.4 0.2,-0.1 -9.7,-3.6 -12.5,-2 z"
       id="path6741"
       style="fill:#000000"
       inkscape:connector-curvature="0" /><path
       d="m 481.9,56.1 c -3.3,1.9 -5.6,0.2 -7.9,4.6 -6.2,11.4 -31.5,49.1 -31.5,49.1 -0.5,1.4 -2.7,1.3 -3.4,0 -4.4,-7.9 -24.9,-46.6 -24.9,-46.6 -0.2,-0.6 -2.7,-6.4 -4.5,-6.1 L 391.5,58 c -1.1,0 -1.8,1 -1.5,2 0,0 2.4,7 3.7,9.6 3.7,5.7 25.4,42.3 28.8,47 3.4,4.8 8,11.1 8,11.1 0.2,0.6 1.1,13.3 1.7,63.7 0,1.2 1,2.2 2.2,2.4 l 15.1,1.3 c 1.3,0.1 2.5,-0.9 2.5,-2.3 0.7,-49.9 1.3,-54.7 -0.7,-65.1 l 44.6,-66.2 c 0.3,-1 -0.4,-3.4 -1.5,-3.4 0.2,-0.2 -9.7,-3.6 -12.5,-2 z"
       id="path6743"
       style="fill:#000000"
       inkscape:connector-curvature="0" /></g></svg>